<?xml version="1.0" standalone="no"?>
<!DOCTYPE svg PUBLIC "-//W3C//DTD SVG 1.1//EN" "http://www.w3.org/Graphics/SVG/1.1/DTD/svg11.dtd" >
<svg xmlns="http://www.w3.org/2000/svg" xmlns:xlink="http://www.w3.org/1999/xlink" version="1.1">
<metadata>
Created by FontForge 20170731 at Mon Sep 18 10:26:52 2023
 By Aleksey,,,
 
</metadata>
<defs>
<font id="RooneyBold" horiz-adv-x="1024" >
  <font-face 
    font-family="Rooney"
    font-weight="500"
    font-stretch="normal"
    units-per-em="2048"
    panose-1="0 0 0 0 0 0 0 0 0 0"
    ascent="1638"
    descent="-410"
    x-height="1014"
    cap-height="1378"
    bbox="-74 -518 2767 2044"
    underline-thickness="102"
    underline-position="-307"
    unicode-range="U+0020-FB02"
  />
<missing-glyph 
d="M397 678h-4h-74q-16 0 -16 20q0 21 16 21h93q32 0 32 -33v-246q0 -104 -106 -104q-17 0 -25 2q-16 4 -22 6q-10 3 -10 18q0 21 16 21q6 0 18 -4t31 -4q51 0 51 65v238zM524 686q0 33 35 33h174q17 0 17 -21q0 -20 -17 -20h-158v-125h142q14 0 14 -21q0 -20 -14 -20h-142
v-152q0 -20 -26 -20q-25 0 -25 20v326zM160 539q0 -76 26 -138t74 -110q47 -47 111 -74q65 -27 137 -27q75 0 139 27t111 74q46 46 73 110q27 65 27 138q0 75 -27 139t-73 110q-47 47 -111 74t-139 27q-72 0 -137 -27q-64 -27 -111 -74q-48 -48 -74 -110t-26 -139z" />
    <glyph glyph-name=".notdef" 
d="M397 678h-4h-74q-16 0 -16 20q0 21 16 21h93q32 0 32 -33v-246q0 -104 -106 -104q-17 0 -25 2q-16 4 -22 6q-10 3 -10 18q0 21 16 21q6 0 18 -4t31 -4q51 0 51 65v238zM524 686q0 33 35 33h174q17 0 17 -21q0 -20 -17 -20h-158v-125h142q14 0 14 -21q0 -20 -14 -20h-142
v-152q0 -20 -26 -20q-25 0 -25 20v326zM160 539q0 -76 26 -138t74 -110q47 -47 111 -74q65 -27 137 -27q75 0 139 27t111 74q46 46 73 110q27 65 27 138q0 75 -27 139t-73 110q-47 47 -111 74t-139 27q-72 0 -137 -27q-64 -27 -111 -74q-48 -48 -74 -110t-26 -139z" />
    <glyph glyph-name=".null" horiz-adv-x="0" 
 />
    <glyph glyph-name="nonmarkingreturn" horiz-adv-x="682" 
 />
    <glyph glyph-name="space" unicode=" " horiz-adv-x="522" 
 />
    <glyph glyph-name="exclam" unicode="!" horiz-adv-x="696" 
d="M240 520l-2 -2q3 -42 26 -65q25 -25 82 -25q60 0 84 27q24 24 27 65l37 723q3 54 6 80v47q0 45 -33 78t-119 33t-119 -33q-32 -32 -32 -78q0 -29 2 -47q0 -10 4 -80zM172 147l-6 -2q0 -76 49 -122q50 -50 125 -50q77 0 129 52q49 49 49 125q0 74 -47 124q-50 50 -125 50
t-125 -50q-49 -49 -49 -127z" />
    <glyph glyph-name="quotedbl" unicode="&#x22;" horiz-adv-x="866" 
d="M150 981h-3q3 -41 31 -63q24 -21 64 -21q33 0 63 23q26 23 29 61l31 317q3 36 6 56q2 14 2 43q0 39 -31 67q-32 29 -102 29t-99 -29q-30 -27 -30 -67q0 -29 2 -43q3 -20 6 -56zM528 981h-2q3 -41 31 -63q24 -21 64 -21q33 0 63 23q26 23 29 61l30 317q2 18 7 56
q2 14 2 43q0 39 -31 67q-32 29 -103 29q-69 0 -98 -29q-31 -28 -31 -67q0 -22 3 -43q3 -20 6 -56z" />
    <glyph glyph-name="numbersign" unicode="#" horiz-adv-x="1513" 
d="M209 129h-8q-5 -25 -6 -29q-2 -8 -2 -28q0 -47 34 -74q35 -27 86 -27q81 0 111 95l84 268h266l-65 -207q-1 -5 -7 -29q-2 -8 -2 -28q0 -47 35 -74t86 -27q81 0 111 94l84 269h184q42 0 70 22q24 21 24 64q0 44 -24 65t-68 21h-133l113 356h182q40 0 70 23q24 21 24 63
q0 45 -24 66q-23 20 -68 20h-131l63 207l7 31q2 8 2 26q0 48 -33 74q-35 27 -86 27q-81 0 -111 -94l-84 -269h-264l64 207l6 31q2 8 2 26q0 48 -33 74q-35 27 -86 27q-81 0 -111 -94l-84 -269h-186q-45 0 -68 -20q-24 -21 -24 -66q0 -42 24 -63q26 -23 68 -23h135l-110 -356
h-187q-43 0 -67 -21q-25 -22 -25 -65q0 -42 25 -64t67 -22h135zM561 508l113 356h264l-111 -356h-266z" />
    <glyph glyph-name="dollar" unicode="$" horiz-adv-x="1097" 
d="M793 985l-15 -16q11 -38 35 -62q20 -20 55 -20q36 0 56 20q21 18 24 62q2 23 2 59v53v19q0 71 -6 98q-6 25 -22 41q-24 24 -80 41q-62 19 -178 25v192q0 46 -23 72q-21 24 -68 24q-46 0 -67 -24q-23 -26 -23 -72v-203q-175 -27 -268 -123q-92 -100 -92 -239
q0 -109 45 -174q48 -69 117 -115q69 -47 147 -74q59 -22 150 -61q60 -27 112 -72q45 -39 45 -104q0 -71 -47 -115q-46 -43 -153 -43q-43 0 -78 6q-26 5 -60 13q-31 11 -49 18l-43 135q-15 40 -37 62q-20 20 -55 20q-34 0 -55 -18q-22 -19 -25 -62q-2 -23 -2 -59v-53v-29
q0 -41 2 -55q3 -25 6 -37q3 -16 9 -25q8 -12 14 -18q29 -29 100 -49q77 -22 197 -25v-197q0 -46 22 -71t68 -25t68 25t22 71v209q90 18 158 56q67 37 112 88q48 51 68 110q23 67 23 133q0 107 -46 174q-47 68 -112 113t-148 76q-91 34 -147 63q-66 29 -115 72
q-45 39 -45 104q0 62 43 99t148 37q18 0 75 -5q8 -1 28 -5t28 -5q28 -7 43 -12z" />
    <glyph glyph-name="percent" unicode="%" horiz-adv-x="1976" 
d="M80 993q0 -180 96 -276q94 -99 270 -99q78 0 154 29q70 27 123 80q54 54 80 125q28 76 28 162q0 177 -96 278q-95 99 -270 99q-78 0 -154 -29q-70 -27 -123 -80q-51 -51 -79 -127q-29 -79 -29 -162zM332 1006l-6 4q0 114 36 159t87 45t92 -47q37 -49 37 -161
q0 -113 -35 -160q-38 -47 -86 -47q-50 0 -88 47q-37 46 -37 160zM545 133l-2 -2q-25 -45 -25 -72q0 -33 25 -55t59 -22q23 0 49 16t43 49l719 1208q25 45 25 72q0 33 -25 55q-26 23 -59 23q-27 0 -47 -14q-25 -16 -43 -50zM1137 367q0 -181 96 -277q94 -98 270 -98
q81 0 154 28q70 27 123 80q54 54 80 125q28 76 28 162q0 178 -96 279q-94 98 -270 98q-78 0 -154 -29q-70 -27 -123 -80t-80 -127q-28 -76 -28 -161zM1389 379l-7 4q0 114 37 160q36 45 86 45q51 0 92 -47q37 -49 37 -162t-35 -160q-38 -47 -86 -47q-50 0 -88 47
q-36 45 -36 160z" />
    <glyph glyph-name="ampersand" unicode="&#x26;" horiz-adv-x="1640" 
d="M1016 1020l-19 -12q-51 0 -77 -23q-25 -25 -25 -65q0 -28 10 -48q7 -14 25 -32q21 -21 33 -31q18 -18 36 -45q38 -54 62 -123q24 -70 24 -164v-14v-10v-13q-87 67 -172 138q-91 77 -174 172q-82 94 -135 192q-55 101 -55 203q0 81 33 117t88 36q45 0 75 -18t52 -43
q21 -25 43 -43q18 -18 47 -18q57 0 98 41q39 39 39 96q0 26 -16 63q-15 35 -50 62q-39 27 -90 41q-59 16 -135 16q-105 0 -190 -31q-83 -29 -144 -84t-90 -129q-30 -77 -30 -166q0 -40 8 -73q5 -34 18 -70t27 -65q20 -40 30 -56q-75 -42 -129 -98q-44 -50 -86 -129
q-41 -77 -41 -184q0 -92 35 -170q35 -80 105 -138q68 -57 182 -92q106 -33 258 -33q148 0 258 39q119 39 201 107q63 -40 76 -47q53 -32 79 -43q46 -22 76 -31q38 -12 72 -12q61 0 90 26q31 28 31 70q0 29 -17 49q-19 23 -49 41q-31 18 -98 62q-65 37 -111 69q23 50 37 115
q17 77 17 143q0 36 -7 80q-4 22 -16 70q-8 30 -25 61q-15 27 -30 51l2 2h84q57 0 86 29q28 28 28 80q0 82 -92 82h-362zM373 471l-4 -6q0 49 10 94q9 40 24 64q15 27 37 49q43 -54 111 -119q68 -68 131 -123q77 -67 143 -117q44 -34 140 -98q-42 -28 -103 -43
q-62 -18 -139 -18q-81 0 -145 24t-111 68t-70 100q-24 59 -24 125z" />
    <glyph glyph-name="quotesingle" unicode="'" horiz-adv-x="485" 
d="M150 981h-3q3 -41 31 -63q24 -21 64 -21q33 0 63 23q26 23 29 61l31 317q3 36 6 56q2 14 2 43q0 39 -31 67q-32 29 -102 29t-99 -29q-30 -27 -30 -67q0 -29 2 -43q3 -20 6 -56z" />
    <glyph glyph-name="parenleft" unicode="(" horiz-adv-x="681" 
d="M123 584l4 -4q0 -127 25 -265q25 -137 67 -256q43 -123 105 -231q61 -107 135 -190q23 -27 43 -35q26 -11 43 -11q33 0 61 25q27 24 27 57q0 11 -4 31q-3 13 -13 29q-103 163 -159 377q-56 210 -56 473q0 262 56 475q57 213 159 375q10 18 13 30q4 16 4 27q0 34 -27 55
q-30 23 -61 23q-53 0 -92 -45q-75 -85 -136 -191q-59 -103 -104 -231q-47 -132 -66 -254q-24 -132 -24 -264z" />
    <glyph glyph-name="parenright" unicode=")" horiz-adv-x="681" 
d="M285 584l-9 -6q0 -267 -55 -474q-55 -208 -160 -374q-8 -14 -12 -29q-4 -16 -4 -29q0 -34 27 -55q30 -23 61 -23q52 0 92 46q74 83 135 190q62 108 105 231q42 119 67 256t25 265q0 126 -22 264q-23 127 -68 254q-43 123 -105 231q-62 109 -135 191q-22 25 -43 34
q-26 11 -43 11q-31 0 -61 -23q-27 -24 -27 -57q0 -11 4 -27q3 -11 13 -28q102 -162 159 -375q56 -210 56 -473z" />
    <glyph glyph-name="asterisk" unicode="*" horiz-adv-x="860" 
d="M369 1028l-9 -8l-32 -131q-4 -16 -4 -23v-18q0 -42 26 -62t74 -20t74 20t26 56v22q0 5 -4 25l-33 131l105 -102q16 -16 31 -19q15 -6 32 -6t37 10q16 8 33 25q9 11 20 37q9 21 9 43q0 33 -19 55q-20 20 -49 29l-139 38l139 39q31 8 51 31q19 22 19 55q0 24 -8 43
q-9 21 -25 37t-31 25q-16 8 -37 8q-15 0 -30 -6q-13 -5 -31 -23l-105 -100l33 131q5 20 6 23v18q0 42 -26 62t-74 20t-74 -20t-26 -56q0 -16 2 -22q0 -5 4 -25l33 -131l-105 102q-18 18 -31 23q-15 6 -32 6t-37 -10q-18 -9 -31 -25q-13 -17 -22 -37q-9 -21 -9 -43
q0 -34 19 -53t49 -28l139 -39l-139 -39q-33 -9 -49 -31q-19 -22 -19 -55q0 -23 9 -41q11 -22 24 -35q17 -17 33 -25q20 -10 37 -10q15 0 30 6q13 5 31 23z" />
    <glyph glyph-name="plus" unicode="+" horiz-adv-x="1085" 
d="M436 485l-2 -4v-237q0 -57 29 -86q28 -31 80 -31t80 31q26 29 26 88v237h246q47 0 74 27q24 27 24 74q0 46 -24 73t-72 27h-246v238q0 61 -26 90q-27 30 -80 30q-52 0 -80 -28q-29 -32 -29 -90v-238h-248q-42 0 -69 -27t-27 -73q0 -47 27 -74t69 -27h248z" />
    <glyph glyph-name="comma" unicode="," horiz-adv-x="614" 
d="M127 156h-4q0 -37 8 -58q9 -25 25 -47q18 -26 32 -37q18 -15 39 -24q-17 -64 -43 -111q-22 -40 -47 -72q-6 -7 -15 -18t-15.5 -19t-10.5 -14q-16 -22 -16 -47q0 -31 20 -45q18 -15 43 -18q28 -3 52 6q26 7 45 20q28 18 82 72q36 38 79 109q39 65 62 131q24 70 24 141
q0 100 -47 156q-49 55 -131 55q-80 0 -131 -51t-51 -129z" />
    <glyph glyph-name="hyphen" unicode="-" horiz-adv-x="925" 
d="M231 651q-114 0 -114 -121q0 -88 92 -88h485q115 0 115 121q0 88 -92 88h-486z" />
    <glyph glyph-name="period" unicode="." horiz-adv-x="614" 
d="M127 156v-4q0 -79 51 -127q50 -50 127 -50q75 0 129 54q51 51 51 129q0 77 -49 129q-49 49 -127 49t-129 -51q-53 -53 -53 -129z" />
    <glyph glyph-name="slash" unicode="/" horiz-adv-x="892" 
d="M8 -174l-2 -4q-1 -3 -8 -31q-2 -8 -2 -29q0 -46 35 -73q36 -31 86 -31q77 0 112 90l578 1589q3 11 8 33q2 8 2 27q0 49 -33 78q-35 30 -86 30q-77 0 -112 -90z" />
    <glyph glyph-name="zero" unicode="0" horiz-adv-x="1323" 
d="M111 680l-5 -8q0 -193 39 -320q38 -135 107 -215q70 -84 172 -125q103 -41 227 -41q116 0 219 47q100 46 179 140q75 89 122 227q43 133 43 313q0 191 -36 318q-38 132 -109 219q-70 84 -172 125q-98 39 -227 39q-120 0 -219 -45q-103 -47 -179 -135q-72 -86 -118 -226
q-43 -133 -43 -313zM391 686l-4 -4q0 136 23 244q21 99 57 155q39 61 82 86q48 25 98 25q51 0 101 -27q46 -25 88 -86q39 -64 59 -159q23 -108 23 -244q0 -145 -21 -244q-21 -101 -55 -158q-39 -61 -84 -84q-50 -24 -101 -24t-98 27q-48 26 -86 88q-39 64 -59 161
q-23 108 -23 244z" />
    <glyph glyph-name="one" unicode="1" horiz-adv-x="819" 
d="M295 205l-8 -2l-152 -35q-44 -8 -63 -31q-19 -22 -19 -55q0 -38 27 -62t74 -24h524q47 0 74 24q26 23 26 62q0 29 -16 51t-68 37l-127 33v1052q0 131 -131 131q-43 0 -92 -14q-48 -13 -108 -37q-44 -17 -99 -47q-40 -22 -61 -43q-31 -31 -31 -63q0 -33 23 -56
q22 -22 57 -22q23 0 33 2l30 6l107 23v-930z" />
    <glyph glyph-name="two" unicode="2" 
d="M94 276l-4 -10q-40 -40 -55 -67q-15 -30 -15 -68q0 -62 41 -100q40 -37 113 -37h629q36 0 55 8q21 9 37 25q17 17 23 41t6 73v17v41v43v47v49q-3 41 -25 63q-22 19 -55 19t-51 -21q-22 -25 -35 -61l-39 -117h-406l215 225q87 93 148 160q58 63 110 139q45 70 66 140
q22 74 22 153q0 80 -26 142t-80 110q-57 48 -137 74q-86 25 -193 25q-58 0 -110 -9t-99 -24q-41 -13 -79 -33q-37 -18 -60 -41q-27 -27 -27 -61q0 -33 23 -56q22 -22 55 -22q22 0 41 8l49 14q39 13 62 19q30 6 69 6q56 0 97 -12q38 -11 67 -37q28 -25 43 -60q15 -37 15 -80
q0 -46 -13 -100q-11 -46 -39 -100q-30 -59 -69 -111q-39 -53 -105 -125z" />
    <glyph glyph-name="three" unicode="3" horiz-adv-x="999" 
d="M426 164l-12 -19q-57 0 -97 19q-32 15 -63 43t-49 43q-21 18 -49 18q-47 0 -74 -30q-31 -31 -31 -82q0 -36 19 -72q18 -35 57 -61q43 -29 104 -43q70 -17 148 -17q121 0 221 35q97 34 168 96q64 59 104 146q37 81 37 178q0 73 -20 129t-55 100q-41 47 -86 72
q-53 29 -111 43v2q53 19 90 51q44 38 68 76q30 48 43 92q14 46 14 102q0 59 -23 123q-25 58 -73 97q-49 40 -123 61q-80 23 -172 23q-122 0 -213 -31q-91 -30 -135 -74q-27 -27 -27 -61q0 -33 23 -56q22 -22 55 -22q22 0 41 8l14 3.5t18.5 5t16.5 5.5q43 14 61 19q30 6 70 6
q89 0 141 -43q49 -43 49 -115q0 -43 -16 -86q-15 -40 -49 -67q-38 -30 -82 -43q-56 -17 -115 -17q-33 0 -61 -4q-23 -3 -35 -12q-9 -7 -20 -25t-11 -43q0 -52 29 -84q27 -30 74 -30q80 0 153 -17q67 -19 105 -51q41 -35 61 -76q19 -46 19 -96q0 -101 -56 -160t-145 -59z" />
    <glyph glyph-name="four" unicode="4" horiz-adv-x="1148" 
d="M90 657l-2 -2q-28 -44 -35 -67q-12 -30 -12 -66q0 -72 43 -112q44 -41 129 -41h403v-174l-106 -31q-39 -11 -61 -29q-19 -16 -19 -49q0 -37 27 -61q28 -25 73 -25h426q46 0 74 25q27 24 27 61q0 33 -17 53q-15 18 -61 33l-88 27v174h80q57 0 92 35q33 33 33 92
q0 44 -23 67q-21 21 -67 21h-113v661q0 67 -39 103q-40 37 -133 37q-36 0 -76 -7q-31 -5 -61 -22q-31 -17 -54 -43q-26 -29 -49 -68zM272 586l342 522v-522h-342z" />
    <glyph glyph-name="five" unicode="5" horiz-adv-x="1026" 
d="M129 743l-4 -10q-3 -45 18 -69q22 -25 74 -25q117 0 199 -18q74 -17 131 -54q51 -35 71 -80q23 -51 23 -102q0 -109 -57 -166q-59 -59 -154 -59q-58 0 -98 18q-39 17 -68 43q-32 28 -49 43q-22 19 -49 19q-45 0 -74 -29q-29 -32 -29 -84q0 -77 84 -137q82 -58 244 -58
q126 0 227 37q98 37 168 101q68 59 107 145q37 81 37 178q0 100 -37 178q-39 83 -111 140q-72 58 -180 92q-106 34 -250 37l10 258h394q52 0 86 37q30 38 30 104q0 48 -24 72t-66 24h-508q-116 0 -122 -123z" />
    <glyph glyph-name="six" unicode="6" horiz-adv-x="1171" 
d="M395 610l2 2q24 17 49 31q27 15 56 23q38 10 76 10q95 0 153 -64q57 -63 57 -190q0 -132 -49 -193t-127 -61q-44 0 -86 25q-41 24 -67 75q-33 58 -47 138q-17 97 -17 204zM113 575l-13 -6q0 -157 33 -266q35 -117 94 -184q60 -72 150 -107q87 -37 198 -37q114 0 201 37
q92 39 154 101q61 61 100 153q37 87 37 197q0 90 -29 172q-27 76 -80 129t-127 80q-76 28 -165 28q-66 0 -115 -12q-39 -9 -84 -29q-39 -17 -68 -40q14 104 50 186q35 79 86 131q50 53 114 80q65 24 148 24q39 0 53 -2q28 -4 43 -4q43 0 68 25q24 24 24 63q0 60 -55 84
q-58 25 -139 25q-151 0 -273 -51q-126 -53 -215 -158q-91 -105 -141 -258q-49 -151 -49 -361z" />
    <glyph glyph-name="seven" unicode="7" horiz-adv-x="993" 
d="M713 1149l-13 -8q-124 -204 -176 -295q-74 -129 -137 -264q-57 -124 -88 -240q-31 -118 -31 -215q0 -70 41 -111q40 -43 109 -43q76 0 117 47q40 46 40 134q0 133 25 252q23 111 68 225q43 110 104 223q23 41 69.5 124.5t65.5 117.5q25 46 39 80q15 38 15 69q0 64 -37 98
q-36 33 -121 33h-635q-36 0 -55 -8q-21 -9 -37 -25q-17 -17 -23 -40q-6 -24 -6 -84v-17v-51v-41q0 -25 2 -37v-43q3 -42 25 -61t55 -19q34 0 55 21q20 23 31 61l35 117h463z" />
    <glyph glyph-name="eight" unicode="8" horiz-adv-x="1132" 
d="M399 1059l2 -2q0 70 43 110q44 41 119 41q83 0 125 -45q43 -46 43 -123q0 -71 -31 -122q-32 -52 -88 -97q-92 45 -153 103q-60 57 -60 135zM129 1012l-4 -6q0 -61 14 -107q14 -47 43 -90q26 -39 70 -74q45 -39 100 -67q-56 -35 -104 -74q-54 -44 -84 -82q-37 -42 -58 -96
q-22 -55 -22 -111q0 -63 29 -129q25 -56 84 -106q57 -48 137 -74q82 -27 190 -27q124 0 224 35q98 34 165 92q66 54 101 129q33 70 33 154q0 122 -66 203q-67 79 -197 147q95 62 156 148q57 80 57 208q0 65 -24 123q-24 55 -74 99q-49 43 -123 67q-77 25 -172 25
q-113 0 -198 -33q-91 -35 -150 -86q-58 -50 -94 -123q-33 -67 -33 -145zM352 352l2 -8q0 67 47 123q43 51 123 106q46 -23 109 -59q48 -28 78 -55q32 -32 47 -62q14 -28 14 -65q0 -82 -53 -129t-154 -47q-97 0 -155 55t-58 141z" />
    <glyph glyph-name="nine" unicode="9" horiz-adv-x="1171" 
d="M383 956l-4 -4q0 133 51 193q49 61 127 61q44 0 86 -22q40 -24 70 -76t45 -135q16 -91 16 -207q-19 -16 -49 -33q-18 -10 -55 -20q-42 -11 -74 -11q-96 0 -154 64q-59 65 -59 190zM90 913l-2 -8q0 -90 29 -172q27 -76 80 -129t129 -80q76 -28 166 -28q64 0 116 12
q39 9 84 29q36 16 68 41q-15 -110 -49 -185q-35 -80 -86 -131q-55 -55 -123 -78q-70 -24 -160 -24q-21 0 -49 4q-14 2 -43 2q-43 0 -66 -23q-24 -24 -24 -65q0 -59 55 -80q58 -25 139 -25q152 0 285 54q130 53 221 157q92 106 144 260q51 149 51 359q0 157 -33 266
q-35 115 -94 186q-63 75 -150 109q-90 35 -198 35q-111 0 -201 -35q-94 -40 -154 -100q-62 -62 -98 -154q-37 -87 -37 -197z" />
    <glyph glyph-name="colon" unicode=":" horiz-adv-x="614" 
d="M127 156v-4q0 -79 51 -127q50 -50 127 -50q75 0 129 54q51 51 51 129q0 77 -49 129q-49 49 -127 49t-129 -51q-53 -53 -53 -129zM127 766v-4q0 -79 51 -127q49 -49 127 -49q76 0 129 53q51 51 51 129q0 77 -49 129q-49 49 -127 49t-129 -51q-53 -53 -53 -129z" />
    <glyph glyph-name="semicolon" unicode=";" horiz-adv-x="614" 
d="M127 156h-4q0 -37 8 -58q9 -25 25 -47q18 -26 32 -37q18 -15 39 -24q-17 -64 -43 -111q-22 -40 -47 -72q-6 -7 -15 -18t-15.5 -19t-10.5 -14q-16 -22 -16 -47q0 -31 20 -45q18 -15 43 -18q28 -3 52 6q26 7 45 20q28 18 82 72q36 38 79 109q39 65 62 131q24 70 24 141
q0 100 -47 156q-49 55 -131 55q-80 0 -131 -51t-51 -129zM123 770v-4q0 -79 51 -127q49 -49 127 -49q76 0 129 53q51 51 51 129q0 77 -49 129q-49 49 -127 49t-129 -51q-53 -53 -53 -129z" />
    <glyph glyph-name="less" unicode="&#x3c;" horiz-adv-x="1085" 
d="M223 692l-2 -6q-33 -20 -49 -49t-16 -62q0 -31 16 -57t49 -49l490 -319q17 -10 30 -13q15 -6 31 -6q22 0 45 10q21 9 37 25t25 37q8 19 8 43q0 20 -10 43q-9 20 -37 39l-396 262l390 256q28 22 40 43q13 19 13 47q0 40 -29 72q-30 30 -74 30q-10 0 -30 -4q-18 -7 -37 -18
z" />
    <glyph glyph-name="equal" unicode="=" horiz-adv-x="1085" 
d="M209 481l-2 -2q-43 0 -70 -24q-26 -23 -26 -72q0 -48 26 -74t70 -26h665q48 0 74 26q25 28 25 74t-25 74q-24 24 -72 24h-665zM207 879l-2 -5q-43 0 -70 -24q-26 -23 -26 -72q0 -46 26 -69q28 -25 70 -25h665q47 0 74 27q25 25 25 69q0 46 -25 74q-25 25 -72 25h-665z
" />
    <glyph glyph-name="greater" unicode="&#x3e;" horiz-adv-x="1085" 
d="M252 322l-4 -9q-29 -22 -37 -39q-12 -18 -12 -47q0 -41 30 -71q31 -31 74 -31q16 0 31 6q13 5 37 19l493 323q33 20 49 49q15 27 15 62q0 34 -15 61q-16 26 -49 49l-489 320q-18 11 -31 16q-15 6 -31 6q-26 0 -45 -8q-23 -10 -37 -24t-24 -37q-8 -19 -8 -43q0 -20 10 -43
t37 -41l395 -262z" />
    <glyph glyph-name="question" unicode="?" horiz-adv-x="808" 
d="M199 616l-6 -18q0 -93 43 -139q43 -49 112 -49q72 0 105 26q32 22 32 60q0 20 -2 30q-1 4 -6 29q-3 12 -6 37q-2 12 -2 47q0 43 23 84q22 39 55 72q44 44 69 67q30 28 70 78q34 43 55 98q21 56 21 125q0 68 -25 129q-24 59 -73 99q-51 41 -123 65q-77 25 -176 25
q-62 0 -103 -8q-46 -9 -84 -21q-30 -10 -65 -29q-29 -16 -43 -30q-29 -29 -29 -62t22 -55q22 -25 58 -25q21 0 39 6l37 13q15 5 43 12q24 6 57 6q88 0 133 -45q47 -47 47 -119q0 -49 -20 -88q-18 -36 -51 -73q-29 -36 -68 -72q-39 -39 -68 -78q-31 -42 -51 -86
q-20 -47 -20 -111zM186 131l-6 -2q0 -77 49 -123q49 -49 125 -49q78 0 129 51q49 49 49 125q0 75 -47 125q-49 49 -125 49q-75 0 -124 -49q-50 -50 -50 -127z" />
    <glyph glyph-name="at" unicode="@" horiz-adv-x="2123" 
d="M1497 868l-12 -12q3 43 -12 70q-17 27 -50 47q-36 22 -94 39q-61 18 -160 18q-124 0 -219 -39q-100 -41 -170 -114q-68 -71 -110 -177q-41 -106 -41 -231q0 -87 24 -152q23 -65 70 -112q45 -48 104 -68q61 -24 136 -24q69 0 116 20q49 21 84 45q39 26 68 66l4 -2
q20 -57 80 -92q59 -35 153 -35q110 0 201 45q96 47 166 135q73 91 115 217q43 128 43 295q0 158 -49 283q-50 127 -148 215q-97 87 -246 137q-146 49 -344 49q-242 0 -448 -78q-201 -76 -346 -215q-146 -140 -222 -326q-79 -186 -79 -409q0 -192 55 -338q56 -148 162 -248
q102 -99 262 -153t366 -54q86 0 172 13q80 12 144 30q43 13 106 41q41 20 62 41q28 28 28 66q0 27 -16 49q-17 20 -49 20q-19 0 -57 -10q-8 -3 -80 -26q-52 -17 -111 -25q-67 -12 -160 -12q-317 0 -467 159q-153 159 -153 486q0 173 59 321q57 144 164 254q105 105 250 164
t317 59q294 0 443 -143q147 -144 147 -409q0 -126 -18 -211q-18 -86 -49 -140q-29 -51 -72 -73q-42 -25 -80 -25q-40 0 -63 29q-22 28 -13 110zM1194 381v-2q-15 -22 -37 -37q-20 -17 -45 -25q-27 -12 -65 -12q-64 0 -105 47t-41 148q0 89 19 157q18 64 49 109q28 41 71 63
q40 21 84 21q22 0 50 -4q12 -2 32 -6q5 -2 13.5 -6t11.5 -5z" />
    <glyph glyph-name="A" unicode="A" horiz-adv-x="1484" 
d="M150 201l6 -6l-58 -25q-43 -18 -59 -37t-16 -53q0 -39 26 -62q27 -24 74 -24h323q47 0 74 24t27 62q0 34 -19 53q-18 18 -61 33l-61 24l61 177h516l59 -177l-61 -24q-41 -14 -61 -31q-19 -19 -19 -53q0 -38 27 -62t73 -24h373q47 0 74 24t27 62q0 33 -17 53
q-16 19 -59 37l-58 25l-368 1020q-15 42 -39 81q-21 30 -49 52q-24 16 -62 26q-31 8 -78 8q-44 0 -75 -8q-38 -10 -62 -26q-26 -18 -49 -50q-21 -31 -39 -79zM526 547l2 -4l125 362q2 4 31 84q3 11 11.5 36t11.5 38q9 37 18 72h4q1 -5 8 -31t11 -41q3 -10 6.5 -22t8 -27.5
t7.5 -24.5q11 -35 27 -80l127 -362h-398z" />
    <glyph glyph-name="B" unicode="B" horiz-adv-x="1296" 
d="M219 201l-4 -6l-96 -31q-46 -15 -62 -31q-16 -19 -16 -53q0 -38 27 -62t73 -24h463q154 0 270 35q117 35 191 92q73 59 111 141q36 76 36 174q0 118 -73 197q-75 81 -213 102v4q115 41 176 117t61 180q0 76 -26 138q-25 57 -90 106q-61 46 -158 74q-94 24 -232 24h-524
q-45 0 -65 -20q-23 -23 -23 -53q0 -41 18 -62q19 -22 66 -37l90 -28v-977zM498 182v6v426h135q80 0 129 -14t86 -43q34 -26 49 -68q14 -38 14 -88q0 -100 -65 -159q-69 -60 -211 -60h-137zM498 791v2v399h125q127 0 184 -51q55 -52 55 -148q0 -91 -59 -147q-61 -55 -182 -55
h-123z" />
    <glyph glyph-name="C" unicode="C" horiz-adv-x="1218" 
d="M944 987l-8 -8q12 -40 37 -59t57 -19q39 0 60 21q21 18 24 61q2 27 2 70v75v29v68q0 19 -4 43q-2 15 -10 30q-6 12 -17 23q-34 34 -104 55q-78 19 -186 19q-153 0 -289 -54q-135 -57 -227 -153q-96 -100 -148 -238q-55 -137 -55 -307q0 -159 45 -278q47 -124 129 -209
q81 -84 199 -131q113 -45 260 -45q77 0 141 12q70 13 113 26q40 12 81 37q31 16 50 35q14 14 24 31q6 15 6 37q0 40 -18 61q-19 19 -53 19q-15 0 -39 -7q-8 -2 -27.5 -8t-25.5 -8q-22 -7 -72 -14q-43 -6 -101 -6q-95 0 -163 32q-74 30 -127 92q-55 61 -86 152t-31 209
q0 119 29 221q28 97 79 160q50 58 123 94q73 31 154 31q39 0 53 -2q25 -4 37 -6q5 -2 16 -6t15 -5z" />
    <glyph glyph-name="D" unicode="D" horiz-adv-x="1458" 
d="M219 201l-4 -2l-96 -31q-46 -15 -62 -31q-16 -19 -16 -53q0 -37 27 -61q28 -25 73 -25h441q195 0 338 51q142 51 247 148q102 94 154 229q51 131 51 301q0 157 -43 279q-42 119 -133 204q-86 80 -225 125q-133 43 -320 43h-518q-45 0 -65 -20q-23 -23 -23 -53
q0 -41 18 -62q19 -22 66 -37l90 -28v-977zM502 201l-2 -2v972h112q227 0 342 -118q117 -120 117 -363q0 -244 -119 -366q-120 -123 -338 -123h-112z" />
    <glyph glyph-name="E" unicode="E" horiz-adv-x="1196" 
d="M219 201l-6 -4l-96 -31q-46 -15 -62 -31q-16 -19 -16 -53q0 -38 27 -62t73 -24h842q40 0 61 8q22 8 39 25t23 41t6 84v34v31v25v26v31q-3 42 -25 64q-21 18 -59 18q-35 0 -59 -18q-25 -19 -37 -60l-35 -110h-393v407h272l21 -51q15 -40 36 -55q19 -19 52 -19q34 0 57 23
q21 21 21 67v252q0 47 -21 68q-20 20 -57 20q-35 0 -52 -14q-20 -16 -34 -55l-21 -54h-272v400h366l33 -101q15 -41 39 -59t57 -18q40 0 60 20q21 18 24 61q2 23 2 56v53v25q0 60 -6 84q-6 25 -22 41q-14 14 -37 24q-21 8 -62 8h-825q-45 0 -65 -20q-23 -23 -23 -53
q0 -41 18 -62q19 -22 66 -37l90 -28v-977z" />
    <glyph glyph-name="F" unicode="F" horiz-adv-x="1105" 
d="M219 201l2 -2l-96 -31q-46 -15 -62 -31q-16 -19 -16 -53q0 -37 27 -61q28 -25 73 -25h453q46 0 74 25q26 23 26 61q0 34 -16 53q-20 20 -63 31l-113 33v385h252l20 -54q14 -37 35 -55q19 -16 53 -16q36 0 58 22q20 20 20 68v258q0 48 -20 68t-58 20q-35 0 -55 -14
q-22 -16 -37 -56l-20 -57h-252v410h352l35 -103q15 -41 39 -59q25 -19 57 -19q39 0 60 21q21 18 24 61q2 20 2 56v55v29q0 60 -6 84t-23 41q-15 15 -36 24q-21 8 -62 8h-813q-45 0 -65 -20q-23 -23 -23 -53q0 -41 18 -62q19 -22 66 -37l90 -28v-977z" />
    <glyph glyph-name="G" unicode="G" horiz-adv-x="1390" 
d="M1051 985l-11 -6q15 -41 39 -59q25 -19 58 -19q38 0 59 21q22 19 25 61q2 25 2 66v73v29v68q0 21 -4 45q-2 12 -11 30q-7 14 -16 23q-34 34 -113 55q-87 23 -221 23q-178 0 -326 -54q-142 -52 -245 -147q-102 -99 -154 -233q-55 -134 -55 -302q0 -155 47 -282t135 -215
t215 -135t283 -47q92 0 170 10q70 9 123 24q35 11 82 31q29 15 49 31q36 28 53 61q18 35 18 94v392q0 98 -98 98h-340q-44 0 -65 -21q-23 -23 -23 -53q0 -40 21 -61q24 -24 67 -35l154 -41v-322q-7 -2 -29 -6q-20 -4 -37 -4h-57q-107 0 -191 35q-89 36 -145 98
q-58 60 -94 160q-33 90 -33 221q0 119 31 217q30 91 86 156q53 58 135 94q82 31 178 31q38 0 84 -4q10 -2 28.5 -5.5t26.5 -4.5q7 -3 21.5 -8t19.5 -7z" />
    <glyph glyph-name="H" unicode="H" horiz-adv-x="1564" 
d="M219 201l-4 -8l-96 -31q-46 -15 -62 -31q-16 -19 -16 -53q0 -38 27 -62t73 -24h422q47 0 74 24t27 62q0 33 -17 53q-15 18 -61 33l-86 29v403h557v-403l-86 -29q-46 -15 -62 -31q-16 -19 -16 -53q0 -38 27 -62t73 -24h424q47 0 74 24q25 25 25 62q0 35 -15 53t-61 33
l-97 31v977l91 28q47 15 65 39q19 25 19 64q0 28 -23 51q-20 20 -61 20h-449q-45 0 -65 -20q-23 -23 -23 -53q0 -41 18 -62q20 -26 68 -41l78 -24v-377h-557v377l78 24q47 14 67 41q19 25 19 64q0 30 -23 53q-20 20 -65 20h-447q-45 0 -65 -20q-23 -23 -23 -53q0 -41 18 -62
q19 -22 66 -37l90 -28v-977z" />
    <glyph glyph-name="I" unicode="I" horiz-adv-x="724" 
d="M219 201v-2l-96 -31q-46 -15 -62 -31q-16 -19 -16 -53q0 -37 27 -61q28 -25 73 -25h435q45 0 73 25q27 24 27 61q0 34 -16 53q-15 18 -62 33l-96 31v977l90 28q47 15 66 37q18 21 18 62q0 30 -23 53q-20 20 -65 20h-459q-45 0 -65 -20q-23 -23 -23 -53q0 -41 18 -62
q19 -22 66 -37l90 -28v-977z" />
    <glyph glyph-name="J" unicode="J" horiz-adv-x="667" 
d="M193 119h-9q0 -67 -12 -117q-10 -41 -35 -86q-17 -31 -53 -63q-35 -32 -68 -50q-34 -18 -49 -39q-14 -20 -14 -51q0 -37 29 -63q28 -25 86 -25q56 0 129 25q67 24 127 84q34 34 55 63q29 41 49 90q23 59 37 125q12 74 12 174v992l82 26q47 15 66 37q18 21 18 62
q0 33 -20 53t-66 20h-442q-46 0 -66 -20q-22 -22 -22 -53q0 -41 18 -62q19 -22 66 -37l82 -26v-1059z" />
    <glyph glyph-name="K" unicode="K" horiz-adv-x="1425" 
d="M219 201h2l-96 -31q-46 -15 -62 -31q-16 -19 -16 -53q0 -37 27 -61q28 -25 73 -25h385q46 0 74 25q27 24 27 61q0 31 -17 55q-19 22 -65 43l-43 19v459l340 -431q52 -64 98 -110q49 -49 92 -74q51 -30 95 -43q46 -14 100 -14q88 0 135 33q49 30 49 77q0 26 -12 41t-41 31
q-39 18 -86 49q-39 26 -86 70q-51 48 -98 100q-32 36 -123 146l-158 188l442 451l62 22q55 21 76 45q20 23 20 62q0 31 -22 53q-20 20 -66 20h-399q-46 0 -66 -20q-22 -22 -22 -55q0 -36 18 -60q21 -28 57 -41l41 -16l-446 -475v467l35 16q43 19 67 47q21 24 21 62
q0 32 -23 55q-20 20 -65 20h-410q-45 0 -65 -20q-23 -23 -23 -53q0 -41 18 -62q19 -22 66 -37l90 -28v-977z" />
    <glyph glyph-name="L" unicode="L" horiz-adv-x="1093" 
d="M219 201l-4 -2l-96 -31q-46 -15 -62 -31q-16 -19 -16 -53q0 -37 27 -61q28 -25 73 -25h779q40 0 61 8q22 8 39 25q16 16 22 41q7 28 7 84v34v35v37v43v60q-3 41 -25 63q-21 18 -55 18q-35 0 -56 -18t-36 -59l-54 -166h-317v973l106 30q46 15 68 37q18 21 18 62
q0 31 -22 53q-20 20 -66 20h-477q-45 0 -65 -20q-23 -23 -23 -53q0 -41 18 -62q19 -22 66 -37l90 -28v-977z" />
    <glyph glyph-name="M" unicode="M" horiz-adv-x="1959" 
d="M156 201l6 -6l-58 -25q-43 -18 -59 -37t-16 -53q0 -39 26 -62q27 -24 74 -24h309q47 0 74 24t27 62q0 31 -17 51q-18 18 -65 39l-54 25l58 622q2 33 6 103q3 48 6 92q1 17 6 94h4l285 -954q27 -99 68 -134q40 -34 116 -34q79 0 121 36q43 37 70 132l284 952h5
q5 -77 6 -94q3 -44 6 -92q2 -35 6 -101l57 -622l-53 -25q-44 -20 -61 -37q-19 -19 -19 -51q0 -38 27 -62t74 -24h362q47 0 74 24q26 23 26 62q0 34 -16 53t-59 37l-58 25l-110 979l73 24q47 15 66 41q18 24 18 64q0 29 -22 51q-20 20 -62 20h-370q-96 0 -123 -84l-240 -805
q-16 -49 -24 -86q-3 -13 -9 -36t-8 -33t-14 -68h-4q-1 5 -6 28.5t-8 37.5q-2 10 -8 33t-9 36q-1 5 -22 86l-240 807q-15 46 -43 68q-27 18 -80 18h-366q-42 0 -62 -20q-22 -22 -22 -51q0 -41 18 -62q19 -26 66 -41l73 -24z" />
    <glyph glyph-name="N" unicode="N" horiz-adv-x="1593" 
d="M219 201l-2 -4l-96 -31q-46 -15 -62 -31q-16 -19 -16 -53q0 -38 27 -62t73 -24h394q46 0 73 24t27 62q0 34 -16 53q-18 18 -64 33l-98 31l-4 551q0 67 -2 100q-1 19 -4 51t-3 39q-2 39 -6 86l4 2q36 -68 43 -84q34 -61 45 -82q11 -22 54 -86l440 -682q36 -54 80 -80
q45 -26 117 -26q91 0 137 43q43 43 43 123v1022l82 26q46 15 65 37t19 61q0 33 -21 54q-20 20 -65 20h-410q-45 0 -65 -20q-23 -23 -23 -54q0 -40 21 -61q19 -22 65 -37l92 -28l4 -553q0 -68 2 -101q0 -23 5 -90q2 -39 6 -86l-4 -2l-43 86q-5 8 -14 24t-17 30t-15 28
q-15 29 -53 86l-440 682q-39 61 -76 80q-39 20 -92 20h-293q-45 0 -65 -20q-23 -23 -23 -53q0 -41 18 -62q19 -22 66 -37l90 -28v-977z" />
    <glyph glyph-name="O" unicode="O" horiz-adv-x="1509" 
d="M82 659l-2 -2q0 -166 45 -288q48 -130 131 -213q87 -87 205 -133q124 -48 266 -48q150 0 283 54q128 52 223 147q89 92 143 234q51 131 51 305q0 167 -45 289q-47 127 -129 215q-86 89 -204 135q-116 45 -267 45q-157 0 -282 -51q-128 -52 -221 -148q-94 -98 -146 -233
q-51 -134 -51 -308zM381 690l-2 -4q0 122 29 223q27 95 77 160q50 62 117 92q70 31 143 31q75 0 148 -31q64 -28 119 -96q51 -63 82 -160q30 -95 30 -225q0 -123 -28 -221q-26 -92 -78 -156q-50 -62 -117 -92q-70 -31 -143 -31q-81 0 -146 33q-68 30 -120 94q-53 65 -80 160
q-31 98 -31 223z" />
    <glyph glyph-name="P" unicode="P" horiz-adv-x="1204" 
d="M219 201l-2 -2l-96 -31q-46 -15 -62 -31q-16 -19 -16 -53q0 -37 27 -61q25 -25 73 -25h453q46 0 74 25q26 23 26 61q0 34 -16 53q-20 20 -64 31l-112 33v299h96q131 0 238 35q104 34 174 98q68 59 106 149q37 84 37 189q0 90 -29 172q-30 76 -92 129q-63 54 -155 80
q-91 26 -224 26h-522q-45 0 -65 -20q-23 -23 -23 -53q0 -41 18 -62q19 -22 66 -37l90 -28v-977zM504 684h-2v498h114q117 0 179 -62q61 -61 61 -182q0 -125 -63 -188q-66 -66 -172 -66h-117z" />
    <glyph glyph-name="Q" unicode="Q" horiz-adv-x="1509" 
d="M82 659v-10q0 -158 43 -280q44 -124 123 -209q82 -88 192 -133q112 -50 248 -56q35 -118 92 -196q58 -79 135 -129q77 -52 162 -72q94 -23 176 -23q72 0 129 13q51 12 86 30q28 16 45 41q13 23 13 43q0 28 -17 48q-19 19 -55 22q-195 15 -328 78q-130 62 -206 172
q110 27 204 88q92 62 160 154q66 89 107 211q36 115 36 264q0 167 -45 289q-47 127 -129 215q-86 89 -204 135q-116 45 -267 45q-157 0 -282 -51q-128 -52 -221 -148q-94 -98 -146 -233q-51 -134 -51 -308zM383 682l-2 -4q0 121 29 223q27 95 77 160q50 62 117 92
q70 31 144 31t147 -31q64 -28 119 -96q51 -63 82 -160q30 -94 30 -225q0 -125 -28 -223q-26 -92 -78 -156q-50 -62 -117 -92q-70 -31 -143 -31q-81 0 -146 33q-68 30 -120 94q-53 65 -80 160q-31 98 -31 225z" />
    <glyph glyph-name="R" unicode="R" horiz-adv-x="1370" 
d="M244 201l-4 -6l-97 -31q-44 -14 -61 -31q-16 -19 -16 -53q0 -39 26 -62q27 -24 74 -24h391q47 0 74 24q26 23 26 62q0 34 -18 55q-20 20 -61 37l-56 25v366h160l109 -244q41 -93 83 -155q44 -64 93 -105q50 -41 100 -55q53 -18 115 -18q95 0 135 34q39 33 39 74
q0 21 -13 37t-40 31q-29 13 -68 43q-33 26 -68 67q-32 35 -67 88q-29 42 -68 111l-78 147q50 18 97 56q48 39 84 86q39 52 59 110q23 67 23 129q0 84 -29 160q-26 67 -90 119q-59 48 -158 76q-99 24 -238 24h-544q-46 0 -66 -20q-22 -22 -22 -53q0 -41 18 -62q19 -22 66 -37
l90 -28v-977zM522 741v437h144q131 0 190 -56t59 -161q0 -103 -59 -162q-61 -58 -190 -58h-144z" />
    <glyph glyph-name="S" unicode="S" horiz-adv-x="1140" 
d="M817 1030l-10 -24q15 -41 37 -60q21 -18 55 -18q35 0 55 20q22 19 25 62q2 18 2 53v63v25v59q0 19 -4 43q-3 17 -10 31q-6 12 -17 23q-34 34 -110 55q-73 20 -201 20q-138 0 -240 -30q-98 -29 -166 -84q-64 -50 -100 -123q-33 -70 -33 -158q0 -84 29 -153q27 -64 74 -111
t104 -76q72 -37 119 -53q10 -4 53 -21.5t66 -25.5q51 -18 104 -49q46 -26 74 -66q27 -38 27 -96q0 -72 -54 -123q-55 -49 -157 -49q-51 0 -86 6q-39 6 -62 12q-21 7 -49 19l-51 149q-27 80 -94 80q-35 0 -56 -18t-24 -62q-2 -18 -2 -49v-68v-30q0 -42 2 -56q0 -21 4 -41
q3 -18 12 -30q6 -12 17 -23q34 -34 118 -55q94 -23 221 -23q140 0 238 33q103 35 172 92q67 55 102 133t35 166q0 120 -47 197q-47 73 -121 125q-72 51 -153 80q-98 36 -154 63q-70 30 -117 74q-49 43 -49 115q0 63 49 106t150 43q34 0 80 -4q42 -8 53 -10q8 -3 22 -7.5
t19 -6.5z" />
    <glyph glyph-name="T" unicode="T" horiz-adv-x="1224" 
d="M469 201l6 -4l-106 -31q-46 -12 -62 -31q-18 -18 -18 -53q0 -39 26 -62q27 -24 74 -24h459q47 0 74 24q26 23 26 62q0 34 -16 53q-20 20 -64 31l-106 31v979h213l49 -158q12 -40 35 -60q21 -18 55 -18t55 21q22 19 25 61q2 39 2 92v74v35q0 60 -6 84t-23 41
q-14 14 -37 24q-21 8 -61 8h-905q-41 0 -60 -8q-27 -10 -41 -24q-16 -16 -22 -41q-6 -24 -6 -84v-35v-74q0 -53 2 -92q3 -43 24 -61q22 -19 56 -19t55 21q23 20 35 59l49 158h213v-979z" />
    <glyph glyph-name="U" unicode="U" horiz-adv-x="1449" 
d="M166 522l-6 2q0 -277 135 -409q135 -135 418 -135q286 0 426 143q141 141 141 434v623l74 26q38 14 61 37q21 21 21 62q0 30 -23 53q-20 20 -65 20h-396q-45 0 -65 -20q-23 -23 -23 -53q0 -40 19 -62t65 -37l82 -26v-654q0 -181 -74 -264q-73 -82 -208 -82
q-136 0 -216 92q-79 91 -79 285v621l82 26q46 15 65 37q18 21 18 62q0 31 -22 53q-20 20 -66 20h-432q-45 0 -65 -20q-23 -23 -23 -53q0 -41 21 -62q23 -23 61 -37l74 -26v-656z" />
    <glyph glyph-name="V" unicode="V" horiz-adv-x="1452" 
d="M508 158l4 -8q36 -98 82 -130q48 -36 135 -36q89 0 137 36q47 35 82 132l359 1019l49 21q47 21 65 45q19 25 19 63q0 31 -23 54q-20 20 -65 20h-355q-45 0 -65 -20q-23 -23 -23 -54q0 -40 21 -61q19 -26 67 -43l56 -20l-236 -713q-15 -41 -24 -78q-2 -8 -10 -32t-11 -34
q-8 -32 -18 -61h-4q-14 43 -19 61q-9 26 -18 68q-12 37 -27 78l-235 713l55 20q46 17 69 43q19 25 19 64q0 30 -23 53q-20 20 -65 20h-402q-45 0 -65 -20q-23 -23 -23 -53q0 -40 19 -62q18 -24 65 -45l50 -20z" />
    <glyph glyph-name="W" unicode="W" horiz-adv-x="2119" 
d="M412 160l-6 -6q27 -100 79 -134q50 -36 142 -36q86 0 139 36q57 39 78 136l164 704q15 67 18 82q7 32 14 82q10 47 15 88h4q8 -59 14 -92q7 -50 14 -82q1 -6 19 -80l162 -702q21 -100 78 -136q53 -36 137 -36q47 0 78 8q32 8 61 31q30 20 49 51q20 29 33 78l262 1022
l49 20q49 22 66 45q18 24 18 64q0 31 -22 53q-20 20 -66 20h-340q-45 0 -65 -20q-23 -23 -23 -53q0 -41 21 -62q23 -23 67 -43l49 -20l-159 -684l-19 -93q-7 -36 -18 -82q-3 -17 -10 -45.5t-9 -37.5h-4q-8 54 -14 83q-9 56 -14 82l-19 93l-168 725q-21 96 -67 133
q-49 37 -134 37q-84 0 -131 -35q-46 -37 -67 -133l-170 -727q-2 -11 -9 -41t-10 -47q-5 -26 -14 -82q-5 -26 -14 -84h-4l-19 86q-11 46 -18 82q-3 17 -10 47t-9 41l-161 684l49 20q44 20 67 43q21 21 21 62q0 30 -23 53q-20 20 -65 20h-394q-45 0 -65 -20q-23 -23 -23 -53
q0 -40 19 -62q18 -24 65 -45l50 -20z" />
    <glyph glyph-name="X" unicode="X" horiz-adv-x="1384" 
d="M150 201l-21 -4l-55 -25q-46 -21 -62 -37q-16 -19 -16 -53q0 -38 27 -62t73 -24h316q46 0 73 24q25 25 25 60t-21 53q-25 21 -55 37l-41 20l232 347l247 -347l-41 -20q-22 -12 -55 -35q-22 -19 -22 -53q0 -36 26 -59q25 -25 72 -25h397q46 0 74 25q27 24 27 61
q0 35 -15 53t-61 39l-55 25l-373 504l352 473l49 22q48 21 66 43q18 21 18 62q0 29 -22 51q-20 20 -66 20h-340q-41 0 -61 -20q-23 -23 -23 -49q0 -18 6 -33q5 -13 19 -27q12 -12 30 -24t44 -25l26 -14l-211 -320l-227 320l26 14q22 11 43 25t31 24q14 14 19 27q6 15 6 33
q0 26 -23 49q-20 20 -61 20h-422q-46 0 -66 -20q-22 -22 -22 -51q0 -41 18 -62q18 -22 66 -43l49 -22l352 -478z" />
    <glyph glyph-name="Y" unicode="Y" horiz-adv-x="1351" 
d="M532 201l-4 -4l-102 -31q-44 -14 -61 -31q-19 -19 -19 -53q0 -38 27 -62t73 -24h451q47 0 74 24q26 23 26 62q0 34 -16 53q-19 19 -63 33l-103 31v340l387 637l49 20q46 18 68 43q18 24 18 64q0 31 -22 53q-20 20 -66 20h-348q-45 0 -65 -20q-23 -23 -23 -53
q0 -41 21 -62q21 -24 67 -45l43 -18l-225 -408h-4l-236 408l45 18q53 21 74 45q18 24 18 64q0 31 -22 53q-20 20 -66 20h-428q-45 0 -65 -20q-23 -23 -23 -53q0 -40 19 -62q18 -24 65 -45l49 -20l387 -637v-340z" />
    <glyph glyph-name="Z" unicode="Z" horiz-adv-x="1132" 
d="M135 293l-6 -8q-34 -59 -41 -76q-12 -30 -12 -66q0 -70 43 -110q42 -39 129 -39h665q41 0 62 8q22 8 39 25q16 16 22 43q6 24 6 88v30v37v37v41v49q-3 43 -24 64q-21 18 -55 18q-35 0 -56 -18q-22 -19 -37 -60l-53 -163h-418l582 890q33 57 41 80q12 30 12 66
q0 69 -41 110q-42 39 -129 39h-641q-40 0 -59 -8q-27 -10 -41 -24q-17 -17 -23 -41t-6 -88v-25v-35v-37q0 -25 2 -39v-49q3 -42 25 -61t55 -19q34 0 55 21q22 19 37 59l49 152h400z" />
    <glyph glyph-name="bracketleft" unicode="[" horiz-adv-x="659" 
d="M154 -252v-2q0 -102 102 -102h233q47 0 74 24t27 62q0 31 -17 51q-20 20 -63 31l-109 28v1485l103 29q44 14 67 37q19 22 19 57q0 30 -23 53q-21 21 -65 21h-246q-102 0 -102 -103v-1671z" />
    <glyph glyph-name="backslash" unicode="\" horiz-adv-x="872" 
d="M651 -250l2 -2q35 -92 113 -92q53 0 86 33q33 29 33 73q0 21 -2 31q-3 15 -9 33l-577 1587q-35 92 -113 92q-52 0 -86 -30q-35 -30 -35 -74q0 -16 3 -31q4 -22 8 -33z" />
    <glyph glyph-name="bracketright" unicode="]" horiz-adv-x="659" 
d="M258 -158l-4 2l-102 -28q-47 -15 -66 -37q-18 -21 -18 -60q0 -29 22 -51t66 -22h245q103 0 103 102v1671q0 103 -103 103h-233q-46 0 -74 -25q-26 -23 -26 -61q0 -35 18 -50q18 -18 64 -30l108 -29v-1485z" />
    <glyph glyph-name="asciicircum" unicode="^" horiz-adv-x="1085" 
d="M125 850l-10 -6q-11 -18 -13 -25q-4 -16 -4 -28q0 -47 33 -70q31 -25 74 -25q52 0 86 49l237 379l238 -376q15 -27 41 -37q26 -13 51 -13q22 0 43 9q24 7 37 20q17 17 25 33t8 41q0 16 -2 24q-2 9 -13 27l-286 463q-26 45 -56 65q-32 19 -73 19q-44 0 -72 -19t-55 -65z
" />
    <glyph glyph-name="underscore" unicode="_" horiz-adv-x="1085" 
d="M115 -311q-58 0 -86 -31q-29 -32 -29 -86q0 -84 92 -84h879q58 0 86 31t28 86q0 84 -92 84h-878z" />
    <glyph glyph-name="grave" unicode="`" 
d="M580 1153l-5 -4q15 -12 29 -19q12 -6 29 -6q33 0 61 25q25 25 25 59q0 15 -6 27q-2 4 -8.5 13.5t-8.5 13.5l-176 237q-17 24 -31 35q-18 12 -40 12q-28 0 -52 -12q-26 -13 -47 -31q-20 -17 -33 -43q-12 -24 -12 -49q0 -20 10 -37t31 -35z" />
    <glyph glyph-name="a" unicode="a" horiz-adv-x="1148" 
d="M696 555l-6 -14l-43 6q-17 3 -49 6q-18 2 -61 2q-124 0 -205 -20q-84 -21 -142 -60t-84 -90q-28 -54 -28 -115q0 -60 24 -116q24 -55 70 -95q43 -40 104 -61q64 -25 136 -25q80 0 141 25q56 23 92 51q45 39 66 76l4 -2v-10q0 -66 33 -99q34 -34 104 -34q54 0 109 10
q49 9 90 24q37 14 57 37q18 18 18 53q0 34 -16 56q-15 18 -55 24l-78 13q-9 141 -6 256q2 76 2 233q0 182 -92 268t-312 86q-65 0 -137 -10q-64 -9 -117 -24q-42 -12 -90 -35q-35 -17 -55 -37q-27 -27 -27 -62q0 -36 23 -59q22 -22 55 -22q22 0 43 8q5 1 25 6t33 8
q40 10 79 18q51 7 103 7q105 0 149 -47q43 -46 43 -170v-66zM688 244v2q-22 -22 -49 -37q-23 -17 -55 -25q-34 -12 -76 -12q-64 0 -102 35q-37 34 -37 84q0 52 45 78q48 28 149 28q37 0 53 -2q24 -3 39 -6q18 -3 33 -6v-139z" />
    <glyph glyph-name="b" unicode="b" horiz-adv-x="1196" 
d="M145 168l-6 -6q0 -53 21 -80q23 -30 63 -49q53 -27 125 -41q90 -17 184 -17q142 0 246 39q107 40 180 113t113 180q39 104 39 242q0 248 -109 369q-106 118 -288 118q-83 0 -144 -22q-54 -19 -92 -49q-41 -35 -67 -74l-4 2q8 53 10 86q4 62 4 86v256q0 94 -33 127
t-127 33q-57 0 -106 -8q-43 -7 -93 -19q-39 -11 -55 -31q-18 -18 -18 -55q0 -35 18 -53q21 -21 57 -29l82 -18v-1100zM418 729l-2 -2q24 28 49 47q30 23 61 35q35 14 82 14q90 0 152 -71q61 -73 61 -242q0 -187 -65 -264q-68 -80 -185 -80q-40 0 -67 6q-34 8 -49 14
q-23 10 -37 21v522z" />
    <glyph glyph-name="c" unicode="c" horiz-adv-x="974" 
d="M717 709l-4 -4q15 -40 37 -62q20 -20 55 -20t55 20q22 19 25 62q2 31 2 67v49v19q0 71 -6 98q-6 26 -23 43q-27 27 -80 45q-52 18 -147 18q-122 0 -223 -40q-100 -40 -172 -115q-75 -75 -115 -182q-41 -109 -41 -236q0 -231 129 -360t354 -129q62 0 103 8q53 10 86 20
q30 10 65 29q27 15 43 31q31 31 31 69q0 34 -19 56q-18 18 -51 18q-10 0 -30 -4q-23 -8 -39 -10q-31 -9 -50 -11q-27 -6 -63 -6q-130 0 -201 80q-73 79 -73 246q0 179 71 262q70 82 172 82q21 0 29 -2t20 -6l19 -6z" />
    <glyph glyph-name="d" unicode="d" horiz-adv-x="1228" 
d="M772 1139l-6 -11q0 -41 2 -55q0 -33 2 -47l-4 -4q-15 3 -33 6q-5 1 -35 6q-12 2 -43 2q-141 0 -245 -39q-114 -43 -183 -112q-71 -71 -112 -180q-39 -104 -39 -242q0 -249 108 -369q109 -121 289 -121q93 0 154 27q63 24 98 57q44 38 68 84l4 -2v-26q0 -67 32 -99
q34 -34 105 -34q49 0 104 10q50 9 90 24q39 14 58 37q18 18 18 53t-16 54q-14 17 -55 26l-84 15v1126q0 94 -33 127t-127 33q-66 0 -115 -8q-53 -9 -98 -21q-39 -11 -55 -31q-19 -19 -19 -55q0 -34 19 -53q21 -21 57 -29l94 -20v-129zM766 274v-4q-21 -28 -49 -49
q-22 -16 -60 -33q-35 -14 -84 -14q-88 0 -147 74q-61 73 -61 241q0 188 67 267q68 80 182 80q34 0 66 -7q34 -8 49 -14q25 -10 37 -18v-523z" />
    <glyph glyph-name="e" unicode="e" horiz-adv-x="1089" 
d="M862 465l-6 2q69 0 105 39t36 117q0 207 -106 313q-108 108 -301 108q-120 0 -209 -38q-95 -40 -162 -111q-66 -69 -104 -172q-37 -104 -37 -236q0 -119 35 -215t98 -159q64 -64 160 -99q93 -34 215 -34q136 0 221 30q82 29 119 66q15 15 24 30q6 15 6 37q0 35 -18 56
q-18 18 -51 18q-19 0 -37 -6q-15 -5 -43 -12q-36 -9 -59 -13q-34 -6 -80 -6q-138 0 -215 74q-78 75 -93 211h502zM358 625h-2q15 107 68 166t131 59q74 0 121 -53q46 -52 49 -172h-367z" />
    <glyph glyph-name="f" unicode="f" horiz-adv-x="751" 
d="M211 197l-6 -9l-88 -26q-46 -15 -62 -31q-16 -19 -16 -53q0 -38 27 -62t73 -24h420q47 0 74 24q26 23 26 62q0 34 -16 53t-61 31l-99 26v633h123q57 0 86 29t29 80q0 82 -92 82h-146v127q0 86 31 125q29 36 90 36h19q6 0 14 -4q4 -2 10 -2l25 -73q15 -41 37 -60
q21 -18 55 -18t55 18q22 19 25 58q2 23 2 49v37v16q0 41 -2 55q-4 25 -6 37l-7 21q-8 12 -14 18q-20 20 -63 31q-46 12 -105 12q-211 0 -325 -111q-113 -110 -113 -317v-47h-55q-55 0 -84 -29q-31 -31 -31 -80q0 -82 92 -82h78v-632z" />
    <glyph glyph-name="g" unicode="g" horiz-adv-x="1089" 
d="M553 184l-10 -6q-54 0 -88 6q-27 5 -56 17q-20 8 -26 24q-6 15 -6 33q0 11 4 27q2 8 6 20q3 8 10 19q4 -1 17.5 -3.5t21.5 -3.5q10 -2 37 -2h43q104 0 196 29q88 28 146 80q61 55 90 123q31 73 31 153q0 78 -27 136q-26 56 -68 92q37 32 68 51q30 21 57 39q26 17 43 41
t17 51q0 41 -31 72q-30 30 -78 30q-59 0 -112 -53q-52 -55 -111 -147q-7 1 -37 10q-17 2 -49 6q-20 2 -70 2q-104 0 -196 -29q-89 -28 -146 -79q-61 -55 -90 -123q-30 -71 -30 -154q0 -98 41 -166t98 -102q-21 -13 -45 -37t-37 -45q-17 -27 -25 -51t-8 -56q0 -54 21 -88
t55 -55q-33 -17 -62 -43q-33 -26 -53 -55q-24 -35 -35 -68q-12 -37 -12 -78q0 -61 27 -114q23 -54 80 -95q54 -40 141 -61q94 -23 207 -23q132 0 239 35t174 88q70 55 107 125t37 144q0 129 -92 206q-93 78 -312 78h-102zM592 -23v-2q100 0 141 -30q37 -30 37 -88
q0 -65 -57 -113q-58 -49 -172 -49q-127 0 -179 43q-53 44 -53 115q0 28 6 55q5 18 17 43q10 23 24 37q12 -2 37 -6q35 -5 49 -5h66h84zM383 674v-2q0 78 43 121t109 43q67 0 112 -45t45 -123t-43 -121t-108 -43q-66 0 -113 47q-45 45 -45 123z" />
    <glyph glyph-name="h" unicode="h" horiz-adv-x="1296" 
d="M180 197l-2 -4l-84 -27q-39 -11 -55 -31q-16 -19 -16 -53q0 -39 26 -62q27 -24 74 -24h381q47 0 74 24q26 23 26 62q0 34 -16 53q-14 17 -60 33l-73 25v538q24 28 49 47q30 23 61 35q35 14 82 14q95 0 144 -55t49 -194v-385l-74 -25q-44 -15 -59 -33q-17 -20 -17 -53
q0 -38 27 -62t74 -24h380q47 0 74 24t27 62q0 33 -17 53q-15 18 -59 33l-78 25v450q0 191 -96 295q-94 98 -274 98q-83 0 -144 -22q-54 -19 -92 -49q-43 -37 -68 -74l-4 2q10 65 11 86q4 62 4 86v256q0 94 -33 127t-127 33q-58 0 -107 -8q-40 -6 -92 -19q-39 -11 -55 -31
q-18 -18 -18 -55q0 -35 18 -53q21 -21 57 -29l82 -18v-1071z" />
    <glyph glyph-name="i" unicode="i" horiz-adv-x="669" 
d="M211 197v-2l-88 -27q-46 -15 -62 -31q-16 -19 -16 -53q0 -37 27 -61q28 -25 73 -25h396q46 0 73 27t27 67q0 32 -14 49q-17 20 -56 29l-84 25v677q0 95 -32 127q-33 33 -127 33q-66 0 -115 -8q-62 -10 -98 -20q-40 -12 -56 -31q-18 -18 -18 -55q0 -36 18 -54
q19 -19 58 -28l94 -21v-618zM174 1294q0 -73 47 -120q48 -48 121 -48t123 50q49 49 49 122q0 74 -47 121t-121 47t-123 -49t-49 -123z" />
    <glyph glyph-name="j" unicode="j" horiz-adv-x="604" 
d="M180 10l-4 -6q0 -76 -12 -129q-11 -49 -31 -90q-17 -36 -47 -59q-30 -27 -57 -43q-18 -11 -29 -19q-12 -9 -18 -18q-8 -13 -11 -23q-4 -16 -4 -26q0 -34 25 -56q24 -24 76 -24q57 0 127 28q63 25 122 84q33 33 56 72q27 46 43 92q20 57 28 123q11 83 11 156v796
q0 94 -33 127t-127 33q-58 0 -107 -8q-40 -6 -92 -19q-40 -12 -55 -30q-18 -18 -18 -56q0 -35 18 -53q20 -20 57 -28l82 -19v-805zM143 1290q0 -69 47 -116q48 -48 117 -48q71 0 121 50q49 49 49 120q0 70 -47 117t-117 47q-71 0 -120 -49q-50 -50 -50 -121z" />
    <glyph glyph-name="k" unicode="k" horiz-adv-x="1212" 
d="M180 197l-8 -17l-84 -26q-39 -11 -55 -31q-17 -20 -17 -53q0 -38 27 -62t74 -24h336q46 0 73 24q29 26 29 62q0 35 -12 53q-13 20 -60 41l-34 16v326l221 -316q41 -59 80 -98q40 -42 84 -67q49 -27 88 -37q50 -13 94 -13q85 0 127 33q43 34 43 76q0 24 -8 37
q-9 16 -37 31q-33 18 -72 49q-42 27 -72 57q-28 25 -67 70q-40 44 -74 88l-113 145l285 248l53 22q46 21 68 46q20 23 20 61q0 33 -22 55q-21 21 -66 21h-354q-40 0 -61 -21q-23 -23 -23 -55q0 -28 12 -49q14 -25 45 -41l37 -21l-282 -264v758q0 94 -33 127t-127 33
q-58 0 -107 -8q-40 -6 -92 -19q-39 -11 -55 -31q-18 -18 -18 -55q0 -35 18 -53q21 -21 57 -29l82 -18v-1071z" />
    <glyph glyph-name="l" unicode="l" horiz-adv-x="638" 
d="M180 197l-2 -7l-84 -26q-39 -11 -55 -31q-16 -19 -16 -53q0 -39 26 -62q27 -24 74 -24h385q47 0 74 24q26 23 26 62q0 34 -16 53q-14 17 -60 33l-77 24v1131q0 94 -33 127t-127 33q-58 0 -107 -8q-40 -6 -92 -19q-39 -11 -55 -31q-18 -18 -18 -55q0 -35 18 -53
q21 -21 57 -29l82 -18v-1071z" />
    <glyph glyph-name="m" unicode="m" horiz-adv-x="1966" 
d="M211 197l-6 -4l-88 -27q-46 -15 -62 -31q-16 -19 -16 -53q0 -38 27 -62t73 -24h387q47 0 74 24t27 62q0 33 -17 53q-15 18 -59 33l-68 25v538q24 28 49 47q25 22 56 35q32 14 80 14q90 0 139 -55t49 -194v-385l-68 -25q-43 -15 -59 -31q-16 -19 -16 -53q0 -38 26 -61
q28 -25 74 -25h365q45 0 73 25q27 24 27 61q0 34 -16 53q-14 17 -60 33l-67 25v450v35v25q-2 8 -2 22q21 28 49 49q30 22 59 35q37 16 80 16q90 0 139 -55t49 -194v-385l-67 -25q-44 -15 -60 -31q-16 -19 -16 -53q0 -37 27 -61q28 -25 73 -25h375q46 0 74 25q27 24 27 61
q0 33 -17 53q-15 18 -59 33l-78 25v450q0 194 -94 295q-94 98 -271 98q-96 0 -155 -26q-62 -27 -103 -62q-47 -38 -73 -86q-46 84 -123 131q-79 43 -197 43q-91 0 -147 -26q-61 -27 -97 -58q-44 -38 -65 -84l-4 2v27q0 71 -31 102t-109 31q-57 0 -106 -8q-62 -10 -98 -20
q-40 -12 -56 -31q-18 -18 -18 -55q0 -36 18 -54q19 -19 58 -28l94 -21v-618z" />
    <glyph glyph-name="n" unicode="n" horiz-adv-x="1327" 
d="M211 197l-2 -2l-88 -27q-46 -15 -62 -31q-16 -19 -16 -53q0 -37 27 -61q28 -25 73 -25h394q45 0 73 25q27 24 27 61q0 34 -16 53q-14 17 -60 33l-74 25v538q22 25 50 47q30 23 61 35q35 14 82 14q94 0 143 -55t49 -194v-385l-73 -25q-46 -16 -60 -33q-16 -19 -16 -53
q0 -37 27 -61q28 -25 73 -25h381q46 0 74 25q27 24 27 61q0 33 -17 53q-15 18 -59 33l-78 25v450q0 191 -96 295q-94 98 -275 98q-95 0 -151 -26q-59 -26 -99 -58q-43 -37 -67 -84l-4 2v27q0 71 -31 102t-109 31q-57 0 -106 -8q-62 -10 -98 -20q-40 -12 -56 -31
q-18 -18 -18 -55q0 -36 18 -54q19 -19 58 -28l94 -21v-618z" />
    <glyph glyph-name="o" unicode="o" horiz-adv-x="1208" 
d="M82 481l2 -2q0 -239 131 -370q134 -134 363 -134q124 0 227 41q100 40 172 115q69 72 110 178q37 104 37 230q0 241 -131 372t-362 131q-127 0 -223 -38q-100 -40 -172 -115q-72 -72 -113 -176q-41 -106 -41 -232zM371 512l-9 -2q0 174 68 254t166 80q48 0 94 -21
q41 -20 76 -61q31 -44 51 -107q19 -68 19 -151q0 -174 -66 -252q-68 -80 -166 -80q-48 0 -92 21q-46 22 -74 63q-33 47 -49 106q-18 64 -18 150z" />
    <glyph glyph-name="p" unicode="p" horiz-adv-x="1228" 
d="M178 -272l-2 -9l-84 -26q-39 -11 -55 -31q-17 -20 -17 -53q0 -38 27 -62t74 -24h397q47 0 74 24q26 23 26 62q0 34 -16 53q-15 18 -61 33l-88 26v154v59q0 18 -4 46l4 4q24 -6 30 -7q20 -4 37 -4h45q142 0 246 39q107 40 180 113t113 180q39 104 39 242q0 247 -109 368
q-107 119 -289 119q-95 0 -151 -26q-57 -25 -98 -58q-44 -38 -68 -84l-4 2v27q0 71 -31 102t-104 31q-33 0 -51 -2q-36 -4 -52 -6l-49 -6q-16 -4 -43 -13q-40 -12 -55 -30q-19 -19 -19 -56q0 -34 19 -53q20 -20 57 -28l82 -19v-1087zM455 727l-2 -2q24 28 49 47q30 23 61 35
q35 14 82 14q90 0 152 -71q61 -73 61 -242q0 -188 -67 -264q-68 -80 -183 -80q-40 0 -67 6q-34 8 -49 14q-23 10 -37 21v522z" />
    <glyph glyph-name="q" unicode="q" horiz-adv-x="1196" 
d="M772 -272l4 4l-88 -27q-44 -14 -61 -31q-17 -20 -17 -53q0 -37 27 -61q28 -25 74 -25h397q46 0 74 25q26 23 26 61q0 34 -16 53q-15 18 -59 33l-78 25v1124q0 53 -21 80q-23 30 -63 49q-53 27 -123 41q-85 16 -184 16q-145 0 -246 -38q-110 -41 -182 -113
q-73 -73 -113 -180q-39 -104 -39 -242q0 -248 109 -369q108 -120 288 -120q81 0 142 22q54 19 92 49q38 28 67 72l4 -2q-8 -53 -10 -86q-4 -62 -4 -86v-221zM776 289l-2 -4q-21 -28 -49 -49q-23 -17 -59 -33q-38 -15 -84 -15q-89 0 -148 74q-61 73 -61 242q0 187 67 266
q68 80 185 80q38 0 65 -6q29 -6 49 -15q24 -11 37 -18v-522z" />
    <glyph glyph-name="r" unicode="r" horiz-adv-x="872" 
d="M211 197l-4 -4l-88 -27q-46 -15 -62 -31q-16 -19 -16 -53q0 -38 27 -62t73 -24h420q47 0 74 24t27 62q0 33 -17 53q-16 19 -61 31l-99 27v501q34 46 74 64q41 18 84 18q13 0 29 -4q8 -2 20 -6q3 -1 23 -6q16 -4 26 -4q19 0 37 12q22 15 35 33q17 23 25 55q8 31 8 80
q0 51 -29 80q-28 28 -80 28q-48 0 -86 -14q-34 -13 -73 -43q-43 -31 -66 -63q-30 -41 -49 -84l-4 2v57q0 71 -31 102t-109 31q-57 0 -106 -8q-62 -10 -98 -20q-40 -12 -56 -31q-18 -18 -18 -55q0 -36 18 -54q19 -19 58 -28l94 -21v-618z" />
    <glyph glyph-name="s" unicode="s" horiz-adv-x="985" 
d="M285 250l-11 -10q-15 40 -32 57q-18 18 -54 18q-34 0 -55 -18t-24 -57q-3 -21 -3 -43v-43v-15q0 -46 9 -67q6 -21 22 -37q23 -23 88 -43q74 -23 199 -23q120 0 209 27q87 27 147 74q59 44 86 102q29 63 29 127q0 96 -39 152q-40 58 -98 98q-56 36 -127 61q-17 6 -61 21.5
t-66 23.5q-50 18 -98 50q-39 23 -39 65q0 41 28 66q27 24 115 24q21 0 57 -4q28 -4 43 -6q27 -8 41 -10l21 -60q14 -37 37 -57q18 -18 53 -18q34 0 55 18q22 19 25 57q2 14 2 43v43v11q0 46 -6 67q-6 20 -23 37q-22 22 -86 43q-61 20 -186 20q-115 0 -197 -24
q-81 -23 -139 -66q-56 -44 -82 -100q-27 -58 -27 -123q0 -92 39 -145q39 -54 99 -92q63 -40 129 -60q17 -6 61 -21.5t66 -23.5q53 -19 98 -49q39 -26 39 -74q0 -46 -35 -73q-39 -31 -129 -31q-30 0 -66 4q-30 3 -51 6q-30 9 -41 14z" />
    <glyph glyph-name="t" unicode="t" horiz-adv-x="751" 
d="M174 305l-4 -4q0 -147 66 -231q65 -86 221 -86q101 0 159 24q55 24 74 43q16 16 25 37q8 16 8 41q0 32 -16 51t-43 19q-22 0 -43 -6q-25 -7 -62 -7q-54 0 -80 39q-28 42 -28 137v465h153q57 0 86 29t29 80q0 82 -92 82h-176v182q0 45 -25 70q-24 24 -72 24q-60 0 -90 -30
q-32 -32 -47 -99l-37 -145h-55q-55 0 -84 -29q-31 -31 -31 -80q0 -82 94 -82h70v-524z" />
    <glyph glyph-name="u" unicode="u" horiz-adv-x="1292" 
d="M174 362l-8 -10q0 -192 94 -286q97 -97 270 -97q92 0 154 27q63 24 98 57q44 38 68 84l4 -2v-26q0 -66 33 -99q35 -35 104 -35q45 0 105 11q50 9 90 24q37 14 57 37q19 19 19 53t-17 54q-14 17 -55 26l-84 15v673q0 94 -33 127t-127 33q-66 0 -115 -8q-53 -9 -98 -21
q-40 -12 -55 -30q-19 -19 -19 -56q0 -34 19 -53q21 -21 57 -29l94 -20v-530q-23 -30 -49 -50q-22 -16 -61 -32q-37 -15 -84 -15q-91 0 -139 54q-47 53 -47 184v446q0 94 -33 127t-127 33q-58 0 -107 -8q-40 -6 -92 -19q-40 -12 -55 -30q-19 -19 -19 -56q0 -34 19 -53
q20 -20 57 -28l82 -19v-453z" />
    <glyph glyph-name="v" unicode="v" horiz-adv-x="1222" 
d="M406 158l-5 -11q19 -45 43 -79q18 -31 41 -50q18 -15 54 -26q27 -8 69 -8q45 0 72 8q29 9 51 31q25 21 43 51q17 29 39 80l272 665l35 15q49 19 66 45q18 27 18 63q0 33 -22 55q-21 21 -66 21h-299q-44 0 -65 -21q-23 -23 -23 -55q0 -33 19 -55q20 -23 67 -43l35 -17
l-148 -391q-16 -43 -24 -74q-16 -46 -21 -61q-9 -30 -18 -57h-4q-2 6 -6 17.5t-7 21t-6 18.5q-10 29 -18 61q-6 22 -25 74l-149 395l35 17q47 20 67 43q19 22 19 55q0 32 -23 55q-21 21 -65 21h-353q-44 0 -65 -21q-23 -23 -23 -55q0 -34 19 -63q18 -27 65 -45l35 -15z" />
    <glyph glyph-name="w" unicode="w" horiz-adv-x="1779" 
d="M350 158l-12 -4q13 -44 35 -80q18 -30 43 -49t57 -27q27 -8 76 -8q74 0 121 35q46 34 67 133l105 438q14 62 16 76q10 61 10 63q6 34 9 62h4q5 -44 8 -62q1 -10 10 -61q3 -19 16 -72l105 -442q21 -99 67 -133q47 -35 130 -35t129 37q40 34 75 131l217 665l35 15
q49 19 66 45q18 27 18 63q0 34 -22 56q-20 20 -66 20h-293q-45 0 -65 -20q-23 -23 -23 -56t19 -55q20 -23 67 -43l35 -16l-111 -385q-7 -23 -20 -78l-8 -32t-8 -34q-11 -42 -13 -61h-4q-1 10 -10 61q-1 11 -10 66q-1 5 -17 78l-98 417q-21 95 -68 133q-46 37 -129 37
q-84 0 -129 -39q-46 -40 -67 -135l-96 -413q-2 -8 -8.5 -34.5t-8.5 -39.5q-9 -55 -10 -66q-8 -47 -10 -65h-4q-2 19 -13 61q-2 10 -8 34l-8 32q-2 10 -9 35t-10 40l-110 385l35 17q47 20 67 43q19 22 19 55q0 32 -23 55q-21 21 -65 21h-351q-44 0 -65 -21q-23 -23 -23 -55
q0 -34 19 -63q18 -27 65 -45l35 -15z" />
    <glyph glyph-name="x" unicode="x" horiz-adv-x="1202" 
d="M133 197l-4 -7l-45 -20q-36 -14 -53 -35q-17 -20 -17 -53q0 -38 27 -62t74 -24h256q46 0 73 24t27 62q0 30 -14 47q-16 19 -49 39l-19 12l148 197l170 -197l-19 -12q-31 -19 -49 -37q-14 -17 -14 -47q0 -38 26 -61q28 -25 74 -25h354q46 0 74 25q27 24 27 61q0 34 -15 55
q-18 21 -55 35l-45 21l-291 325l279 299l37 17q42 20 61 49q18 24 18 61q0 33 -22 55q-21 21 -66 21h-268q-44 0 -65 -21q-23 -23 -23 -55q0 -31 14 -51q11 -19 35 -43l21 -18l-138 -183l-157 183l20 18q22 22 37 43q12 21 12 51q0 33 -22 55q-21 21 -66 21h-364
q-45 0 -66 -21q-22 -22 -22 -55q0 -37 18 -61q20 -27 62 -47l36 -17l277 -309z" />
    <glyph glyph-name="y" unicode="y" horiz-adv-x="1222" 
d="M494 -57l-11 -11q-15 -32 -43 -79q-19 -32 -47 -56q-23 -20 -53 -30q-32 -13 -68 -13q-23 0 -51 4q-23 3 -37 9q-10 4 -30 8q-10 2 -37 2q-42 0 -68 -33q-31 -36 -31 -92q0 -67 50 -105q48 -36 137 -36q69 0 143 24q73 24 150 92q77 70 151 187q80 125 154 313l282 692
l35 15q49 19 66 45q18 27 18 63q0 33 -22 55q-21 21 -66 21h-299q-44 0 -65 -21q-23 -23 -23 -55q0 -33 19 -55q20 -23 67 -43l35 -17l-148 -391q-16 -43 -24 -74q-16 -46 -21 -61q-9 -30 -18 -57h-4q-2 6 -6 17.5t-7 21t-6 18.5q-10 29 -18 61q-6 22 -25 74l-149 395l35 17
q47 20 67 43q19 22 19 55q0 32 -23 55q-21 21 -65 21h-353q-44 0 -65 -21q-23 -23 -23 -55q0 -34 19 -63q18 -27 65 -45l35 -15z" />
    <glyph glyph-name="z" unicode="z" horiz-adv-x="1009" 
d="M160 287l-8 -15q-45 -58 -54 -79q-12 -30 -12 -68q0 -62 41 -100q40 -37 117 -37h542q37 0 56 8q23 10 37 24q16 16 22 41q6 24 6 70v16v66q0 41 -2 74q-3 42 -24 63q-22 19 -54 19q-34 0 -53 -19q-21 -21 -35 -61l-39 -115h-307l438 549q43 55 56 82q12 30 12 67
q0 64 -41 105q-40 37 -117 37h-522q-36 0 -55 -8q-21 -9 -37 -25q-17 -17 -23 -37q-6 -24 -6 -72v-16v-61q0 -35 2 -62q3 -42 25 -61t55 -19q35 0 56 21q21 18 36 61l33 101h293z" />
    <glyph glyph-name="braceleft" unicode="{" horiz-adv-x="776" 
d="M244 45l-6 -4q0 -108 22 -188q22 -79 64 -127q44 -50 100 -70q64 -23 133 -23h6q73 0 113 29q37 27 37 70q0 35 -19 57q-18 18 -65 18h-13q-60 0 -86 39q-28 39 -28 154v197q0 83 -13 153q-13 68 -32 111q-18 40 -54 76q-31 31 -67 51v4q36 20 67 51q35 35 54 80t32 121
t13 172v153q0 55 6 93q6 35 18 57q13 22 33 31q18 6 47 6h12q52 0 74 22q23 23 23 62q0 40 -31 65t-102 25h-7q-72 0 -139 -23q-62 -24 -104 -75q-46 -55 -66 -129q-24 -79 -24 -191v-154q0 -74 -9 -120q-9 -50 -24 -80q-14 -29 -37 -45q-26 -16 -55 -25q-33 -9 -49 -37
q-17 -31 -17 -61q0 -31 17 -62q15 -27 49 -36q29 -9 55 -25q22 -14 39 -41q16 -26 25 -66q8 -36 8 -98v-217z" />
    <glyph glyph-name="bar" unicode="|" horiz-adv-x="663" 
d="M211 -371q0 -121 121 -121t121 121v1745q0 121 -121 121t-121 -121v-1745z" />
    <glyph glyph-name="braceright" unicode="}" horiz-adv-x="772" 
d="M268 -6l-10 -17q0 -55 -6 -90q-5 -33 -19 -57q-12 -21 -30 -27t-47 -6h-13q-53 0 -73 -20q-23 -23 -23 -62q0 -42 33 -65q31 -25 102 -25h6q74 0 138 25q61 24 104 76q45 54 68 131q24 80 24 190v166q0 79 8 123q9 47 25 80q16 31 41 47q23 14 55 24q33 9 49 37
q17 31 17 62q0 34 -15 61q-16 28 -49 37q-31 9 -53 25q-26 16 -41 43q-15 24 -24 65t-9 98v203q0 116 -20 189q-21 77 -62 127q-41 51 -98 71q-59 21 -133 21h-6q-75 0 -113 -27q-37 -27 -37 -72q0 -37 21 -55q18 -18 65 -18h13q59 0 86 -37q26 -36 26 -154v-184
q0 -91 13 -164q12 -65 34 -115q21 -49 52 -77q33 -33 67 -52v-4q-33 -19 -67 -49q-31 -31 -52 -78q-23 -54 -34 -116q-13 -73 -13 -164v-166z" />
    <glyph glyph-name="asciitilde" unicode="~" horiz-adv-x="1085" 
d="M381 748l-4 -11q-97 0 -168 -51q-72 -51 -113 -135l-6 -19q-4 -12 -4 -22q0 -38 29 -64q27 -24 67 -24q20 0 33 8q15 6 25 23q22 37 55 67q31 25 72 25q39 0 73 -21q51 -31 74 -43q44 -26 86 -45q44 -20 105 -20q93 0 167 53q72 51 113 135l6 19q2 6 2 22q0 41 -26 64
q-27 24 -68 24q-18 0 -33 -6q-14 -6 -24 -22q-22 -37 -56 -64q-31 -25 -71 -25q-39 0 -74 21q-30 17 -74 45q-42 27 -82 45q-47 21 -104 21z" />
    <glyph glyph-name="uni00A0" unicode="&#xa0;" horiz-adv-x="522" 
 />
    <glyph glyph-name="exclamdown" unicode="&#xa1;" horiz-adv-x="643" 
d="M176 -170l-6 -2q-4 -70 -4 -80v-47q0 -43 33 -76q35 -35 118 -35q84 0 119 35q33 33 33 76v47q0 10 -4 80l-37 723q-3 39 -25 67q-25 25 -84 25q-57 0 -79 -25q-24 -24 -27 -65zM141 918l-6 -3q0 -76 49 -122q50 -50 125 -50q77 0 129 52q49 49 49 125q0 74 -47 124
q-50 50 -125 50t-125 -50q-49 -49 -49 -126z" />
    <glyph glyph-name="cent" unicode="&#xa2;" horiz-adv-x="1013" 
d="M752 791l2 -3q11 -38 34 -61q20 -20 56 -20q35 0 55 20q22 19 25 61q2 27 2 66v51v19q0 64 -6 88q-5 21 -23 39q-29 29 -82 43q-55 15 -141 18v191q0 45 -23 71q-22 25 -67 25q-46 0 -68 -25t-22 -71v-207q-95 -21 -172 -68q-78 -47 -129 -110q-57 -67 -84 -148
q-31 -85 -31 -174q0 -196 106 -320q105 -126 308 -147v-195q0 -46 22 -71t68 -25q45 0 67 25q23 26 23 71v193q72 9 135 31q58 21 92 55q16 16 25 31q8 13 8 37q0 35 -19 57q-18 18 -51 18q-11 0 -31 -4q-15 -6 -36 -12q-30 -8 -58 -10q-35 -6 -80 -6q-139 0 -221 82
t-82 221q0 147 76 223t203 76q27 0 37 -2q15 -3 24 -6q4 -1 7.5 -2t7.5 -2.5t6 -2.5z" />
    <glyph glyph-name="sterling" unicode="&#xa3;" horiz-adv-x="1056" 
d="M264 592l-2 -14q3 -52 -6 -95q-8 -36 -25 -80q-15 -36 -36 -67l-43 -62q-37 -53 -50 -79q-18 -30 -18 -66q0 -64 41 -102q40 -37 131 -37h621q36 0 55 8q21 9 37 25t22 40t6 70v17v73q0 62 -2 113q-3 42 -24 63q-22 19 -56 19t-55 -21t-33 -61l-41 -137h-462l-2 2
q73 82 129 176q52 88 67 205h184q59 0 86 30q29 32 29 76q0 40 -20 57q-22 19 -68 19h-223q-10 48 -37 123q-25 70 -25 149q0 77 45 119q43 43 115 43q45 0 74 -16q30 -20 49 -39q27 -27 39 -37q19 -19 47 -19q48 0 88 37q39 36 39 93q0 33 -18 63t-54 55q-35 24 -86 39
q-52 15 -123 15q-107 0 -198 -31t-152 -86q-57 -51 -94 -127q-35 -72 -35 -152q0 -69 15 -121q9 -38 28 -98h-37q-55 0 -84 -29q-30 -30 -30 -77q0 -41 20 -58q21 -18 68 -18h104z" />
    <glyph glyph-name="currency" unicode="&#xa4;" horiz-adv-x="1124" 
d="M127 352l-14 -4q-35 -35 -35 -69q0 -20 10 -43q9 -21 25 -37t37 -25q23 -10 45 -10q50 0 77 47l80 129q49 -18 84 -23q43 -6 88 -6t109 11q47 8 92 28l84 -137q27 -47 78 -47q26 0 47 12q23 13 41 31t31 41q12 21 12 43q0 24 -8 37q-7 12 -25 30l-113 103q49 58 70 129
q19 71 19 133q0 73 -21 137q-22 64 -55 103l102 92q35 35 35 69q0 20 -10 43q-9 21 -25 37t-37 25q-19 8 -47 8q-51 0 -78 -47l-80 -129q-46 17 -79 22q-51 7 -88 7q-43 0 -107 -11q-47 -8 -92 -28l-84 137q-27 47 -78 47q-24 0 -47 -10q-21 -12 -37 -31q-20 -20 -29 -41
q-12 -21 -12 -43q0 -24 8 -37q9 -15 25 -31l113 -102q-50 -59 -68 -127q-18 -67 -18 -133q0 -71 22 -135t55 -103zM365 702h-5q0 119 52 177q53 59 129 59q78 0 133 -61t55 -177q0 -119 -51 -176q-53 -59 -129 -59q-77 0 -129 61q-55 61 -55 176z" />
    <glyph glyph-name="yen" unicode="&#xa5;" horiz-adv-x="1306" 
d="M520 193v-5l-102 -30q-46 -15 -62 -31q-18 -18 -18 -51q0 -35 27 -56q27 -24 73 -24h434q47 0 74 24t27 58q0 31 -17 51q-19 19 -63 33l-102 31v81h208q58 0 86 25q27 24 27 61q0 70 -84 70h-235v96h208q58 0 86 25q27 24 27 61q0 70 -84 70h-170l299 496l49 20
q40 15 62 43q18 27 18 62q0 31 -22 53q-20 20 -66 20h-323q-46 0 -66 -20q-23 -23 -23 -49q0 -34 19 -56t59 -43l45 -22l-213 -398h-4l-223 398l45 22q40 21 59 43t19 56q0 26 -23 49q-20 20 -65 20h-391q-46 0 -66 -20q-22 -22 -22 -53q0 -36 20 -62q19 -28 59 -43l50 -20
l303 -496h-144q-58 0 -86 -25q-26 -23 -26 -61q0 -70 84 -70h235v-96h-209q-59 0 -86 -24q-26 -23 -26 -62q0 -70 84 -70h235v-81z" />
    <glyph glyph-name="brokenbar" unicode="&#xa6;" horiz-adv-x="663" 
d="M211 754q0 -121 121 -121t121 121v620q0 121 -121 121t-121 -121v-620zM211 -371q0 -121 121 -121t121 121v633q0 121 -121 121t-121 -121v-633z" />
    <glyph glyph-name="section" unicode="&#xa7;" horiz-adv-x="1130" 
d="M113 541l-15 -9q0 -86 41 -145q41 -63 101 -108t131 -80q76 -40 131 -74q56 -34 100 -78q39 -39 39 -92q0 -49 -27 -76q-29 -29 -77 -29q-43 0 -72 19q-24 16 -49 41q-15 15 -43 39q-21 18 -49 18q-54 0 -93 -39q-38 -38 -38 -92q0 -31 18 -61q21 -34 53 -54
q33 -23 86 -38q52 -15 123 -15q90 0 172 29q77 27 133 74q57 48 86 110q31 64 31 133q0 59 -23 113q-21 50 -67 96q95 47 147 123q54 79 54 180q0 87 -39 146q-41 62 -99 108q-64 48 -131 84q-80 42 -129 74q-56 34 -100 78q-41 41 -41 96q0 49 29 78q27 27 75 27
q43 0 72 -19q30 -20 49 -39q29 -29 43 -41q21 -18 49 -18q54 0 93 39q38 38 38 92q0 31 -18 61q-20 33 -53 56t-86 38q-52 15 -123 15q-95 0 -172 -27q-76 -27 -129 -74q-58 -49 -84 -110q-31 -67 -31 -135q0 -61 25 -113q25 -51 67 -96q-94 -51 -145 -125q-53 -77 -53 -180
zM358 598l-6 -8q0 42 17 84q13 32 47 63q46 -30 110 -63q59 -32 105 -64q56 -39 80 -69q30 -38 30 -86q0 -44 -16 -84q-17 -35 -47 -62q-53 35 -107 64q-63 34 -102 63q-52 36 -80 74q-31 42 -31 88z" />
    <glyph glyph-name="dieresis" unicode="&#xa8;" 
d="M137 1296q0 -67 45 -112t113 -45t115 47t47 114q0 68 -45 113t-113 45t-115 -47t-47 -115zM567 1296q0 -67 45 -112t113 -45t115 47t47 114q0 68 -45 113t-113 45t-115 -47t-47 -115z" />
    <glyph glyph-name="copyright" unicode="&#xa9;" horiz-adv-x="1640" 
d="M98 662l-10 -7q0 -154 51 -276q49 -125 142 -215q91 -91 221 -141t284 -50q164 0 301 58q136 56 236 153q101 98 160 234q55 134 55 293q0 151 -49 276t-141 217q-90 90 -220 144q-128 49 -284 49q-162 0 -301 -56t-236 -153q-96 -96 -153 -234q-56 -136 -56 -292z
M281 680l-5 -2q0 128 39 229q40 103 111 174q72 72 168 111q95 39 215 39t215 -39q96 -39 168 -111q71 -71 111 -172q38 -96 38 -227t-38 -227q-40 -101 -111 -172q-70 -70 -166 -111q-100 -41 -215 -41q-122 0 -213 39q-96 39 -168 111q-71 71 -111 172q-38 96 -38 227z
M932 834l-2 -11q9 -35 24 -47t43 -12q29 0 43 14q16 13 19 47q2 18 2 43v37v15q0 45 -4 73q-6 18 -19 31q-23 23 -67 37q-43 14 -111 14q-87 0 -166 -31q-76 -30 -129 -83q-56 -56 -86 -130q-30 -73 -30 -163q0 -183 100 -283q99 -102 264 -102q92 0 148 20q51 19 81 49
q23 23 23 54q0 29 -14 43q-15 12 -39 12q-13 0 -19 -2q-16 -4 -26 -6q-3 -1 -14.5 -3.5t-18.5 -3.5q-24 -4 -47 -4q-106 0 -164 64q-59 62 -59 190q0 126 51 183t131 57q18 0 24 -2l19 -6l18 -6z" />
    <glyph glyph-name="ordfeminine" unicode="&#xaa;" horiz-adv-x="892" 
d="M506 1081l-2 -14q-17 0 -27 2q-8 2 -28 6h-39q-87 0 -142 -14q-56 -14 -96 -43q-36 -26 -55 -62q-19 -40 -19 -77q0 -85 62 -144t166 -59q56 0 94 14q36 15 61 33q26 20 45 49l4 -2v-6q0 -41 23 -64q20 -20 74 -20q39 0 80 6q34 5 67 16q29 10 41 25t12 43q0 26 -10 43
q-12 15 -43 21l-41 8q-7 95 -4 157v148q0 115 -63 172t-215 57q-111 0 -187 -24q-77 -24 -102 -49q-13 -13 -17 -19q-6 -9 -6 -24q0 -26 17 -43q16 -19 43 -19q15 0 30 6q21 8 37 13t53 12q30 6 70 6q65 0 92 -27q25 -28 25 -92v-35zM502 872v2q-12 -15 -27 -24
q-9 -7 -31 -14q-21 -7 -43 -7q-34 0 -55 21q-22 19 -22 47q0 59 108 59h29q10 0 22 -4q6 -2 19 -2v-78zM197 578h2q-59 0 -86 -27q-29 -29 -29 -80q0 -40 20 -57q22 -19 68 -19h520q59 0 86 27t27 80q0 39 -21 57q-22 19 -67 19h-520z" />
    <glyph glyph-name="guillemotleft" unicode="&#xab;" horiz-adv-x="1236" 
d="M940 109l-2 8q35 -35 80 -35q44 0 80 31q35 30 35 73q0 26 -23 64l-197 274l191 267q13 18 20 36q6 15 6 31q0 40 -28 68q-27 24 -68 24q-24 0 -43 -8q-21 -9 -43 -31l-291 -307q-45 -45 -45 -92t45 -92zM434 92l6 -4q18 -18 39 -27q16 -8 41 -8q24 0 43 8q21 9 37 25
q17 13 25 33q10 20 10 41q0 10 -4 30q-3 14 -19 37l-213 297l207 289q16 23 19 37q4 20 4 31q0 41 -33 67q-34 27 -76 27q-24 0 -43 -8q-17 -7 -39 -29l-315 -330q-43 -43 -43 -90q0 -41 43 -90z" />
    <glyph glyph-name="logicalnot" unicode="&#xac;" horiz-adv-x="1085" 
d="M209 682l4 2q-43 0 -70 -27q-26 -26 -26 -73q0 -48 26 -74q27 -27 70 -27h553v-192q0 -57 29 -86q28 -31 73 -31q46 0 74 31q29 32 29 88v264q0 125 -123 125h-639z" />
    <glyph glyph-name="uni00AD" unicode="&#xad;" horiz-adv-x="925" 
d="M231 651q-114 0 -114 -121q0 -88 92 -88h485q115 0 115 121q0 88 -92 88h-486z" />
    <glyph glyph-name="registered" unicode="&#xae;" horiz-adv-x="974" 
d="M68 1075l-11 -8q0 -85 31 -158q30 -74 86 -127q57 -54 131 -80q73 -30 164 -30q99 0 178 30t135 86q55 55 86 134t31 170q0 83 -31 159q-28 69 -84 125q-58 55 -129 84q-76 31 -163 31q-94 0 -173 -31q-79 -30 -135 -86t-86 -133t-30 -166zM168 1079v4q0 68 22 129
q21 58 62 99q40 40 98 61q64 23 125 23t125 -23q54 -22 100 -65q43 -40 64 -99q22 -61 22 -129q0 -79 -20 -135q-21 -58 -61 -98q-41 -41 -97 -62q-53 -20 -129 -20q-67 0 -125 24t-98 64q-46 43 -66 98q-22 61 -22 129zM336 948l-2 2l-27 -8q-26 -9 -26 -31q0 -30 34 -30
h131q35 0 35 28q0 11 -4 19q-5 5 -20 14l-19 8v94h47l23 -59q21 -59 49 -84q27 -24 68 -24q32 0 47 12q14 11 14 26q0 16 -18 25q-20 12 -37 35q-19 26 -31 57l-14 33q33 14 55 43q21 27 21 68q0 48 -39 81q-42 31 -129 31h-183q-17 0 -22 -8q-6 -9 -6 -18q0 -23 28 -35
l25 -8v-271zM438 1110h2v109h45q35 0 50 -15q16 -16 16 -39t-16 -39q-19 -16 -54 -16h-43z" />
    <glyph glyph-name="macron" unicode="&#xaf;" 
d="M270 1397v2q-58 0 -86 -31t-28 -82q0 -39 22 -61q23 -23 68 -23h506q58 0 86 31t28 82q0 39 -22 61q-21 21 -68 21h-506z" />
    <glyph glyph-name="degree" unicode="&#xb0;" horiz-adv-x="839" 
d="M92 1190l-6 -2q0 -60 23 -117q20 -52 65 -94q44 -41 105 -62q64 -22 135 -22t135 25q63 24 104 63q44 41 68 96t24 121q0 61 -22 119q-20 53 -61 94q-44 41 -103 62q-64 22 -135 22t-135 -22q-59 -23 -105 -66q-43 -43 -67 -98q-25 -58 -25 -119zM270 1192q0 63 41 104
t105 41q63 0 104 -41q39 -39 39 -104q0 -68 -39 -107q-41 -41 -104 -41q-64 0 -105 41t-41 107z" />
    <glyph glyph-name="plusminus" unicode="&#xb1;" horiz-adv-x="1085" 
d="M436 670l-2 -4v-228q0 -57 29 -86q27 -30 80 -30t80 30q26 29 26 88v228h236q47 0 73 26q25 28 25 74t-25 74q-23 26 -71 26h-236v228q0 61 -26 90q-28 31 -80 31q-51 0 -80 -29q-29 -32 -29 -90v-228h-237q-44 0 -70 -26q-27 -27 -27 -74t27 -74q26 -26 70 -26h237z
M197 193h-2q-43 0 -70 -27t-27 -74t27 -74q26 -26 70 -26h686q47 0 73 26q25 28 25 74t-25 74q-24 27 -71 27h-686z" />
    <glyph glyph-name="twosuperior" unicode="&#xb2;" horiz-adv-x="718" 
d="M119 858l-2 -10q-32 -29 -41 -53q-13 -26 -13 -54q0 -58 35 -88t92 -30h359q28 0 43 6q13 5 24 16t17 31q6 18 6 67v11v37q0 29 -2 43q-3 31 -19 47q-14 14 -43 14q-46 0 -67 -53l-14 -35h-183l51 43q12 10 32.5 26.5t36.5 30t30 25.5q38 35 76 80q32 38 51 80
q18 40 18 86q0 89 -69 149q-71 62 -218 62q-89 0 -147 -21t-80 -43q-13 -13 -20 -31q-6 -15 -6 -32q0 -31 16 -50q15 -18 41 -18q22 0 43 6t67 6q61 0 84 -20q25 -22 25 -49q0 -31 -8 -50q-9 -20 -25 -43q-14 -19 -41 -43l-55 -55z" />
    <glyph glyph-name="threesuperior" unicode="&#xb3;" horiz-adv-x="735" 
d="M303 618l-2 -16q89 0 156 21q65 20 112 55q47 37 66 80q22 49 22 92q0 66 -41 113q-42 45 -102 57v4q44 17 80 59q33 39 33 109q0 74 -66 131q-64 55 -203 55q-96 0 -157 -22q-61 -24 -84 -47q-14 -14 -21 -31q-6 -15 -6 -33q0 -30 16 -49q15 -18 41 -18q33 0 54 8t73 8
t74 -16q21 -15 21 -37q0 -29 -27 -47q-28 -19 -115 -19q-33 0 -43 -2q-19 -3 -28 -12q-17 -17 -17 -49q0 -41 19 -66q18 -24 59 -24q46 0 86 -7q30 -5 55 -16q17 -9 27 -25q6 -15 6 -30q0 -32 -20 -49q-22 -19 -68 -19q-30 0 -53 10q-18 8 -37 23q-17 14 -31 22
q-18 11 -30 11q-37 0 -58 -21q-22 -22 -22 -61q0 -57 59 -98q59 -44 172 -44z" />
    <glyph glyph-name="acute" unicode="&#xb4;" 
d="M328 1266q-2 -4 -8.5 -13t-8.5 -14q-6 -12 -6 -27q0 -35 27 -59q25 -25 57 -25q15 0 29 7q15 7 28 18l234 186q21 18 31 35q8 13 8 37q0 25 -12 49t-33 45q-24 20 -45 31q-24 12 -54 12q-19 0 -36 -10q-19 -13 -35 -35z" />
    <glyph glyph-name="mu" unicode="&#xb5;" horiz-adv-x="1349" 
d="M201 -369l-11 -14q0 -59 27 -86q29 -29 86 -29q82 0 123 41t35 111l-19 364l2 2q14 -14 37 -24q26 -11 56 -19q27 -8 77 -8q70 0 119 27q49 24 80 55q38 38 59 84l5 -2q15 -77 67 -117q53 -41 135 -41q43 0 92 11q39 9 68 28q28 18 43 43q14 22 14 52q0 32 -14 49
q-15 18 -43 18h-16h-17q-33 0 -55 25q-21 24 -21 80v585q0 95 -32 127q-33 33 -127 33q-66 0 -115 -8q-53 -9 -98 -21q-41 -12 -56 -30q-18 -18 -18 -56q0 -35 18 -53q21 -21 58 -29l94 -20v-530q-23 -30 -49 -50q-19 -14 -60 -32q-35 -15 -79 -15q-93 0 -142 58
q-49 55 -49 192v436q0 94 -33 127t-127 33q-57 0 -106 -8q-40 -6 -92 -19q-41 -12 -56 -30q-18 -18 -18 -56q0 -35 18 -53q19 -19 58 -28l82 -19v-1184z" />
    <glyph glyph-name="paragraph" unicode="&#xb6;" horiz-adv-x="1329" 
d="M516 -123h-4l-100 -29q-49 -16 -66 -30q-18 -18 -18 -47q0 -36 20 -56q22 -22 68 -22h231q40 0 62 22t22 62v1409h129v-1409q0 -39 23 -62q22 -22 61 -22h211q46 0 68 22q20 20 20 56q0 28 -16 47q-16 16 -66 32l-82 27v1319l82 27q47 15 66 37q18 18 18 49q0 28 -18 49
q-17 20 -62 20h-551q-253 0 -374 -118q-123 -120 -123 -345q0 -102 28 -184q27 -79 80 -135q54 -57 127 -84q79 -29 164 -29v-606z" />
    <glyph glyph-name="periodcentered" unicode="&#xb7;" horiz-adv-x="610" 
d="M127 545q0 -78 49 -127t127 -49t129 51t51 129t-49 127t-127 49t-129 -51t-51 -129z" />
    <glyph glyph-name="cedilla" unicode="&#xb8;" 
d="M354 -182l4 -4q-6 -23 4 -39q9 -15 31 -15q42 0 62 -14t20 -39q0 -29 -20 -43q-22 -16 -70 -16q-27 0 -37 2h-33q-31 0 -47 -19q-18 -18 -18 -45q0 -33 31 -55q31 -25 112 -25q80 0 148 19q60 17 110 49q44 30 68 74q24 43 24 88q0 89 -61 135q-59 45 -145 51l18 78h-156
z" />
    <glyph glyph-name="onesuperior" unicode="&#xb9;" horiz-adv-x="614" 
d="M207 799h-4l-78 -23q-66 -21 -66 -74q0 -34 21 -55q20 -20 55 -20h371q35 0 55 20q21 21 21 55q0 28 -15 46t-53 30l-63 21v479q0 108 -101 108q-35 0 -71 -8q-38 -8 -80 -24q-24 -9 -74 -35q-33 -17 -53 -37q-16 -16 -19 -25q-6 -12 -6 -28q0 -28 19 -47t45 -19
q20 0 28 2q17 0 27 2l41 7v-375z" />
    <glyph glyph-name="ordmasculine" unicode="&#xba;" horiz-adv-x="919" 
d="M98 1018v-2q0 -152 90 -242q88 -88 252 -88q90 0 160 27q75 29 121 75q49 49 76 119q26 65 26 152q0 153 -88 241q-89 89 -252 89q-89 0 -159 -27q-73 -28 -121 -76q-52 -52 -78 -117q-27 -67 -27 -151zM326 1038q0 107 39 152q36 45 94 45q51 0 92 -47q41 -50 41 -154
q0 -103 -37 -149q-36 -45 -92 -45t-96 49q-41 50 -41 149zM207 588h2q-59 0 -86 -27q-29 -29 -29 -80q0 -39 21 -57t67 -18h531q60 0 86 26t26 80q0 40 -20 57q-22 19 -68 19h-530z" />
    <glyph glyph-name="guillemotright" unicode="&#xbb;" horiz-adv-x="1236" 
d="M131 233v-10q-15 -21 -18 -37q-7 -18 -7 -30q0 -40 29 -66q27 -24 68 -24q24 0 43 8q23 10 43 30l291 308q45 45 45 92t-45 92l-283 311q-35 35 -80 35q-44 0 -80 -31q-35 -30 -35 -73q0 -26 23 -64l197 -274zM633 201l-8 -2q-16 -23 -19 -37q-4 -20 -4 -31q0 -42 33 -68
t76 -26q20 0 43 10q21 9 39 27l315 329q43 43 43 91q0 41 -43 90l-311 336q-15 15 -37 26q-16 8 -41 8q-24 0 -43 -8q-26 -11 -37 -20q-16 -13 -25 -31q-10 -20 -10 -41q0 -11 4 -31q3 -14 19 -37l213 -297z" />
    <glyph glyph-name="onequarter" unicode="&#xbc;" horiz-adv-x="1708" 
d="M207 799h-4l-78 -23q-66 -21 -66 -74q0 -34 21 -55q20 -20 55 -20h371q35 0 55 20q21 21 21 55q0 28 -15 46t-53 30l-63 21v479q0 108 -101 108q-35 0 -71 -8q-38 -8 -80 -24q-24 -9 -74 -35q-33 -17 -53 -37q-16 -16 -19 -25q-6 -12 -6 -28q0 -28 19 -47t45 -19
q20 0 28 2q17 0 27 2l41 7v-375zM397 129l-2 -2q-24 -43 -24 -72q0 -34 24 -55q26 -23 60 -23q22 0 49 17q26 16 43 49l719 1208q24 43 24 72q0 34 -24 55q-26 23 -60 23q-26 0 -47 -15q-26 -16 -43 -49zM975 436h-8q-30 -38 -37 -57q-8 -21 -8 -53q0 -59 34 -86
q36 -31 97 -31h219v-51l-53 -21q-30 -10 -41 -24q-13 -16 -13 -41q0 -34 23 -54q21 -18 61 -18h275q40 0 61 18t21 54q0 47 -54 69l-41 17v51h37q44 0 68 24t24 66q0 76 -65 76h-62v272q0 57 -30 84q-32 29 -117 29q-32 0 -68 -4q-26 -5 -57 -19t-49 -32q-26 -22 -49 -56z
M1116 375l158 200v-200h-158z" />
    <glyph glyph-name="onehalf" unicode="&#xbd;" horiz-adv-x="1701" 
d="M207 799h-4l-78 -23q-66 -21 -66 -74q0 -34 21 -55q20 -20 55 -20h371q35 0 55 20q21 21 21 55q0 28 -15 46t-53 30l-63 21v479q0 108 -101 108q-35 0 -71 -8q-38 -8 -80 -24q-24 -9 -74 -35q-33 -17 -53 -37q-16 -16 -19 -25q-6 -12 -6 -28q0 -28 19 -47t45 -19
q20 0 28 2q17 0 27 2l41 7v-375zM397 129l-2 -2q-24 -43 -24 -72q0 -34 24 -55q26 -23 60 -23q22 0 49 17q26 16 43 49l719 1208q24 43 24 72q0 34 -24 55q-26 23 -60 23q-26 0 -47 -15q-26 -16 -43 -49zM1096 227l-2 -10q-32 -29 -41 -53q-13 -26 -13 -53q0 -58 35 -88
q36 -31 92 -31h359q28 0 43 6q13 5 24 16t17 31q6 18 6 68v10v37q0 29 -2 43q-3 31 -19 47q-14 14 -43 14q-46 0 -67 -53l-15 -35h-182l51 43q12 10 32.5 26.5t36.5 30t30 25.5q33 31 75 80q34 40 52 80q18 41 18 86q0 88 -70 149q-71 62 -217 62q-88 0 -147 -21
q-58 -21 -80 -43q-13 -13 -20 -30q-7 -18 -7 -33q0 -29 17 -49q16 -19 41 -19q22 0 43 6t67 6q61 0 84 -20q25 -22 25 -49q0 -30 -8 -49q-9 -20 -25 -43q-14 -19 -41 -43l-55 -56z" />
    <glyph glyph-name="threequarters" unicode="&#xbe;" horiz-adv-x="1738" 
d="M303 618l-2 -16q89 0 156 21q65 20 112 55q47 37 66 80q22 49 22 92q0 66 -41 113q-42 45 -102 57v4q44 17 80 59q33 39 33 109q0 74 -66 131q-64 55 -203 55q-96 0 -157 -22q-61 -24 -84 -47q-14 -14 -21 -31q-6 -15 -6 -33q0 -30 16 -49q15 -18 41 -18q33 0 54 8t73 8
t74 -16q21 -15 21 -37q0 -29 -27 -47q-28 -19 -115 -19q-33 0 -43 -2q-19 -3 -28 -12q-17 -17 -17 -49q0 -41 19 -66q18 -24 59 -24q46 0 86 -7q30 -5 55 -16q17 -9 27 -25q6 -15 6 -30q0 -32 -20 -49q-22 -19 -68 -19q-30 0 -53 10q-18 8 -37 23q-17 14 -31 22
q-18 11 -30 11q-37 0 -58 -21q-22 -22 -22 -61q0 -57 59 -98q59 -44 172 -44zM430 113l-2 -2q-25 -45 -25 -72q0 -33 25 -55q26 -23 59 -23q24 0 50 16q25 16 43 50l718 1208q25 45 25 72q0 33 -25 55t-59 22q-27 0 -47 -14q-26 -16 -43 -49zM1008 420h-9q-27 -35 -36 -58
q-9 -24 -9 -53q0 -59 35 -86q35 -30 96 -30h220v-52l-54 -20q-29 -10 -41 -25t-12 -41q0 -33 23 -53q21 -18 61 -18h274q41 0 62 18q20 17 20 53q0 49 -53 70l-41 16v52h37q44 0 68 24t24 66q0 75 -65 75h-62v273q0 57 -30 84q-31 28 -117 28q-32 0 -68 -4q-30 -6 -57 -18
q-29 -13 -49 -33q-27 -24 -49 -55zM1149 358l158 201v-201h-158z" />
    <glyph glyph-name="questiondown" unicode="&#xbf;" horiz-adv-x="774" 
d="M334 420v-12q0 -46 -21 -84q-19 -34 -55 -70q-45 -45 -70 -68q-29 -27 -69 -77q-35 -44 -56 -97q-22 -58 -22 -127q0 -68 25 -129q24 -58 73 -98t125 -61q77 -25 174 -25q62 0 103 8q44 8 86 21q34 11 65 28q27 15 43 31q29 29 29 61q0 36 -21 60t-59 24q-17 0 -37 -4
q-23 -8 -37 -10q-22 -7 -41 -10q-24 -6 -57 -6q-88 0 -133 45q-47 47 -47 119q0 49 20 88q17 32 51 75q24 30 68 74q45 45 68 76q30 40 51 90q20 47 20 111q0 91 -41 141q-43 49 -112 49t-105 -25q-35 -24 -35 -59q0 -21 2 -29l7 -28q1 -5 6 -35q2 -12 2 -47zM268 907l-6 -2
q0 -77 49 -123q49 -49 125 -49q78 0 129 51q49 49 49 125q0 75 -47 125q-49 49 -125 49t-125 -49t-49 -127z" />
    <glyph glyph-name="Agrave" unicode="&#xc0;" horiz-adv-x="1484" 
d="M150 201l6 -6l-58 -25q-43 -18 -59 -37t-16 -53q0 -39 26 -62q27 -24 74 -24h323q47 0 74 24t27 62q0 34 -19 53q-18 18 -61 33l-61 24l61 177h516l59 -177l-61 -24q-41 -14 -61 -31q-19 -19 -19 -53q0 -38 27 -62t73 -24h373q47 0 74 24t27 62q0 33 -17 53
q-16 19 -59 37l-58 25l-368 1020q-15 42 -39 81q-21 30 -49 52q-24 16 -62 26q-31 8 -78 8q-44 0 -75 -8q-38 -10 -62 -26q-26 -18 -49 -50q-21 -31 -39 -79zM526 547l2 -4l125 362q2 4 31 84q3 11 11.5 36t11.5 38q9 37 18 72h4q1 -5 8 -31t11 -41q3 -10 6.5 -22t8 -27.5
t7.5 -24.5q11 -35 27 -80l127 -362h-398zM780 1497l-4 4q23 -10 39 -10q35 0 62 27q24 24 24 61q0 29 -24 53l-246 226q-14 11 -25 16q-12 6 -31 6q-26 0 -47 -12q-26 -13 -43 -33t-30 -49t-13 -55q0 -31 13 -50q11 -16 39 -32z" />
    <glyph glyph-name="Aacute" unicode="&#xc1;" horiz-adv-x="1484" 
d="M150 201l6 -6l-58 -25q-43 -18 -59 -37t-16 -53q0 -39 26 -62q27 -24 74 -24h323q47 0 74 24t27 62q0 34 -19 53q-18 18 -61 33l-61 24l61 177h516l59 -177l-61 -24q-41 -14 -61 -31q-19 -19 -19 -53q0 -38 27 -62t73 -24h373q47 0 74 24t27 62q0 33 -17 53
q-16 19 -59 37l-58 25l-368 1020q-15 42 -39 81q-21 30 -49 52q-24 16 -62 26q-31 8 -78 8q-44 0 -75 -8q-38 -10 -62 -26q-26 -18 -49 -50q-21 -31 -39 -79zM526 547l2 -4l125 362q2 4 31 84q3 11 11.5 36t11.5 38q9 37 18 72h4q1 -5 8 -31t11 -41q3 -10 6.5 -22t8 -27.5
t7.5 -24.5q11 -35 27 -80l127 -362h-398zM612 1628l-4 -6q-24 -24 -24 -53q0 -39 26 -62q24 -24 60 -24q16 0 39 10l286 152q28 16 39 32q13 19 13 49q0 27 -13 56t-30 49q-16 19 -41 33q-24 12 -50 12q-18 0 -30 -6q-7 -4 -25 -17z" />
    <glyph glyph-name="Acircumflex" unicode="&#xc2;" horiz-adv-x="1484" 
d="M150 201l6 -6l-58 -25q-43 -18 -59 -37t-16 -53q0 -39 26 -62q27 -24 74 -24h323q47 0 74 24t27 62q0 34 -19 53q-18 18 -61 33l-61 24l61 177h516l59 -177l-61 -24q-41 -14 -61 -31q-19 -19 -19 -53q0 -38 27 -62t73 -24h373q47 0 74 24t27 62q0 33 -17 53
q-16 19 -59 37l-58 25l-368 1020q-15 42 -39 81q-21 30 -49 52q-24 16 -62 26q-31 8 -78 8q-44 0 -75 -8q-38 -10 -62 -26q-26 -18 -49 -50q-21 -31 -39 -79zM526 547l2 -4l125 362q2 4 31 84q3 11 11.5 36t11.5 38q9 37 18 72h4q1 -5 8 -31t11 -41q3 -10 6.5 -22t8 -27.5
t7.5 -24.5q11 -35 27 -80l127 -362h-398zM457 1620h2q-13 -13 -19 -25t-6 -28q0 -34 25 -56q24 -24 57 -24q23 0 43 14l197 127l196 -127q12 -9 25 -12q16 -4 22 -4q42 0 68 26q25 28 25 62q0 26 -23 49l-209 207q-41 41 -92 41t-92 -41z" />
    <glyph glyph-name="Atilde" unicode="&#xc3;" horiz-adv-x="1484" 
d="M150 201l6 -6l-58 -25q-43 -18 -59 -37t-16 -53q0 -39 26 -62q27 -24 74 -24h323q47 0 74 24t27 62q0 34 -19 53q-18 18 -61 33l-61 24l61 177h516l59 -177l-61 -24q-41 -14 -61 -31q-19 -19 -19 -53q0 -38 27 -62t73 -24h373q47 0 74 24t27 62q0 33 -17 53
q-16 19 -59 37l-58 25l-368 1020q-15 42 -39 81q-21 30 -49 52q-24 16 -62 26q-31 8 -78 8q-44 0 -75 -8q-38 -10 -62 -26q-26 -18 -49 -50q-21 -31 -39 -79zM526 547l2 -4l125 362q2 4 31 84q3 11 11.5 36t11.5 38q9 37 18 72h4q1 -5 8 -31t11 -41q3 -10 6.5 -22t8 -27.5
t7.5 -24.5q11 -35 27 -80l127 -362h-398zM618 1593l-12 -8q29 0 56 -12q44 -22 53 -27q33 -18 61 -28q37 -13 80 -13q52 0 102 21q45 16 86 49q38 31 58 63q20 33 20 62q0 40 -24 61t-56 21q-21 0 -34 -10q-17 -17 -27 -25q-22 -17 -33 -23q-18 -12 -51 -12q-29 0 -53 12
q-9 5 -27 15.5t-24 13.5q-26 15 -62 27q-34 12 -80 12q-51 0 -98 -18q-42 -15 -84 -48q-36 -29 -57 -63q-23 -38 -23 -61q0 -41 27 -62q23 -20 55 -20q22 0 37 12q12 12 27 24q27 22 32 25q18 12 51 12z" />
    <glyph glyph-name="Adieresis" unicode="&#xc4;" horiz-adv-x="1484" 
d="M150 201l6 -6l-58 -25q-43 -18 -59 -37t-16 -53q0 -39 26 -62q27 -24 74 -24h323q47 0 74 24t27 62q0 34 -19 53q-18 18 -61 33l-61 24l61 177h516l59 -177l-61 -24q-41 -14 -61 -31q-19 -19 -19 -53q0 -38 27 -62t73 -24h373q47 0 74 24t27 62q0 33 -17 53
q-16 19 -59 37l-58 25l-368 1020q-15 42 -39 81q-21 30 -49 52q-24 16 -62 26q-31 8 -78 8q-44 0 -75 -8q-38 -10 -62 -26q-26 -18 -49 -50q-21 -31 -39 -79zM526 547l2 -4l125 362q2 4 31 84q3 11 11.5 36t11.5 38q9 37 18 72h4q1 -5 8 -31t11 -41q3 -10 6.5 -22t8 -27.5
t7.5 -24.5q11 -35 27 -80l127 -362h-398zM389 1640v-4q0 -72 45 -114q43 -43 115 -43q70 0 117 47q45 45 45 116t-43 117q-43 43 -115 43t-117 -45q-47 -47 -47 -117zM831 1636v-4q0 -71 46 -114q43 -43 114 -43q70 0 117 47q45 45 45 116t-43 117q-43 43 -115 43
q-71 0 -116 -45q-48 -48 -48 -117z" />
    <glyph glyph-name="Aring" unicode="&#xc5;" horiz-adv-x="1484" 
d="M150 201l6 -6l-58 -25q-43 -18 -59 -37t-16 -53q0 -39 26 -62q27 -24 74 -24h323q47 0 74 24t27 62q0 34 -19 53q-18 18 -61 33l-61 24l61 177h516l59 -177l-61 -24q-41 -14 -61 -31q-19 -19 -19 -53q0 -38 27 -62t73 -24h373q47 0 74 24t27 62q0 33 -17 53
q-16 19 -59 37l-58 25l-368 1020q-15 42 -39 81q-21 30 -49 52q-24 16 -62 26q-31 8 -78 8q-44 0 -75 -8q-38 -10 -62 -26q-26 -18 -49 -50q-21 -31 -39 -79zM526 547l2 -4l125 362q2 4 31 84q3 11 11.5 36t11.5 38q9 37 18 72h4q1 -5 8 -31t11 -41q3 -10 6.5 -22t8 -27.5
t7.5 -24.5q11 -35 27 -80l127 -362h-398zM475 1712q0 -54 21 -100q21 -48 57 -76q41 -33 90 -47q55 -19 117 -19t117 19q54 18 92 51q40 34 61 80t21 100t-21 101q-21 46 -57 75q-43 35 -88 50q-53 18 -117 18t-117 -18q-52 -18 -92 -52q-41 -35 -61 -79q-23 -51 -23 -103z
M655 1716h-4q0 47 31 78t76 31q47 0 78 -31q30 -30 30 -78q0 -47 -28 -78q-30 -30 -78 -30q-47 0 -74 30q-31 31 -31 78z" />
    <glyph glyph-name="AE" unicode="&#xc6;" horiz-adv-x="1957" 
d="M618 553l359 604h4v-604h-363zM139 201l-8 -6l-47 -23q-44 -21 -59 -39q-17 -20 -17 -53q0 -38 27 -62t74 -24h331q47 0 74 24t27 62q0 33 -17 53q-18 18 -65 39l-56 25l103 172h467v-172l-60 -23q-38 -14 -61 -37q-21 -21 -21 -55q0 -38 27 -62t74 -24h809q40 0 61 8
q22 8 39 25t23 41t6 84v34v31v25v26v31q-3 42 -25 64q-21 18 -59 18q-36 0 -60 -18q-23 -18 -36 -60l-35 -110h-393v407h272l20 -51q14 -39 37 -55q19 -19 51 -19q35 0 58 23q20 20 20 67v252q0 48 -20 68t-58 20q-34 0 -51 -14q-21 -18 -35 -55l-20 -54h-272v400h366
l33 -101q15 -41 39 -59t57 -18q40 0 60 20q21 18 24 61q2 23 2 56v53v25q0 60 -6 84q-6 25 -22 41q-14 14 -37 24q-21 8 -62 8h-751q-21 0 -49 -4q-26 -6 -46 -18q-25 -14 -41 -33q-16 -18 -38 -55z" />
    <glyph glyph-name="Ccedilla" unicode="&#xc7;" horiz-adv-x="1218" 
d="M944 987l-10 -12q12 -41 37 -60q24 -18 57 -18q38 0 59 21q22 19 25 61q2 27 2 70v75v29v68q0 19 -4 43q-2 15 -10 30q-6 12 -17 23q-34 34 -104 55q-74 19 -184 19q-153 0 -289 -54q-135 -57 -227 -153q-96 -100 -148 -238q-55 -137 -55 -307q0 -133 35 -246
q34 -111 98 -192q65 -83 153 -135q86 -53 195 -74l-45 -178q-6 -23 4 -39q9 -15 31 -15q41 0 61 -14q21 -15 21 -39q0 -28 -21 -43q-22 -16 -69 -16q-27 0 -37 2h-33q-31 0 -47 -19q-19 -19 -19 -45q0 -33 31 -55q31 -25 113 -25q79 0 147 19q62 17 111 49q42 29 67 74
t25 88q0 89 -61 135q-59 45 -146 51l12 58h7q77 0 141 12q70 13 113 26q40 12 81 37q31 16 50 35q14 14 24 31q6 15 6 37q0 40 -18 61q-19 19 -53 19q-15 0 -39 -7q-8 -2 -27.5 -8t-25.5 -8q-22 -7 -72 -14q-43 -6 -101 -6q-95 0 -163 32q-74 30 -127 92q-55 61 -86 152
t-31 209q0 119 29 221q28 97 79 160q50 58 123 94q73 31 154 31q39 0 53 -2q25 -4 37 -6q5 -2 16 -6t15 -5z" />
    <glyph glyph-name="Egrave" unicode="&#xc8;" horiz-adv-x="1196" 
d="M219 201l-6 -4l-96 -31q-46 -15 -62 -31q-16 -19 -16 -53q0 -38 27 -62t73 -24h842q40 0 61 8q22 8 39 25t23 41t6 84v34v31v25v26v31q-3 42 -25 64q-21 18 -59 18q-35 0 -59 -18q-25 -19 -37 -60l-35 -110h-393v407h272l21 -51q15 -40 36 -55q19 -19 52 -19q34 0 57 23
q21 21 21 67v252q0 47 -21 68q-20 20 -57 20q-35 0 -52 -14q-20 -16 -34 -55l-21 -54h-272v400h366l33 -101q15 -41 39 -59t57 -18q40 0 60 20q21 18 24 61q2 23 2 56v53v25q0 60 -6 84q-6 25 -22 41q-14 14 -37 24q-21 8 -62 8h-825q-45 0 -65 -20q-23 -23 -23 -53
q0 -41 18 -62q19 -22 66 -37l90 -28v-977zM608 1503l-4 4q23 -10 39 -10q35 0 62 27q24 24 24 61q0 29 -24 53l-246 226q-14 11 -25 16q-12 6 -31 6q-26 0 -47 -12q-26 -13 -43 -33t-30 -49t-13 -55q0 -29 13 -49q12 -18 39 -33z" />
    <glyph glyph-name="Eacute" unicode="&#xc9;" horiz-adv-x="1196" 
d="M219 201l-6 -4l-96 -31q-46 -15 -62 -31q-16 -19 -16 -53q0 -38 27 -62t73 -24h842q40 0 61 8q22 8 39 25t23 41t6 84v34v31v25v26v31q-3 42 -25 64q-21 18 -59 18q-35 0 -59 -18q-25 -19 -37 -60l-35 -110h-393v407h272l21 -51q15 -40 36 -55q19 -19 52 -19q34 0 57 23
q21 21 21 67v252q0 47 -21 68q-20 20 -57 20q-35 0 -52 -14q-20 -16 -34 -55l-21 -54h-272v400h366l33 -101q15 -41 39 -59t57 -18q40 0 60 20q21 18 24 61q2 23 2 56v53v25q0 60 -6 84q-6 25 -22 41q-14 14 -37 24q-21 8 -62 8h-825q-45 0 -65 -20q-23 -23 -23 -53
q0 -41 18 -62q19 -22 66 -37l90 -28v-977zM504 1634l-4 -6q-25 -25 -25 -53q0 -38 27 -62q24 -24 59 -24q16 0 39 10l287 152q28 16 39 32q12 18 12 50q0 28 -12 55t-31 49q-16 19 -41 33q-24 12 -49 12q-19 0 -31 -6q-8 -4 -24 -16z" />
    <glyph glyph-name="Ecircumflex" unicode="&#xca;" horiz-adv-x="1196" 
d="M219 201l-6 -4l-96 -31q-46 -15 -62 -31q-16 -19 -16 -53q0 -38 27 -62t73 -24h842q40 0 61 8q22 8 39 25t23 41t6 84v34v31v25v26v31q-3 42 -25 64q-21 18 -59 18q-35 0 -59 -18q-25 -19 -37 -60l-35 -110h-393v407h272l21 -51q15 -40 36 -55q19 -19 52 -19q34 0 57 23
q21 21 21 67v252q0 47 -21 68q-20 20 -57 20q-35 0 -52 -14q-20 -16 -34 -55l-21 -54h-272v400h366l33 -101q15 -41 39 -59t57 -18q40 0 60 20q21 18 24 61q2 23 2 56v53v25q0 60 -6 84q-6 25 -22 41q-14 14 -37 24q-21 8 -62 8h-825q-45 0 -65 -20q-23 -23 -23 -53
q0 -41 18 -62q19 -22 66 -37l90 -28v-977zM295 1626h2q-12 -12 -18 -24q-7 -14 -7 -29q0 -33 25 -55q25 -25 57 -25q23 0 43 14l197 127l197 -127q12 -9 24 -12q16 -4 23 -4q40 0 67 27q25 28 25 61q0 26 -23 49l-209 207q-41 41 -92 41t-92 -41z" />
    <glyph glyph-name="Edieresis" unicode="&#xcb;" horiz-adv-x="1196" 
d="M219 201l-6 -4l-96 -31q-46 -15 -62 -31q-16 -19 -16 -53q0 -38 27 -62t73 -24h842q40 0 61 8q22 8 39 25t23 41t6 84v34v31v25v26v31q-3 42 -25 64q-21 18 -59 18q-35 0 -59 -18q-25 -19 -37 -60l-35 -110h-393v407h272l21 -51q15 -40 36 -55q19 -19 52 -19q34 0 57 23
q21 21 21 67v252q0 47 -21 68q-20 20 -57 20q-35 0 -52 -14q-20 -16 -34 -55l-21 -54h-272v400h366l33 -101q15 -41 39 -59t57 -18q40 0 60 20q21 18 24 61q2 23 2 56v53v25q0 60 -6 84q-6 25 -22 41q-14 14 -37 24q-21 8 -62 8h-825q-45 0 -65 -20q-23 -23 -23 -53
q0 -41 18 -62q19 -22 66 -37l90 -28v-977zM209 1647l-2 -5q0 -72 45 -114q43 -43 115 -43q69 0 116 47t47 117t-43 116q-43 43 -114 43q-72 0 -117 -45q-47 -47 -47 -116zM649 1642v-4q0 -72 45 -114q43 -43 115 -43q70 0 117 47q45 45 45 117q0 70 -43 116q-43 43 -115 43
t-117 -45q-47 -47 -47 -117z" />
    <glyph glyph-name="Igrave" unicode="&#xcc;" horiz-adv-x="724" 
d="M219 201v-2l-96 -31q-46 -15 -62 -31q-16 -19 -16 -53q0 -37 27 -61q28 -25 73 -25h435q45 0 73 25q27 24 27 61q0 34 -16 53q-15 18 -62 33l-96 31v977l90 28q47 15 66 37q18 21 18 62q0 30 -23 53q-20 20 -65 20h-459q-45 0 -65 -20q-23 -23 -23 -53q0 -41 18 -62
q19 -22 66 -37l90 -28v-977zM414 1505l-4 4q23 -10 39 -10q34 0 61 27q25 25 25 61q0 28 -25 53l-246 226q-16 12 -24 16q-12 6 -31 6q-26 0 -47 -12q-26 -13 -43 -33q-19 -22 -31 -49t-12 -55q0 -31 12 -49t39 -33z" />
    <glyph glyph-name="Iacute" unicode="&#xcd;" horiz-adv-x="724" 
d="M219 201v-2l-96 -31q-46 -15 -62 -31q-16 -19 -16 -53q0 -37 27 -61q28 -25 73 -25h435q45 0 73 25q27 24 27 61q0 34 -16 53q-15 18 -62 33l-96 31v977l90 28q47 15 66 37q18 21 18 62q0 30 -23 53q-20 20 -65 20h-459q-45 0 -65 -20q-23 -23 -23 -53q0 -41 18 -62
q19 -22 66 -37l90 -28v-977zM219 1636l-4 -6q-25 -25 -25 -53q0 -37 27 -61q25 -25 59 -25q16 0 39 10l287 152q27 15 39 33t12 49q0 28 -12 55t-31 49q-16 19 -41 33q-24 12 -49 12q-19 0 -31 -6q-8 -4 -24 -16z" />
    <glyph glyph-name="Icircumflex" unicode="&#xce;" horiz-adv-x="724" 
d="M219 201v-2l-96 -31q-46 -15 -62 -31q-16 -19 -16 -53q0 -37 27 -61q28 -25 73 -25h435q45 0 73 25q27 24 27 61q0 34 -16 53q-15 18 -62 33l-96 31v977l90 28q47 15 66 37q18 21 18 62q0 30 -23 53q-20 20 -65 20h-459q-45 0 -65 -20q-23 -23 -23 -53q0 -41 18 -62
q19 -22 66 -37l90 -28v-977zM70 1628h2q-14 -14 -19 -24q-6 -12 -6 -29q0 -33 25 -55q25 -25 57 -25q23 0 43 14l197 127l196 -127q11 -9 25 -12q16 -4 22 -4q41 0 68 27q25 28 25 61q0 26 -23 49l-209 207q-41 41 -92 41t-92 -41z" />
    <glyph glyph-name="Idieresis" unicode="&#xcf;" horiz-adv-x="724" 
d="M219 201v-2l-96 -31q-46 -15 -62 -31q-16 -19 -16 -53q0 -37 27 -61q28 -25 73 -25h435q45 0 73 25q27 24 27 61q0 34 -16 53q-15 18 -62 33l-96 31v977l90 28q47 15 66 37q18 21 18 62q0 30 -23 53q-20 20 -65 20h-459q-45 0 -65 -20q-23 -23 -23 -53q0 -41 18 -62
q19 -22 66 -37l90 -28v-977zM-10 1649v-4q0 -73 45 -115q43 -43 115 -43q69 0 116 47q45 45 45 117q0 70 -43 116q-43 43 -114 43q-72 0 -117 -45q-47 -47 -47 -116zM432 1645v-5q0 -72 45 -114q43 -43 115 -43q70 0 117 47q45 45 45 117q0 70 -43 116q-43 43 -115 43
t-117 -45q-47 -47 -47 -116z" />
    <glyph glyph-name="Eth" unicode="&#xd0;" horiz-adv-x="1515" 
d="M559 201l-2 -2v411h172q55 0 86 31t31 80q0 82 -92 82h-195v375h115q229 0 346 -117t117 -367q0 -248 -119 -370q-120 -123 -344 -123h-115zM270 199l-4 -2l-96 -31q-44 -14 -61 -31q-17 -20 -17 -53q0 -38 27 -62t74 -24h444q195 0 338 51q144 51 248 148
q100 93 153 229q51 131 51 301q0 157 -43 279q-42 119 -133 204q-86 80 -225 125q-133 43 -319 43h-523q-45 0 -65 -20q-23 -23 -23 -53q0 -40 19 -62t65 -37l90 -28v-375h-92q-55 0 -84 -29q-31 -31 -31 -80q0 -82 93 -82h114v-411z" />
    <glyph glyph-name="Ntilde" unicode="&#xd1;" horiz-adv-x="1589" 
d="M219 201l-2 -4l-96 -31q-46 -15 -62 -31q-16 -19 -16 -53q0 -38 27 -62t73 -24h394q46 0 73 24t27 62q0 34 -16 53q-18 18 -64 33l-98 31l-4 551q0 67 -2 100q-1 19 -4 51t-3 39q-2 39 -6 86l4 2q36 -68 43 -84q34 -61 45 -82q11 -22 54 -86l440 -682q36 -54 80 -80
q45 -26 117 -26q91 0 137 43q43 43 43 123v1022l82 26q46 15 65 37t19 61q0 33 -21 54q-20 20 -65 20h-410q-45 0 -65 -20q-23 -23 -23 -54q0 -40 21 -61q19 -22 65 -37l92 -28l4 -553q0 -68 2 -101q0 -23 5 -90q2 -39 6 -86l-4 -2l-43 86q-5 8 -14 24t-17 30t-15 28
q-15 29 -53 86l-440 682q-39 61 -76 80q-39 20 -92 20h-293q-45 0 -65 -20q-23 -23 -23 -53q0 -41 18 -62q19 -22 66 -37l90 -28v-977zM639 1599l-12 -8q28 0 55 -12q44 -22 53 -27q31 -17 62 -28q37 -13 80 -13q53 0 102 21q45 16 86 49q35 28 57 64q21 35 21 61
q0 39 -25 61q-24 21 -55 21q-22 0 -35 -10q-17 -17 -27 -25q-20 -16 -32 -22q-19 -13 -51 -13q-28 0 -54 13q-6 3 -51 28q-28 15 -61 27q-35 12 -80 12q-52 0 -99 -18q-45 -16 -84 -47q-35 -28 -57 -64t-22 -61q0 -42 26 -62q23 -20 56 -20q21 0 36 12q17 17 27 25
q15 12 33 24t51 12z" />
    <glyph glyph-name="Ograve" unicode="&#xd2;" horiz-adv-x="1509" 
d="M82 659l-2 -2q0 -166 45 -288q48 -130 131 -213q87 -87 205 -133q124 -48 266 -48q150 0 283 54q128 52 223 147q89 92 143 234q51 131 51 305q0 167 -45 289q-47 127 -129 215q-86 89 -204 135q-116 45 -267 45q-157 0 -282 -51q-128 -52 -221 -148q-94 -98 -146 -233
q-51 -134 -51 -308zM381 690l-2 -4q0 122 29 223q27 95 77 160q50 62 117 92q70 31 143 31q75 0 148 -31q64 -28 119 -96q51 -63 82 -160q30 -95 30 -225q0 -123 -28 -221q-26 -92 -78 -156q-50 -62 -117 -92q-70 -31 -143 -31q-81 0 -146 33q-68 30 -120 94q-53 65 -80 160
q-31 98 -31 223zM774 1501l-4 4q23 -10 39 -10q34 0 61 27q25 25 25 61q0 28 -25 53l-245 226q-14 10 -25 16q-12 6 -31 6q-26 0 -47 -12q-26 -13 -43 -33t-30 -49t-13 -55q0 -29 13 -49q13 -19 38 -33z" />
    <glyph glyph-name="Oacute" unicode="&#xd3;" horiz-adv-x="1509" 
d="M82 659l-2 -2q0 -166 45 -288q48 -130 131 -213q87 -87 205 -133q124 -48 266 -48q150 0 283 54q128 52 223 147q89 92 143 234q51 131 51 305q0 167 -45 289q-47 127 -129 215q-86 89 -204 135q-116 45 -267 45q-157 0 -282 -51q-128 -52 -221 -148q-94 -98 -146 -233
q-51 -134 -51 -308zM381 690l-2 -4q0 122 29 223q27 95 77 160q50 62 117 92q70 31 143 31q75 0 148 -31q64 -28 119 -96q51 -63 82 -160q30 -95 30 -225q0 -123 -28 -221q-26 -92 -78 -156q-50 -62 -117 -92q-70 -31 -143 -31q-81 0 -146 33q-68 30 -120 94q-53 65 -80 160
q-31 98 -31 223zM647 1632l-4 -6q-25 -25 -25 -53q0 -38 27 -62q24 -24 60 -24q15 0 38 10l287 152q28 16 39 32q12 18 12 50q0 28 -12 55t-31 49q-16 19 -41 33q-24 12 -49 12q-18 0 -30 -6q-11 -5 -25 -16z" />
    <glyph glyph-name="Ocircumflex" unicode="&#xd4;" horiz-adv-x="1509" 
d="M82 659l-2 -2q0 -166 45 -288q48 -130 131 -213q87 -87 205 -133q124 -48 266 -48q150 0 283 54q128 52 223 147q89 92 143 234q51 131 51 305q0 167 -45 289q-47 127 -129 215q-86 89 -204 135q-116 45 -267 45q-157 0 -282 -51q-128 -52 -221 -148q-94 -98 -146 -233
q-51 -134 -51 -308zM381 690l-2 -4q0 122 29 223q27 95 77 160q50 62 117 92q70 31 143 31q75 0 148 -31q64 -28 119 -96q51 -63 82 -160q30 -95 30 -225q0 -123 -28 -221q-26 -92 -78 -156q-50 -62 -117 -92q-70 -31 -143 -31q-81 0 -146 33q-68 30 -120 94q-53 65 -80 160
q-31 98 -31 223zM449 1624h2q-13 -13 -19 -25t-6 -28q0 -33 25 -55q25 -25 57 -25q23 0 43 14l197 127l196 -127q12 -9 25 -12q16 -4 22 -4q41 0 68 27q24 27 24 61q0 27 -22 49l-209 207q-41 41 -92 41t-92 -41z" />
    <glyph glyph-name="Otilde" unicode="&#xd5;" horiz-adv-x="1509" 
d="M82 659l-2 -2q0 -166 45 -288q48 -130 131 -213q87 -87 205 -133q124 -48 266 -48q150 0 283 54q128 52 223 147q89 92 143 234q51 131 51 305q0 167 -45 289q-47 127 -129 215q-86 89 -204 135q-116 45 -267 45q-157 0 -282 -51q-128 -52 -221 -148q-94 -98 -146 -233
q-51 -134 -51 -308zM381 690l-2 -4q0 122 29 223q27 95 77 160q50 62 117 92q70 31 143 31q75 0 148 -31q64 -28 119 -96q51 -63 82 -160q30 -95 30 -225q0 -123 -28 -221q-26 -92 -78 -156q-50 -62 -117 -92q-70 -31 -143 -31q-81 0 -146 33q-68 30 -120 94q-53 65 -80 160
q-31 98 -31 223zM608 1597l-12 -8q28 0 55 -12q5 -3 16 -8t20.5 -10t17.5 -9q33 -18 61 -28q37 -13 80 -13q52 0 102 21q45 16 86 49q38 31 58 63q20 33 20 62q0 39 -25 61q-24 21 -55 21q-22 0 -35 -10q-21 -21 -26 -25q-18 -15 -33 -22q-20 -13 -51 -13q-27 0 -53 13
q-16 8 -52 28q-28 15 -61 27q-34 12 -80 12q-51 0 -98 -18q-45 -16 -84 -47q-37 -30 -58 -64q-22 -36 -22 -61q0 -41 27 -62q23 -20 55 -20q22 0 37 12q21 21 26 25q15 12 33 24t51 12z" />
    <glyph glyph-name="Odieresis" unicode="&#xd6;" horiz-adv-x="1509" 
d="M82 659l-2 -2q0 -166 45 -288q48 -130 131 -213q87 -87 205 -133q124 -48 266 -48q150 0 283 54q128 52 223 147q89 92 143 234q51 131 51 305q0 167 -45 289q-47 127 -129 215q-86 89 -204 135q-116 45 -267 45q-157 0 -282 -51q-128 -52 -221 -148q-94 -98 -146 -233
q-51 -134 -51 -308zM381 690l-2 -4q0 122 29 223q27 95 77 160q50 62 117 92q70 31 143 31q75 0 148 -31q64 -28 119 -96q51 -63 82 -160q30 -95 30 -225q0 -123 -28 -221q-26 -92 -78 -156q-50 -62 -117 -92q-70 -31 -143 -31q-81 0 -146 33q-68 30 -120 94q-53 65 -80 160
q-31 98 -31 223zM375 1645v-5q0 -72 45 -114q43 -43 115 -43q69 0 116 47q45 45 45 117q0 70 -43 116q-43 43 -114 43q-72 0 -117 -45q-47 -47 -47 -116zM817 1640v-4q0 -72 45 -114q43 -43 115 -43q70 0 117 47q45 45 45 116t-43 117q-43 43 -115 43t-117 -45
q-47 -47 -47 -117z" />
    <glyph glyph-name="multiply" unicode="&#xd7;" horiz-adv-x="1085" 
d="M547 719l2 -2l-238 231q-21 21 -41 31q-16 8 -41 8q-38 0 -67 -29t-29 -67q0 -43 39 -82l234 -227l-234 -222q-22 -22 -31 -43q-10 -23 -10 -43q0 -35 29 -61q28 -25 65 -25q39 0 80 35l240 226l237 -230q21 -21 41 -31q16 -8 41 -8q39 0 68 29t29 67q0 43 -39 82
l-234 228l234 221q20 20 30 43q9 21 9 43q0 34 -29 63q-28 25 -66 25q-39 0 -80 -35z" />
    <glyph glyph-name="Oslash" unicode="&#xd8;" horiz-adv-x="1538" 
d="M1079 1042l-2 -2q41 -72 62 -153q22 -90 22 -205q0 -123 -28 -221q-31 -97 -82 -160q-52 -64 -123 -94q-73 -31 -154 -31q-50 0 -86 8q-37 5 -72 23zM508 8l-10 -6q56 -17 108 -25t123 -8q153 0 289 54q134 53 227 151q97 101 148 236q51 131 51 303q0 197 -66 338
q-68 139 -178 221l80 145q20 39 20 74q0 41 -30 68q-29 26 -72 26q-27 0 -49 -16q-26 -16 -43 -49l-86 -156q-57 17 -107 25q-52 8 -122 8q-153 0 -289 -54q-134 -53 -228 -147t-147 -233t-53 -308q0 -203 67 -340q68 -138 176 -221l-79 -143q-10 -25 -13 -37q-6 -15 -6 -35
q0 -24 8 -37q8 -17 25 -30q17 -14 33 -19q18 -6 41 -6q27 0 53 16q25 16 43 50zM446 328v-2q-40 69 -61 153q-23 90 -23 203q0 127 31 225q31 97 82 160t123 98q73 31 154 31q50 0 86 -8q38 -8 71 -25z" />
    <glyph glyph-name="Ugrave" unicode="&#xd9;" horiz-adv-x="1449" 
d="M166 522l-6 2q0 -277 135 -409q135 -135 418 -135q286 0 426 143q141 141 141 434v623l74 26q38 14 61 37q21 21 21 62q0 30 -23 53q-20 20 -65 20h-396q-45 0 -65 -20q-23 -23 -23 -53q0 -40 19 -62t65 -37l82 -26v-654q0 -181 -74 -264q-73 -82 -208 -82
q-136 0 -216 92q-79 91 -79 285v621l82 26q46 15 65 37q18 21 18 62q0 31 -22 53q-20 20 -66 20h-432q-45 0 -65 -20q-23 -23 -23 -53q0 -41 21 -62q23 -23 61 -37l74 -26v-656zM727 1509l-4 4q23 -10 39 -10q34 0 61 27q25 25 25 61q0 29 -25 54l-245 225q-14 11 -25 16
q-12 6 -31 6q-26 0 -47 -12q-26 -13 -43 -33q-19 -22 -31 -49t-12 -55q0 -31 12 -49t39 -33z" />
    <glyph glyph-name="Uacute" unicode="&#xda;" horiz-adv-x="1449" 
d="M166 522l-6 2q0 -277 135 -409q135 -135 418 -135q286 0 426 143q141 141 141 434v623l74 26q38 14 61 37q21 21 21 62q0 30 -23 53q-20 20 -65 20h-396q-45 0 -65 -20q-23 -23 -23 -53q0 -40 19 -62t65 -37l82 -26v-654q0 -181 -74 -264q-73 -82 -208 -82
q-136 0 -216 92q-79 91 -79 285v621l82 26q46 15 65 37q18 21 18 62q0 31 -22 53q-20 20 -66 20h-432q-45 0 -65 -20q-23 -23 -23 -53q0 -41 21 -62q23 -23 61 -37l74 -26v-656zM690 1640l-4 -6q-24 -24 -24 -53q0 -38 26 -61q25 -25 60 -25q15 0 38 10l287 152q27 15 39 33
t12 49q0 28 -12 55t-31 49q-16 19 -41 33q-24 12 -49 12q-18 0 -30 -6q-11 -6 -25 -16z" />
    <glyph glyph-name="Ucircumflex" unicode="&#xdb;" horiz-adv-x="1449" 
d="M166 522l-6 2q0 -277 135 -409q135 -135 418 -135q286 0 426 143q141 141 141 434v623l74 26q38 14 61 37q21 21 21 62q0 30 -23 53q-20 20 -65 20h-396q-45 0 -65 -20q-23 -23 -23 -53q0 -40 19 -62t65 -37l82 -26v-654q0 -181 -74 -264q-73 -82 -208 -82
q-136 0 -216 92q-79 91 -79 285v621l82 26q46 15 65 37q18 21 18 62q0 31 -22 53q-20 20 -66 20h-432q-45 0 -65 -20q-23 -23 -23 -53q0 -41 21 -62q23 -23 61 -37l74 -26v-656zM442 1632h2q-12 -12 -18 -24t-6 -29q0 -34 24 -55q25 -25 58 -25q23 0 43 14l196 127l197 -127
q12 -9 25 -12q16 -4 22 -4q41 0 68 27q24 27 24 61q0 27 -22 49l-209 207q-41 41 -92 41t-92 -41z" />
    <glyph glyph-name="Udieresis" unicode="&#xdc;" horiz-adv-x="1449" 
d="M166 522l-6 2q0 -277 135 -409q135 -135 418 -135q286 0 426 143q141 141 141 434v623l74 26q38 14 61 37q21 21 21 62q0 30 -23 53q-20 20 -65 20h-396q-45 0 -65 -20q-23 -23 -23 -53q0 -40 19 -62t65 -37l82 -26v-654q0 -181 -74 -264q-73 -82 -208 -82
q-136 0 -216 92q-79 91 -79 285v621l82 26q46 15 65 37q18 21 18 62q0 31 -22 53q-20 20 -66 20h-432q-45 0 -65 -20q-23 -23 -23 -53q0 -41 21 -62q23 -23 61 -37l74 -26v-656zM354 1653v-4q0 -73 45 -115q43 -43 115 -43q70 0 117 47q45 45 45 117q0 71 -43 117
q-43 43 -115 43q-71 0 -117 -46q-47 -47 -47 -116zM797 1649v-4q0 -73 45 -115q43 -43 114 -43q70 0 117 47q45 45 45 117q0 70 -43 116q-43 43 -114 43q-72 0 -117 -45q-47 -47 -47 -116z" />
    <glyph glyph-name="Yacute" unicode="&#xdd;" horiz-adv-x="1351" 
d="M532 201l-4 -4l-102 -31q-44 -14 -61 -31q-19 -19 -19 -53q0 -38 27 -62t73 -24h451q47 0 74 24q26 23 26 62q0 34 -16 53q-19 19 -63 33l-103 31v340l387 637l49 20q46 18 68 43q18 24 18 64q0 31 -22 53q-20 20 -66 20h-348q-45 0 -65 -20q-23 -23 -23 -53
q0 -41 21 -62q21 -24 67 -45l43 -18l-225 -408h-4l-236 408l45 18q53 21 74 45q18 24 18 64q0 31 -22 53q-20 20 -66 20h-428q-45 0 -65 -20q-23 -23 -23 -53q0 -40 19 -62q18 -24 65 -45l49 -20l387 -637v-340zM625 1634l-4 -6q-25 -25 -25 -53q0 -38 27 -62q24 -24 59 -24
q16 0 39 10l287 152q28 16 39 32q12 18 12 50q0 28 -12 55t-31 49q-16 19 -41 33q-24 12 -49 12q-19 0 -31 -6q-11 -6 -25 -16z" />
    <glyph glyph-name="Thorn" unicode="&#xde;" horiz-adv-x="1202" 
d="M219 201h-8l-96 -31q-46 -15 -62 -31q-16 -19 -16 -53q0 -38 26 -61q28 -25 74 -25h434q46 0 74 25q27 24 27 61q0 31 -17 51q-15 18 -61 33l-96 31v88h94q130 0 233 35t172 92t107 141q37 81 37 178q0 84 -29 160q-27 70 -86 123q-64 51 -154 78q-88 26 -219 26h-147v60
l90 28q47 15 66 37q18 21 18 58q0 30 -23 53q-20 20 -65 20h-459q-45 0 -65 -20q-23 -23 -23 -53q0 -41 18 -62q19 -22 66 -37l90 -28v-977zM498 471v455h114q110 0 168 -58t58 -166q0 -107 -60 -170q-61 -61 -166 -61h-114z" />
    <glyph glyph-name="germandbls" unicode="&#xdf;" horiz-adv-x="1359" 
d="M211 197l-8 -23l-88 -27q-47 -15 -62 -30q-16 -19 -16 -54q0 -38 26 -61q28 -25 74 -25h348q46 0 74 25q29 26 29 61t-15 56q-16 23 -67 43l-29 12v907q0 89 53 142t142 53q77 0 121 -41q43 -40 43 -105q0 -56 -31 -98q-9 -12 -66 -84q-36 -42 -67 -96q-31 -57 -31 -139
q0 -79 31 -133q30 -56 76 -93q50 -40 98 -65q19 -10 51.5 -27t46.5 -24q38 -19 76 -54q31 -28 31 -67q0 -47 -29 -76q-27 -27 -90 -27q-17 0 -29 3q-10 0 -22 4l-19 6l-20 55q-14 38 -35 59q-19 19 -53 19q-30 0 -52 -19q-21 -18 -24 -57q-2 -14 -2 -43v-43v-14q0 -55 8 -74
q9 -21 25 -37q15 -15 61 -24q47 -13 137 -13q96 0 172 27t129 74q54 48 80 110q27 64 27 137q0 78 -29 138q-27 51 -74 94q-45 42 -94 67q-26 13 -96 52q-47 26 -72 51q-30 27 -30 67q0 48 32 86q40 47 74 86q37 43 74 105q33 56 33 143q0 52 -25 107q-23 50 -74 92
q-47 36 -121 61q-77 25 -170 25q-135 0 -233 -33q-101 -34 -168 -92q-64 -55 -100 -139q-35 -81 -35 -178v-27l-31 -6l-31 -6l-30 -6q-40 -12 -56 -31q-18 -18 -18 -55q0 -36 18 -54q19 -19 58 -28l94 -21v-618z" />
    <glyph glyph-name="agrave" unicode="&#xe0;" horiz-adv-x="1148" 
d="M696 555l-6 -14l-43 6q-17 3 -49 6q-18 2 -61 2q-124 0 -205 -20q-84 -21 -142 -60t-84 -90q-28 -54 -28 -115q0 -60 24 -116q24 -55 70 -95q43 -40 104 -61q64 -25 136 -25q80 0 141 25q56 23 92 51q45 39 66 76l4 -2v-10q0 -66 33 -99q34 -34 104 -34q54 0 109 10
q49 9 90 24q37 14 57 37q18 18 18 53q0 34 -16 56q-15 18 -55 24l-78 13q-9 141 -6 256q2 76 2 233q0 182 -92 268t-312 86q-65 0 -137 -10q-64 -9 -117 -24q-42 -12 -90 -35q-35 -17 -55 -37q-27 -27 -27 -62q0 -36 23 -59q22 -22 55 -22q22 0 43 8q5 1 25 6t33 8
q40 10 79 18q51 7 103 7q105 0 149 -47q43 -46 43 -170v-66zM688 244v2q-22 -22 -49 -37q-23 -17 -55 -25q-34 -12 -76 -12q-64 0 -102 35q-37 34 -37 84q0 52 45 78q48 28 149 28q37 0 53 -2q24 -3 39 -6q18 -3 33 -6v-139zM567 1141l-4 -4q15 -12 29 -19q12 -6 29 -6
q33 0 61 25q25 25 25 59q0 13 -7 27q-2 5 -8 14l-8 12l-176 238q-17 24 -31 35q-18 12 -41 12q-27 0 -51 -12q-26 -13 -47 -31q-20 -17 -33 -43q-12 -24 -12 -49q0 -20 10 -37t31 -35z" />
    <glyph glyph-name="aacute" unicode="&#xe1;" horiz-adv-x="1148" 
d="M696 555l-6 -14l-43 6q-17 3 -49 6q-18 2 -61 2q-124 0 -205 -20q-84 -21 -142 -60t-84 -90q-28 -54 -28 -115q0 -60 24 -116q24 -55 70 -95q43 -40 104 -61q64 -25 136 -25q80 0 141 25q56 23 92 51q45 39 66 76l4 -2v-10q0 -66 33 -99q34 -34 104 -34q54 0 109 10
q49 9 90 24q37 14 57 37q18 18 18 53q0 34 -16 56q-15 18 -55 24l-78 13q-9 141 -6 256q2 76 2 233q0 182 -92 268t-312 86q-65 0 -137 -10q-64 -9 -117 -24q-42 -12 -90 -35q-35 -17 -55 -37q-27 -27 -27 -62q0 -36 23 -59q22 -22 55 -22q22 0 43 8q5 1 25 6t33 8
q40 10 79 18q51 7 103 7q105 0 149 -47q43 -46 43 -170v-66zM688 244v2q-22 -22 -49 -37q-23 -17 -55 -25q-34 -12 -76 -12q-64 0 -102 35q-37 34 -37 84q0 52 45 78q48 28 149 28q37 0 53 -2q24 -3 39 -6q18 -3 33 -6v-139zM477 1253l-8 -12t-8 -14q-6 -12 -6 -27
q0 -36 26 -59q25 -25 58 -25q16 0 28 6q14 7 29 19l233 186q21 18 31 35q8 13 8 37q0 25 -12 49t-33 45q-24 20 -45 31q-24 12 -53 12q-20 0 -37 -10q-19 -13 -35 -35z" />
    <glyph glyph-name="acircumflex" unicode="&#xe2;" horiz-adv-x="1148" 
d="M696 555l-6 -14l-43 6q-17 3 -49 6q-18 2 -61 2q-124 0 -205 -20q-84 -21 -142 -60t-84 -90q-28 -54 -28 -115q0 -60 24 -116q24 -55 70 -95q43 -40 104 -61q64 -25 136 -25q80 0 141 25q56 23 92 51q45 39 66 76l4 -2v-10q0 -66 33 -99q34 -34 104 -34q54 0 109 10
q49 9 90 24q37 14 57 37q18 18 18 53q0 34 -16 56q-15 18 -55 24l-78 13q-9 141 -6 256q2 76 2 233q0 182 -92 268t-312 86q-65 0 -137 -10q-64 -9 -117 -24q-42 -12 -90 -35q-35 -17 -55 -37q-27 -27 -27 -62q0 -36 23 -59q22 -22 55 -22q22 0 43 8q5 1 25 6t33 8
q40 10 79 18q51 7 103 7q105 0 149 -47q43 -46 43 -170v-66zM688 244v2q-22 -22 -49 -37q-23 -17 -55 -25q-34 -12 -76 -12q-64 0 -102 35q-37 34 -37 84q0 52 45 78q48 28 149 28q37 0 53 -2q24 -3 39 -6q18 -3 33 -6v-139zM279 1255l2 -2q-23 -23 -23 -53q0 -26 23 -49
q22 -25 55 -25q12 0 24 4q10 3 23 13l186 129l187 -129q14 -11 24 -13q16 -4 25 -4q34 0 61 27q25 25 25 57q0 29 -21 50l-204 213q-35 38 -84 38q-48 0 -86 -38z" />
    <glyph glyph-name="atilde" unicode="&#xe3;" horiz-adv-x="1148" 
d="M696 555l-6 -14l-43 6q-17 3 -49 6q-18 2 -61 2q-124 0 -205 -20q-84 -21 -142 -60t-84 -90q-28 -54 -28 -115q0 -60 24 -116q24 -55 70 -95q43 -40 104 -61q64 -25 136 -25q80 0 141 25q56 23 92 51q45 39 66 76l4 -2v-10q0 -66 33 -99q34 -34 104 -34q54 0 109 10
q49 9 90 24q37 14 57 37q18 18 18 53q0 34 -16 56q-15 18 -55 24l-78 13q-9 141 -6 256q2 76 2 233q0 182 -92 268t-312 86q-65 0 -137 -10q-64 -9 -117 -24q-42 -12 -90 -35q-35 -17 -55 -37q-27 -27 -27 -62q0 -36 23 -59q22 -22 55 -22q22 0 43 8q5 1 25 6t33 8
q40 10 79 18q51 7 103 7q105 0 149 -47q43 -46 43 -170v-66zM688 244v2q-22 -22 -49 -37q-23 -17 -55 -25q-34 -12 -76 -12q-64 0 -102 35q-37 34 -37 84q0 52 45 78q48 28 149 28q37 0 53 -2q24 -3 39 -6q18 -3 33 -6v-139zM416 1237l-10 -6q27 0 51 -12q8 -4 53 -29
q31 -20 61 -31q35 -12 80 -12q58 0 105 20q43 18 82 52q33 29 55 65q20 33 20 62q0 31 -22 53q-25 22 -57 22q-22 0 -37 -12q-18 -12 -33 -27q-6 -6 -31 -26q-16 -13 -41 -13q-28 0 -49 15q-18 9 -51 31q-22 15 -62 32q-37 13 -79 13q-57 0 -103 -21q-50 -21 -84 -51
q-31 -27 -55 -66q-21 -34 -21 -61q0 -31 25 -53q26 -23 57 -23q23 0 41 12t33 27q11 11 31 27q15 12 41 12z" />
    <glyph glyph-name="adieresis" unicode="&#xe4;" horiz-adv-x="1148" 
d="M696 555l-6 -14l-43 6q-17 3 -49 6q-18 2 -61 2q-124 0 -205 -20q-84 -21 -142 -60t-84 -90q-28 -54 -28 -115q0 -60 24 -116q24 -55 70 -95q43 -40 104 -61q64 -25 136 -25q80 0 141 25q56 23 92 51q45 39 66 76l4 -2v-10q0 -66 33 -99q34 -34 104 -34q54 0 109 10
q49 9 90 24q37 14 57 37q18 18 18 53q0 34 -16 56q-15 18 -55 24l-78 13q-9 141 -6 256q2 76 2 233q0 182 -92 268t-312 86q-65 0 -137 -10q-64 -9 -117 -24q-42 -12 -90 -35q-35 -17 -55 -37q-27 -27 -27 -62q0 -36 23 -59q22 -22 55 -22q22 0 43 8q5 1 25 6t33 8
q40 10 79 18q51 7 103 7q105 0 149 -47q43 -46 43 -170v-66zM688 244v2q-22 -22 -49 -37q-23 -17 -55 -25q-34 -12 -76 -12q-64 0 -102 35q-37 34 -37 84q0 52 45 78q48 28 149 28q37 0 53 -2q24 -3 39 -6q18 -3 33 -6v-139zM190 1284q0 -67 46 -113q45 -45 112 -45t115 48
q47 47 47 114q0 68 -45 113t-113 45q-67 0 -114 -47q-48 -48 -48 -115zM621 1284q0 -68 45 -113t112 -45t115 48q47 47 47 114q0 68 -45 113t-113 45q-67 0 -114 -47t-47 -115z" />
    <glyph glyph-name="aring" unicode="&#xe5;" horiz-adv-x="1148" 
d="M696 555l-6 -14l-43 6q-17 3 -49 6q-18 2 -61 2q-124 0 -205 -20q-84 -21 -142 -60t-84 -90q-28 -54 -28 -115q0 -60 24 -116q24 -55 70 -95q43 -40 104 -61q64 -25 136 -25q80 0 141 25q56 23 92 51q45 39 66 76l4 -2v-10q0 -66 33 -99q34 -34 104 -34q54 0 109 10
q49 9 90 24q37 14 57 37q18 18 18 53q0 34 -16 56q-15 18 -55 24l-78 13q-9 141 -6 256q2 76 2 233q0 182 -92 268t-312 86q-65 0 -137 -10q-64 -9 -117 -24q-42 -12 -90 -35q-35 -17 -55 -37q-27 -27 -27 -62q0 -36 23 -59q22 -22 55 -22q22 0 43 8q5 1 25 6t33 8
q40 10 79 18q51 7 103 7q105 0 149 -47q43 -46 43 -170v-66zM688 244v2q-22 -22 -49 -37q-23 -17 -55 -25q-34 -12 -76 -12q-64 0 -102 35q-37 34 -37 84q0 52 45 78q48 28 149 28q37 0 53 -2q24 -3 39 -6q18 -3 33 -6v-139zM293 1339q0 -110 76 -174q75 -63 198 -63
q63 0 115 18t88 51q39 31 59 76q21 47 21 101q0 110 -76 174q-75 63 -199 63q-59 0 -112 -18q-50 -17 -90 -49q-36 -29 -58 -78t-22 -101zM473 1343q0 45 29 74t69 29q43 0 72 -29q27 -27 27 -74q0 -46 -27 -73q-29 -29 -72 -29q-40 0 -69 29t-29 73z" />
    <glyph glyph-name="ae" unicode="&#xe6;" horiz-adv-x="1701" 
d="M729 264v-4q-25 -25 -49 -41q-24 -15 -59 -24q-41 -13 -86 -13q-76 0 -117 35t-41 84q0 52 45 78q50 29 149 29q42 0 58 -2t41 -7q19 -3 32 -6q3 -29 9 -49q3 -10 8 -43q9 -30 10 -37zM698 551l-14 -10l-43 6q-18 3 -49 6q-18 2 -62 2q-236 0 -348 -80
q-110 -79 -110 -207q0 -60 24 -116q24 -55 70 -95t110 -61q67 -25 148 -25q90 0 158 27q60 21 112 55q45 31 66 58l22 24q64 -79 162 -121q101 -43 246 -43q133 0 221 31q82 29 119 66q15 15 24 30q7 18 7 37q0 33 -19 55q-19 19 -51 19q-19 0 -37 -6q-27 -9 -43 -13
q-23 -6 -59 -12q-34 -6 -80 -6q-138 0 -215 74t-92 211h501q69 0 105 39q37 40 37 116q0 207 -107 314q-108 108 -301 108q-64 0 -117 -12q-46 -10 -92 -31q-33 -15 -67 -41q-31 -24 -50 -43q-11 25 -34 51q-22 25 -56 43q-35 18 -86 27q-47 8 -127 8q-65 0 -137 -10
q-58 -8 -117 -25q-47 -14 -90 -34q-35 -17 -55 -37q-27 -27 -27 -62q0 -36 23 -59t55 -23q19 0 43 9q5 1 25 6t33 8q40 11 79 18q51 7 103 7q104 0 149 -48q43 -46 43 -170v-65zM963 608h-2q15 108 67 166q54 60 131 60q73 0 121 -54q46 -52 49 -172h-366z" />
    <glyph glyph-name="ccedilla" unicode="&#xe7;" horiz-adv-x="974" 
d="M717 709l-6 -13q14 -38 37 -61q21 -21 55 -21t55 21q22 19 25 61q2 31 2 68v49v18q0 72 -6 99q-6 26 -23 43q-27 27 -80 45q-52 18 -147 18q-120 0 -223 -41t-173 -114q-73 -73 -114 -183q-41 -109 -41 -235q0 -110 31 -195q32 -90 81 -145q49 -58 119 -92
q68 -35 146 -47l-43 -170q-9 -23 4 -39q12 -15 33 -15q41 0 61 -14t20 -39q0 -29 -20 -43q-22 -16 -70 -16q-27 0 -37 2h-32q-31 0 -47 -19q-19 -19 -19 -45q0 -33 31 -55q31 -25 113 -25q79 0 147 19q62 17 111 49q42 29 67 74t25 88q0 88 -62 135q-59 45 -145 51l14 58
q39 3 80 12q39 6 74 18q17 7 57 29q27 15 43 31q31 31 31 69q0 34 -19 56q-18 18 -51 18q-10 0 -30 -4q-23 -8 -39 -10q-31 -9 -50 -11q-27 -6 -63 -6q-130 0 -201 80q-73 79 -73 246q0 179 71 262q70 82 172 82q21 0 29 -2t20 -6l19 -6z" />
    <glyph glyph-name="egrave" unicode="&#xe8;" horiz-adv-x="1089" 
d="M862 465l-6 2q69 0 105 39t36 117q0 207 -106 313q-108 108 -301 108q-120 0 -209 -38q-95 -40 -162 -111q-66 -69 -104 -172q-37 -104 -37 -236q0 -119 35 -215t98 -159q64 -64 160 -99q93 -34 215 -34q136 0 221 30q82 29 119 66q15 15 24 30q6 15 6 37q0 35 -18 56
q-18 18 -51 18q-19 0 -37 -6q-15 -5 -43 -12q-36 -9 -59 -13q-34 -6 -80 -6q-138 0 -215 74q-78 75 -93 211h502zM358 625h-2q15 107 68 166t131 59q74 0 121 -53q46 -52 49 -172h-367zM545 1155l-4 -4q13 -11 28 -18q14 -7 29 -7q33 0 61 25q25 25 25 59q0 15 -6 27
q-1 2 -16 27l-177 237q-18 26 -30 35q-18 12 -41 12q-28 0 -52 -12q-26 -13 -47 -31q-18 -16 -32 -43q-13 -26 -13 -49q0 -19 11 -37q11 -19 30 -35z" />
    <glyph glyph-name="eacute" unicode="&#xe9;" horiz-adv-x="1089" 
d="M862 465l-6 2q69 0 105 39t36 117q0 207 -106 313q-108 108 -301 108q-120 0 -209 -38q-95 -40 -162 -111q-66 -69 -104 -172q-37 -104 -37 -236q0 -119 35 -215t98 -159q64 -64 160 -99q93 -34 215 -34q136 0 221 30q82 29 119 66q15 15 24 30q6 15 6 37q0 35 -18 56
q-18 18 -51 18q-19 0 -37 -6q-15 -5 -43 -12q-36 -9 -59 -13q-34 -6 -80 -6q-138 0 -215 74q-78 75 -93 211h502zM358 625h-2q15 107 68 166t131 59q74 0 121 -53q46 -52 49 -172h-367zM438 1268q-15 -25 -16 -27q-6 -12 -6 -27q0 -36 26 -59q25 -25 58 -25q14 0 28 7
q17 9 29 18l234 186q19 16 30 35q8 13 8 37q0 25 -12 49t-33 45q-24 20 -45 31q-24 12 -53 12q-20 0 -37 -10q-19 -13 -35 -35z" />
    <glyph glyph-name="ecircumflex" unicode="&#xea;" horiz-adv-x="1089" 
d="M862 465l-6 2q69 0 105 39t36 117q0 207 -106 313q-108 108 -301 108q-120 0 -209 -38q-95 -40 -162 -111q-66 -69 -104 -172q-37 -104 -37 -236q0 -119 35 -215t98 -159q64 -64 160 -99q93 -34 215 -34q136 0 221 30q82 29 119 66q15 15 24 30q6 15 6 37q0 35 -18 56
q-18 18 -51 18q-19 0 -37 -6q-15 -5 -43 -12q-36 -9 -59 -13q-34 -6 -80 -6q-138 0 -215 74q-78 75 -93 211h502zM358 625h-2q15 107 68 166t131 59q74 0 121 -53q46 -52 49 -172h-367zM260 1270l2 -2q-22 -22 -22 -54q0 -27 22 -49q21 -24 55 -24q13 0 25 4q13 4 23 12
l186 129l186 -129q11 -9 25 -12q16 -4 24 -4q36 0 62 26q24 24 24 58q0 29 -20 49l-205 213q-36 39 -84 39q-47 0 -86 -39z" />
    <glyph glyph-name="edieresis" unicode="&#xeb;" horiz-adv-x="1089" 
d="M862 465l-6 2q69 0 105 39t36 117q0 207 -106 313q-108 108 -301 108q-120 0 -209 -38q-95 -40 -162 -111q-66 -69 -104 -172q-37 -104 -37 -236q0 -119 35 -215t98 -159q64 -64 160 -99q93 -34 215 -34q136 0 221 30q82 29 119 66q15 15 24 30q6 15 6 37q0 35 -18 56
q-18 18 -51 18q-19 0 -37 -6q-15 -5 -43 -12q-36 -9 -59 -13q-34 -6 -80 -6q-138 0 -215 74q-78 75 -93 211h502zM358 625h-2q15 107 68 166t131 59q74 0 121 -53q46 -52 49 -172h-367zM184 1298q0 -67 45 -112t113 -45t115 47t47 115q0 67 -45 112t-113 45t-115 -47
t-47 -115zM614 1298q0 -67 45 -112t113 -45t115 47t47 115q0 67 -45 112t-113 45q-67 0 -114 -47q-48 -48 -48 -115z" />
    <glyph glyph-name="igrave" unicode="&#xec;" horiz-adv-x="669" 
d="M211 197v-2l-88 -27q-46 -15 -62 -31q-16 -19 -16 -53q0 -37 27 -61q28 -25 73 -25h396q46 0 73 27t27 67q0 32 -14 49q-17 20 -56 29l-84 25v677q0 95 -32 127q-33 33 -127 33q-66 0 -115 -8q-62 -10 -98 -20q-40 -12 -56 -31q-18 -18 -18 -55q0 -36 18 -54
q19 -19 58 -28l94 -21v-618zM344 1151l-6 -4q15 -12 29 -19q12 -6 28 -6q34 0 62 25q24 24 24 59q0 15 -6 27q-1 2 -16 27l-176 237q-17 24 -31 35q-18 12 -41 12q-27 0 -51 -12q-21 -11 -45 -31q-20 -17 -33 -43q-12 -24 -12 -49q0 -20 10 -37t31 -35z" />
    <glyph glyph-name="iacute" unicode="&#xed;" horiz-adv-x="669" 
d="M211 197v-2l-88 -27q-46 -15 -62 -31q-16 -19 -16 -53q0 -37 27 -61q28 -25 73 -25h396q46 0 73 27t27 67q0 32 -14 49q-17 20 -56 29l-84 25v677q0 95 -32 127q-33 33 -127 33q-66 0 -115 -8q-62 -10 -98 -20q-40 -12 -56 -31q-18 -18 -18 -55q0 -36 18 -54
q19 -19 58 -28l94 -21v-618zM219 1264q-15 -25 -16 -27q-6 -12 -6 -27q0 -36 26 -59q25 -25 58 -25q14 0 28 7q17 9 29 18l233 186q21 18 31 35q8 13 8 37q0 25 -12 49t-33 45q-24 20 -45 31q-24 12 -53 12q-20 0 -37 -10q-19 -13 -35 -35z" />
    <glyph glyph-name="icircumflex" unicode="&#xee;" horiz-adv-x="669" 
d="M211 197v-2l-88 -27q-46 -15 -62 -31q-16 -19 -16 -53q0 -37 27 -61q28 -25 73 -25h396q46 0 73 27t27 67q0 32 -14 49q-17 20 -56 29l-84 25v677q0 95 -32 127q-33 33 -127 33q-66 0 -115 -8q-62 -10 -98 -20q-40 -12 -56 -31q-18 -18 -18 -55q0 -36 18 -54
q19 -19 58 -28l94 -21v-618zM49 1266v2q-22 -22 -22 -54t24 -53q25 -22 51 -22q24 0 50 16l178 133l178 -133q22 -16 49 -16q34 0 61 24q25 25 25 58q0 29 -20 49l-195 213q-33 39 -86 39q-50 0 -86 -39z" />
    <glyph glyph-name="idieresis" unicode="&#xef;" horiz-adv-x="669" 
d="M211 197v-2l-88 -27q-46 -15 -62 -31q-16 -19 -16 -53q0 -37 27 -61q28 -25 73 -25h396q46 0 73 27t27 67q0 32 -14 49q-17 20 -56 29l-84 25v677q0 95 -32 127q-33 33 -127 33q-66 0 -115 -8q-62 -10 -98 -20q-40 -12 -56 -31q-18 -18 -18 -55q0 -36 18 -54
q19 -19 58 -28l94 -21v-618zM-8 1294h-2q0 -69 43 -112t106 -43q66 0 111 45q43 46 43 116q0 69 -41 113q-43 43 -109 43t-108 -45q-43 -46 -43 -117zM387 1294h-2q0 -69 43 -112t107 -43q65 0 110 45q43 46 43 116q0 69 -41 113q-43 43 -108 43q-67 0 -109 -45
q-43 -46 -43 -117z" />
    <glyph glyph-name="eth" unicode="&#xf0;" horiz-adv-x="1181" 
d="M791 797l-7 -4q5 -30 15 -76q7 -37 12 -80q6 -46 6 -98q0 -106 -14 -172q-15 -70 -43 -115q-31 -45 -70 -62q-40 -18 -90 -18q-46 0 -90 23q-44 21 -74 65q-32 46 -49 105q-18 61 -18 139q0 164 71 244q70 79 183 79q29 0 69 -4q37 -7 53 -12q10 -4 46 -14zM907 1399
l-12 -23q35 27 35 62q0 33 -25 61q-25 25 -63 25q-28 0 -56 -19l-139 -100q-66 34 -123 47q-69 16 -127 16q-77 0 -116 -26q-43 -27 -43 -74q0 -34 18 -49q20 -20 53 -23q36 -2 80 -10q35 -7 60 -18l-107 -76q-37 -27 -37 -66q0 -33 29 -59q28 -25 61 -25q25 0 54 19
l151 110q37 -37 64 -79q33 -50 49 -93l-4 -4q-8 3 -25 6q-24 6 -29 7h-37q-129 0 -227 -39q-101 -40 -172 -111q-72 -69 -113 -172q-38 -96 -38 -227q0 -103 30 -191t92 -153q60 -66 150 -107q85 -39 209 -39q122 0 217 39q97 40 168 117q69 74 110 194q39 113 39 271
q0 138 -24 252q-23 110 -66 207q-44 93 -92 161q-49 67 -98 113z" />
    <glyph glyph-name="ntilde" unicode="&#xf1;" horiz-adv-x="1327" 
d="M211 197l-2 -2l-88 -27q-46 -15 -62 -31q-16 -19 -16 -53q0 -37 27 -61q28 -25 73 -25h394q45 0 73 25q27 24 27 61q0 34 -16 53q-14 17 -60 33l-74 25v538q22 25 50 47q30 23 61 35q35 14 82 14q94 0 143 -55t49 -194v-385l-73 -25q-46 -16 -60 -33q-16 -19 -16 -53
q0 -37 27 -61q28 -25 73 -25h381q46 0 74 25q27 24 27 61q0 33 -17 53q-15 18 -59 33l-78 25v450q0 191 -96 295q-94 98 -275 98q-95 0 -151 -26q-59 -26 -99 -58q-43 -37 -67 -84l-4 2v27q0 71 -31 102t-109 31q-57 0 -106 -8q-62 -10 -98 -20q-40 -12 -56 -31
q-18 -18 -18 -55q0 -36 18 -54q19 -19 58 -28l94 -21v-618zM500 1247l-11 -6q28 0 52 -12q8 -4 53 -29q31 -20 61 -31q35 -12 80 -12q55 0 105 21q46 19 82 51q33 29 55 65q20 33 20 62q0 31 -22 53q-26 23 -57 23q-21 0 -37 -13q-21 -14 -33 -26q-11 -11 -31 -27
q-15 -12 -41 -12q-29 0 -49 14q-18 9 -51 31q-26 17 -62 33q-35 12 -79 12q-57 0 -103 -21q-50 -21 -84 -51q-33 -29 -55 -65q-21 -35 -21 -62q0 -31 25 -53q26 -23 57 -23q22 0 41 13q21 14 33 26q11 11 31 27q15 12 41 12z" />
    <glyph glyph-name="ograve" unicode="&#xf2;" horiz-adv-x="1208" 
d="M82 481l2 -2q0 -239 131 -370q134 -134 363 -134q124 0 227 41q100 40 172 115q69 72 110 178q37 104 37 230q0 241 -131 372t-362 131q-127 0 -223 -38q-100 -40 -172 -115q-72 -72 -113 -176q-41 -106 -41 -232zM371 512l-9 -2q0 174 68 254t166 80q48 0 94 -21
q41 -20 76 -61q31 -44 51 -107q19 -68 19 -151q0 -174 -66 -252q-68 -80 -166 -80q-48 0 -92 21q-46 22 -74 63q-33 47 -49 106q-18 64 -18 150zM573 1149l-4 -4q15 -12 29 -19q12 -6 29 -6q33 0 61 25q25 25 25 59q0 15 -6 27q-2 4 -8 13t-9 13l-176 238q-17 24 -31 35
q-18 12 -41 12q-27 0 -51 -12q-26 -13 -47 -31q-20 -17 -33 -43q-12 -24 -12 -49q0 -20 10 -37t31 -35z" />
    <glyph glyph-name="oacute" unicode="&#xf3;" horiz-adv-x="1208" 
d="M82 481l2 -2q0 -239 131 -370q134 -134 363 -134q124 0 227 41q100 40 172 115q69 72 110 178q37 104 37 230q0 241 -131 372t-362 131q-127 0 -223 -38q-100 -40 -172 -115q-72 -72 -113 -176q-41 -106 -41 -232zM371 512l-9 -2q0 174 68 254t166 80q48 0 94 -21
q41 -20 76 -61q31 -44 51 -107q19 -68 19 -151q0 -174 -66 -252q-68 -80 -166 -80q-48 0 -92 21q-46 22 -74 63q-33 47 -49 106q-18 64 -18 150zM475 1262q-15 -25 -16 -27q-6 -12 -6 -27q0 -36 26 -59q25 -25 58 -25q16 0 28 6q14 7 29 19l233 186q21 18 31 35q8 13 8 37
q0 25 -12 49t-33 45q-24 20 -45 31q-24 12 -53 12q-20 0 -37 -10q-19 -13 -35 -35z" />
    <glyph glyph-name="ocircumflex" unicode="&#xf4;" horiz-adv-x="1208" 
d="M82 481l2 -2q0 -239 131 -370q134 -134 363 -134q124 0 227 41q100 40 172 115q69 72 110 178q37 104 37 230q0 241 -131 372t-362 131q-127 0 -223 -38q-100 -40 -172 -115q-72 -72 -113 -176q-41 -106 -41 -232zM371 512l-9 -2q0 174 68 254t166 80q48 0 94 -21
q41 -20 76 -61q31 -44 51 -107q19 -68 19 -151q0 -174 -66 -252q-68 -80 -166 -80q-48 0 -92 21q-46 22 -74 63q-33 47 -49 106q-18 64 -18 150zM303 1264l2 -2q-22 -22 -22 -54q0 -27 22 -49q21 -24 55 -24q13 0 25 4q13 4 23 12l186 129l186 -129q12 -9 25 -12
q16 -4 24 -4q36 0 62 26q24 24 24 58q0 29 -20 49l-205 213q-36 39 -84 39q-47 0 -86 -39z" />
    <glyph glyph-name="otilde" unicode="&#xf5;" horiz-adv-x="1208" 
d="M82 481l2 -2q0 -239 131 -370q134 -134 363 -134q124 0 227 41q100 40 172 115q69 72 110 178q37 104 37 230q0 241 -131 372t-362 131q-127 0 -223 -38q-100 -40 -172 -115q-72 -72 -113 -176q-41 -106 -41 -232zM371 512l-9 -2q0 174 68 254t166 80q48 0 94 -21
q41 -20 76 -61q31 -44 51 -107q19 -68 19 -151q0 -174 -66 -252q-68 -80 -166 -80q-48 0 -92 21q-46 22 -74 63q-33 47 -49 106q-18 64 -18 150zM453 1245l-11 -6q28 0 52 -12q8 -4 53 -29q31 -20 61 -31q35 -12 80 -12q56 0 105 21q44 19 81 51q35 30 56 65q20 33 20 62
q0 31 -22 53q-26 23 -58 23q-20 0 -36 -13q-21 -14 -33 -26q-11 -11 -31 -27q-15 -12 -41 -12q-29 0 -49 14q-18 9 -51 31q-26 17 -62 33q-35 12 -80 12q-55 0 -102 -21q-49 -21 -84 -51q-33 -29 -55 -65q-21 -35 -21 -62q0 -31 25 -53q26 -23 57 -23q21 0 41 13
q21 14 33 26q11 11 31 27q15 12 41 12z" />
    <glyph glyph-name="odieresis" unicode="&#xf6;" horiz-adv-x="1208" 
d="M82 481l2 -2q0 -239 131 -370q134 -134 363 -134q124 0 227 41q100 40 172 115q69 72 110 178q37 104 37 230q0 241 -131 372t-362 131q-127 0 -223 -38q-100 -40 -172 -115q-72 -72 -113 -176q-41 -106 -41 -232zM371 512l-9 -2q0 174 68 254t166 80q48 0 94 -21
q41 -20 76 -61q31 -44 51 -107q19 -68 19 -151q0 -174 -66 -252q-68 -80 -166 -80q-48 0 -92 21q-46 22 -74 63q-33 47 -49 106q-18 64 -18 150zM221 1292q0 -67 45 -112t113 -45t115 47t47 114q0 68 -45 113t-113 45t-115 -47t-47 -115zM651 1292q0 -67 45 -112t113 -45
t115 47t47 114q0 68 -45 113t-113 45t-115 -47t-47 -115z" />
    <glyph glyph-name="divide" unicode="&#xf7;" horiz-adv-x="1085" 
d="M188 682h-2q-42 0 -69 -27t-27 -73q0 -47 27 -74t69 -27h707q47 0 74 27q24 27 24 74q0 46 -24 73t-72 27h-707zM401 930q0 -58 41 -99q40 -40 99 -40q58 0 98 40q39 39 39 99q0 59 -39 98t-98 39q-60 0 -99 -39q-41 -41 -41 -98zM401 238q0 -58 41 -99t99 -41
q57 0 98 41q39 39 39 99q0 59 -39 98t-98 39q-60 0 -99 -39q-41 -41 -41 -98z" />
    <glyph glyph-name="oslash" unicode="&#xf8;" horiz-adv-x="1216" 
d="M412 -2l-11 -6q35 -9 80 -12q51 -7 90 -7q125 0 228 41q101 40 176 115q71 71 112 178q39 101 39 230q0 125 -36 223q-37 97 -123 174l63 106q27 44 27 76q0 38 -29 64q-30 24 -65 24q-58 0 -95 -63l-71 -121q-45 12 -76 16q-43 6 -90 6q-132 0 -228 -38
q-100 -40 -172 -115q-70 -70 -112 -176q-41 -106 -41 -232q0 -123 37 -221q37 -97 123 -174l-64 -106q-27 -47 -27 -80q0 -37 31 -62q30 -24 70 -24q52 0 92 63zM379 315l-4 -2q-15 35 -21 84t-6 109q0 85 19 153q19 67 51 105q34 40 80 61q49 19 98 19q21 0 49 -4
q21 -3 41 -13zM813 690h-4q17 -38 25 -84q6 -50 6 -108q0 -177 -70 -256q-71 -80 -172 -80q-49 0 -92 16z" />
    <glyph glyph-name="ugrave" unicode="&#xf9;" horiz-adv-x="1292" 
d="M174 362l-8 -10q0 -192 94 -286q97 -97 270 -97q92 0 154 27q63 24 98 57q44 38 68 84l4 -2v-26q0 -66 33 -99q35 -35 104 -35q45 0 105 11q50 9 90 24q37 14 57 37q19 19 19 53t-17 54q-14 17 -55 26l-84 15v673q0 94 -33 127t-127 33q-66 0 -115 -8q-53 -9 -98 -21
q-40 -12 -55 -30q-19 -19 -19 -56q0 -34 19 -53q21 -21 57 -29l94 -20v-530q-23 -30 -49 -50q-22 -16 -61 -32q-37 -15 -84 -15q-91 0 -139 54q-47 53 -47 184v446q0 94 -33 127t-127 33q-58 0 -107 -8q-40 -6 -92 -19q-40 -12 -55 -30q-19 -19 -19 -56q0 -34 19 -53
q20 -20 57 -28l82 -19v-453zM565 1143l-4 -4q15 -12 29 -19q12 -6 28 -6q34 0 62 25q25 25 25 59q0 13 -7 27q-2 5 -8 14l-8 12l-176 238q-17 24 -31 35q-18 12 -41 12q-27 0 -51 -12q-26 -13 -47 -31q-20 -17 -33 -43q-12 -24 -12 -49q0 -20 10 -37t31 -35z" />
    <glyph glyph-name="uacute" unicode="&#xfa;" horiz-adv-x="1292" 
d="M174 362l-8 -10q0 -192 94 -286q97 -97 270 -97q92 0 154 27q63 24 98 57q44 38 68 84l4 -2v-26q0 -66 33 -99q35 -35 104 -35q45 0 105 11q50 9 90 24q37 14 57 37q19 19 19 53t-17 54q-14 17 -55 26l-84 15v673q0 94 -33 127t-127 33q-66 0 -115 -8q-53 -9 -98 -21
q-40 -12 -55 -30q-19 -19 -19 -56q0 -34 19 -53q21 -21 57 -29l94 -20v-530q-23 -30 -49 -50q-22 -16 -61 -32q-37 -15 -84 -15q-91 0 -139 54q-47 53 -47 184v446q0 94 -33 127t-127 33q-58 0 -107 -8q-40 -6 -92 -19q-40 -12 -55 -30q-19 -19 -19 -56q0 -34 19 -53
q20 -20 57 -28l82 -19v-453zM516 1255l-8 -12t-8 -14q-6 -12 -6 -27q0 -36 26 -59q25 -25 58 -25q16 0 28 6q14 7 29 19l233 186q21 18 31 35q8 13 8 37q0 25 -12 49t-33 45q-24 20 -45 31q-24 12 -53 12q-20 0 -37 -10q-19 -13 -35 -35z" />
    <glyph glyph-name="ucircumflex" unicode="&#xfb;" horiz-adv-x="1292" 
d="M174 362l-8 -10q0 -192 94 -286q97 -97 270 -97q92 0 154 27q63 24 98 57q44 38 68 84l4 -2v-26q0 -66 33 -99q35 -35 104 -35q45 0 105 11q50 9 90 24q37 14 57 37q19 19 19 53t-17 54q-14 17 -55 26l-84 15v673q0 94 -33 127t-127 33q-66 0 -115 -8q-53 -9 -98 -21
q-40 -12 -55 -30q-19 -19 -19 -56q0 -34 19 -53q21 -21 57 -29l94 -20v-530q-23 -30 -49 -50q-22 -16 -61 -32q-37 -15 -84 -15q-91 0 -139 54q-47 53 -47 184v446q0 94 -33 127t-127 33q-58 0 -107 -8q-40 -6 -92 -19q-40 -12 -55 -30q-19 -19 -19 -56q0 -34 19 -53
q20 -20 57 -28l82 -19v-453zM319 1257l3 -2q-23 -23 -23 -53q0 -26 23 -49q22 -25 55 -25q9 0 24 5q13 4 23 12l186 129l187 -129q12 -9 24 -12q20 -5 25 -5q34 0 61 27q25 25 25 57q0 29 -21 50l-204 213q-35 38 -84 38q-48 0 -86 -38z" />
    <glyph glyph-name="udieresis" unicode="&#xfc;" horiz-adv-x="1292" 
d="M174 362l-8 -10q0 -192 94 -286q97 -97 270 -97q92 0 154 27q63 24 98 57q44 38 68 84l4 -2v-26q0 -66 33 -99q35 -35 104 -35q45 0 105 11q50 9 90 24q37 14 57 37q19 19 19 53t-17 54q-14 17 -55 26l-84 15v673q0 94 -33 127t-127 33q-66 0 -115 -8q-53 -9 -98 -21
q-40 -12 -55 -30q-19 -19 -19 -56q0 -34 19 -53q21 -21 57 -29l94 -20v-530q-23 -30 -49 -50q-22 -16 -61 -32q-37 -15 -84 -15q-91 0 -139 54q-47 53 -47 184v446q0 94 -33 127t-127 33q-58 0 -107 -8q-40 -6 -92 -19q-40 -12 -55 -30q-19 -19 -19 -56q0 -34 19 -53
q20 -20 57 -28l82 -19v-453zM227 1286q0 -67 45 -112q46 -46 113 -46t115 48q47 47 47 114q0 68 -45 113t-113 45t-115 -47t-47 -115zM657 1286q0 -67 45 -112q46 -46 113 -46t115 48q47 47 47 114q0 68 -45 113t-113 45q-67 0 -114 -47q-48 -48 -48 -115z" />
    <glyph glyph-name="yacute" unicode="&#xfd;" horiz-adv-x="1222" 
d="M494 -57l-11 -11q-15 -32 -43 -79q-19 -32 -47 -56q-23 -20 -53 -30q-32 -13 -68 -13q-23 0 -51 4q-23 3 -37 9q-10 4 -30 8q-10 2 -37 2q-42 0 -68 -33q-31 -36 -31 -92q0 -67 50 -105q48 -36 137 -36q69 0 143 24q73 24 150 92q77 70 151 187q80 125 154 313l282 692
l35 15q49 19 66 45q18 27 18 63q0 33 -22 55q-21 21 -66 21h-299q-44 0 -65 -21q-23 -23 -23 -55q0 -33 19 -55q20 -23 67 -43l35 -17l-148 -391q-16 -43 -24 -74q-16 -46 -21 -61q-9 -30 -18 -57h-4q-2 6 -6 17.5t-7 21t-6 18.5q-10 29 -18 61q-6 22 -25 74l-149 395l35 17
q47 20 67 43q19 22 19 55q0 32 -23 55q-21 21 -65 21h-353q-44 0 -65 -21q-23 -23 -23 -55q0 -34 19 -63q18 -27 65 -45l35 -15zM557 1255l-8 -12t-8 -14q-6 -12 -6 -27q0 -36 26 -59q25 -25 57 -25q17 0 29 6q14 7 29 19l233 186q21 18 31 35q8 13 8 37q0 25 -12 49t-33 45
q-24 20 -45 31q-24 12 -53 12q-20 0 -37 -10q-19 -13 -35 -35z" />
    <glyph glyph-name="thorn" unicode="&#xfe;" horiz-adv-x="1134" 
d="M84 -272l-2 -7l-84 -26q-39 -11 -55 -31q-17 -20 -17 -53q0 -38 27 -62t74 -24h397q47 0 74 24q26 23 26 62q0 34 -16 53q-15 18 -62 33l-88 27v153v60q0 17 -4 45l4 4q10 -2 31 -6q25 -5 37 -5h45q142 0 246 39q107 40 180 113t113 180q39 104 39 242q0 248 -109 369
q-106 118 -289 118q-82 0 -143 -22q-54 -19 -92 -49q-43 -37 -68 -74l-4 2q8 53 10 86q4 62 4 86v256q0 95 -32 127q-33 33 -127 33q-58 0 -107 -8q-40 -6 -92 -19q-39 -11 -55 -31q-19 -19 -19 -55q0 -34 19 -53q21 -21 57 -29l82 -18v-1540zM360 729l-2 -2q22 25 50 47
q30 23 61 35q35 14 82 14q89 0 151 -71q62 -74 62 -242q0 -187 -68 -264q-68 -80 -182 -80q-41 0 -68 6q-34 8 -49 14q-23 10 -37 21v522z" />
    <glyph glyph-name="ydieresis" unicode="&#xff;" horiz-adv-x="1222" 
d="M494 -57l-11 -11q-15 -32 -43 -79q-19 -32 -47 -56q-23 -20 -53 -30q-32 -13 -68 -13q-23 0 -51 4q-23 3 -37 9q-10 4 -30 8q-10 2 -37 2q-42 0 -68 -33q-31 -36 -31 -92q0 -67 50 -105q48 -36 137 -36q69 0 143 24q73 24 150 92q77 70 151 187q80 125 154 313l282 692
l35 15q49 19 66 45q18 27 18 63q0 33 -22 55q-21 21 -66 21h-299q-44 0 -65 -21q-23 -23 -23 -55q0 -33 19 -55q20 -23 67 -43l35 -17l-148 -391q-16 -43 -24 -74q-16 -46 -21 -61q-9 -30 -18 -57h-4q-2 6 -6 17.5t-7 21t-6 18.5q-10 29 -18 61q-6 22 -25 74l-149 395l35 17
q47 20 67 43q19 22 19 55q0 32 -23 55q-21 21 -65 21h-353q-44 0 -65 -21q-23 -23 -23 -55q0 -34 19 -63q18 -27 65 -45l35 -15zM260 1286q0 -67 45 -112q46 -46 113 -46q66 0 114 48t48 114q0 68 -45 113t-113 45t-115 -47t-47 -115zM690 1286q0 -67 45 -112
q46 -46 113 -46t115 48q47 47 47 114q0 68 -45 113t-113 45t-115 -47t-47 -115z" />
    <glyph glyph-name="Amacron" unicode="&#x100;" horiz-adv-x="1484" 
d="M150 201l6 -6l-58 -25q-43 -18 -59 -37t-16 -53q0 -39 26 -62q27 -24 74 -24h323q47 0 74 24t27 62q0 34 -19 53q-18 18 -61 33l-61 24l61 177h516l59 -177l-61 -24q-41 -14 -61 -31q-19 -19 -19 -53q0 -38 27 -62t73 -24h373q47 0 74 24t27 62q0 33 -17 53
q-16 19 -59 37l-58 25l-368 1020q-15 42 -39 81q-21 30 -49 52q-24 16 -62 26q-31 8 -78 8q-44 0 -75 -8q-38 -10 -62 -26q-26 -18 -49 -50q-21 -31 -39 -79zM526 547l2 -4l125 362q2 4 31 84q3 11 11.5 36t11.5 38q9 37 18 72h4q1 -5 8 -31t11 -41q3 -10 6.5 -22t8 -27.5
t7.5 -24.5q11 -35 27 -80l127 -362h-398zM516 1737v-2q-57 0 -86 -29q-29 -32 -29 -82q0 -38 23 -61t68 -23h514q58 0 86 31t28 82q0 39 -22 61q-23 23 -68 23h-514z" />
    <glyph glyph-name="amacron" unicode="&#x101;" horiz-adv-x="1148" 
d="M696 555l-6 -14l-43 6q-17 3 -49 6q-18 2 -61 2q-124 0 -205 -20q-84 -21 -142 -60t-84 -90q-28 -54 -28 -115q0 -60 24 -116q24 -55 70 -95q43 -40 104 -61q64 -25 136 -25q80 0 141 25q56 23 92 51q45 39 66 76l4 -2v-10q0 -66 33 -99q34 -34 104 -34q54 0 109 10
q49 9 90 24q37 14 57 37q18 18 18 53q0 34 -16 56q-15 18 -55 24l-78 13q-9 141 -6 256q2 76 2 233q0 182 -92 268t-312 86q-65 0 -137 -10q-64 -9 -117 -24q-42 -12 -90 -35q-35 -17 -55 -37q-27 -27 -27 -62q0 -36 23 -59q22 -22 55 -22q22 0 43 8q5 1 25 6t33 8
q40 10 79 18q51 7 103 7q105 0 149 -47q43 -46 43 -170v-66zM688 244v2q-22 -22 -49 -37q-23 -17 -55 -25q-34 -12 -76 -12q-64 0 -102 35q-37 34 -37 84q0 52 45 78q48 28 149 28q37 0 53 -2q24 -3 39 -6q18 -3 33 -6v-139zM332 1384v2q-59 0 -86 -30q-29 -32 -29 -82
q0 -39 23 -62q22 -22 67 -22h506q58 0 86 31q29 32 29 82q0 38 -23 61q-20 20 -67 20h-506z" />
    <glyph glyph-name="Abreve" unicode="&#x102;" horiz-adv-x="1484" 
d="M150 201l6 -6l-58 -25q-43 -18 -59 -37t-16 -53q0 -39 26 -62q27 -24 74 -24h323q47 0 74 24t27 62q0 34 -19 53q-18 18 -61 33l-61 24l61 177h516l59 -177l-61 -24q-41 -14 -61 -31q-19 -19 -19 -53q0 -38 27 -62t73 -24h373q47 0 74 24t27 62q0 33 -17 53
q-16 19 -59 37l-58 25l-368 1020q-15 42 -39 81q-21 30 -49 52q-24 16 -62 26q-31 8 -78 8q-44 0 -75 -8q-38 -10 -62 -26q-26 -18 -49 -50q-21 -31 -39 -79zM526 547l2 -4l125 362q2 4 31 84q3 11 11.5 36t11.5 38q9 37 18 72h4q1 -5 8 -31t11 -41q3 -10 6.5 -22t8 -27.5
t7.5 -24.5q11 -35 27 -80l127 -362h-398zM440 1761l2 -2q0 -53 23 -110q20 -50 61 -88q40 -37 99 -58q58 -22 123 -22q70 0 129 20q59 17 106 55q48 39 74 89q26 51 26 116q0 46 -22 68q-25 22 -64 22q-29 0 -49 -14q-21 -15 -30 -55q-9 -47 -50 -74q-44 -29 -104 -29
q-62 0 -105 29q-44 27 -53 74q-9 39 -31 55q-20 14 -49 14q-39 0 -61 -22q-25 -22 -25 -68z" />
    <glyph glyph-name="abreve" unicode="&#x103;" horiz-adv-x="1148" 
d="M696 555l-6 -14l-43 6q-17 3 -49 6q-18 2 -61 2q-124 0 -205 -20q-84 -21 -142 -60t-84 -90q-28 -54 -28 -115q0 -60 24 -116q24 -55 70 -95q43 -40 104 -61q64 -25 136 -25q80 0 141 25q56 23 92 51q45 39 66 76l4 -2v-10q0 -66 33 -99q34 -34 104 -34q54 0 109 10
q49 9 90 24q37 14 57 37q18 18 18 53q0 34 -16 56q-15 18 -55 24l-78 13q-9 141 -6 256q2 76 2 233q0 182 -92 268t-312 86q-65 0 -137 -10q-64 -9 -117 -24q-42 -12 -90 -35q-35 -17 -55 -37q-27 -27 -27 -62q0 -36 23 -59q22 -22 55 -22q22 0 43 8q5 1 25 6t33 8
q40 10 79 18q51 7 103 7q105 0 149 -47q43 -46 43 -170v-66zM688 244v2q-22 -22 -49 -37q-23 -17 -55 -25q-34 -12 -76 -12q-64 0 -102 35q-37 34 -37 84q0 52 45 78q48 28 149 28q37 0 53 -2q24 -3 39 -6q18 -3 33 -6v-139zM258 1407l-6 -6q0 -62 22 -117q21 -52 62 -90
q43 -40 94 -59q61 -23 119 -23q63 0 127 23q58 21 104 61q43 37 70 90q27 52 27 117q0 44 -23 67q-24 21 -59 21q-29 0 -47 -12q-20 -13 -29 -54q-9 -56 -47 -86t-105 -30q-68 0 -106 32q-40 30 -49 86q-9 41 -27 56q-18 12 -47 12q-35 0 -55 -20q-25 -22 -25 -68z" />
    <glyph glyph-name="Aogonek" unicode="&#x104;" horiz-adv-x="1484" 
d="M150 201l2 -13l-58 -24q-43 -18 -59 -37q-17 -20 -17 -53q0 -38 27 -62t74 -24h323q47 0 74 24t27 62q0 34 -19 53q-18 18 -61 33l-62 24l62 176h516l59 -176l-61 -24q-42 -15 -62 -31q-18 -18 -18 -53q0 -38 27 -62t73 -24h95q-24 -14 -68 -53q-32 -28 -61 -68t-43 -78
q-19 -43 -19 -84q0 -91 64 -149q66 -60 186 -60q76 0 143 25t99 57q26 26 26 62q0 24 -14 41q-15 18 -43 18q-19 0 -25 -2l-18 -6q-7 -3 -25 -6q-10 -2 -37 -2q-41 0 -65 24q-25 25 -25 76t33 104q29 54 88 107h86q47 0 74 24t27 62q0 33 -17 53q-16 19 -59 37l-58 25
l-368 1020q-15 42 -39 81q-21 30 -49 52q-24 16 -62 26q-31 8 -78 8q-44 0 -75 -8q-38 -10 -62 -26q-26 -18 -49 -50q-21 -31 -39 -79zM522 541l2 -4l125 362q1 4 31 84q3 9 7.5 24.5t8 27.5t6.5 22q3 14 10 39t9 32h4q12 -46 18 -71q3 -13 11.5 -38t11.5 -36q11 -35 27 -80
l127 -362h-398z" />
    <glyph glyph-name="aogonek" unicode="&#x105;" horiz-adv-x="1148" 
d="M696 555l-6 -16l-43 6q-17 3 -49 6q-18 2 -61 2q-119 0 -205 -21t-142 -59q-58 -39 -84 -90q-28 -54 -28 -115q0 -60 24 -116q24 -55 70 -95q43 -40 104 -61q64 -25 136 -25q80 0 141 25q56 23 92 51q45 39 66 76l4 -2v-10q0 -53 18 -80q20 -29 51 -43q-25 -13 -79 -49
q-39 -29 -68 -66q-32 -40 -49 -78q-19 -43 -19 -86q0 -91 64 -149q66 -60 186 -60q77 0 144 25q65 24 98 57q26 26 26 62q0 24 -14 41q-15 18 -43 18q-18 0 -24 -2l-19 -6q-9 -3 -24 -6q-10 -2 -37 -2q-42 0 -66 24t-24 76q0 39 18 74q17 33 49 65q31 31 70 51q43 24 78 37
q37 14 57 37q18 18 18 53q0 34 -16 56q-15 18 -55 24l-78 13q-9 141 -6 256q2 76 2 233q0 182 -92 268t-312 86q-65 0 -137 -10q-64 -9 -117 -24q-42 -12 -90 -35q-35 -17 -55 -37q-27 -27 -27 -62q0 -36 23 -59q22 -22 55 -22q22 0 43 8q5 1 25 6t33 8q40 10 79 18
q51 7 103 7q105 0 149 -47q43 -46 43 -170v-66zM688 242v2q-22 -22 -49 -37q-23 -17 -55 -25q-34 -12 -76 -12q-64 0 -102 35q-37 34 -37 84q0 52 45 78q48 28 149 28q37 0 53 -2q24 -3 39 -6q18 -3 33 -6v-139z" />
    <glyph glyph-name="Cacute" unicode="&#x106;" horiz-adv-x="1218" 
d="M944 987l-8 -8q12 -40 37 -59t57 -19q39 0 60 21q21 18 24 61q2 27 2 70v75v29v68q0 19 -4 43q-2 15 -10 30q-6 12 -17 23q-34 34 -104 55q-78 19 -186 19q-153 0 -289 -54q-135 -57 -227 -153q-96 -100 -148 -238q-55 -137 -55 -307q0 -159 45 -278q47 -124 129 -209
q81 -84 199 -131q113 -45 260 -45q77 0 141 12q70 13 113 26q40 12 81 37q31 16 50 35q14 14 24 31q6 15 6 37q0 40 -18 61q-19 19 -53 19q-15 0 -39 -7q-8 -2 -27.5 -8t-25.5 -8q-22 -7 -72 -14q-43 -6 -101 -6q-95 0 -163 32q-74 30 -127 92q-55 61 -86 152t-31 209
q0 119 29 221q28 97 79 160q50 58 123 94q73 31 154 31q39 0 53 -2q25 -4 37 -6q5 -2 16 -6t15 -5zM588 1630l-4 -6q-25 -25 -25 -53q0 -38 27 -62q24 -24 59 -24q16 0 39 10l287 152q28 16 39 32q12 18 12 50q0 28 -12 55t-31 49q-16 19 -41 33q-24 12 -49 12q-19 0 -31 -6
q-4 -2 -24 -17z" />
    <glyph glyph-name="cacute" unicode="&#x107;" horiz-adv-x="974" 
d="M717 709l-4 -4q15 -40 37 -62q20 -20 55 -20t55 20q22 19 25 62q2 31 2 67v49v19q0 71 -6 98q-6 26 -23 43q-27 27 -80 45q-52 18 -147 18q-122 0 -223 -40q-100 -40 -172 -115q-75 -75 -115 -182q-41 -109 -41 -236q0 -231 129 -360t354 -129q62 0 103 8q53 10 86 20
q30 10 65 29q27 15 43 31q31 31 31 69q0 34 -19 56q-18 18 -51 18q-10 0 -30 -4q-23 -8 -39 -10q-31 -9 -50 -11q-27 -6 -63 -6q-130 0 -201 80q-73 79 -73 246q0 179 71 262q70 82 172 82q21 0 29 -2t20 -6l19 -6zM438 1262q-15 -25 -16 -27q-6 -12 -6 -27q0 -36 26 -59
q25 -25 58 -25q16 0 28 6q14 7 29 19l234 186q19 16 30 35q8 13 8 37q0 25 -12 49t-33 45q-24 20 -45 31q-24 12 -53 12q-20 0 -37 -10q-19 -13 -35 -35z" />
    <glyph glyph-name="Ccircumflex" unicode="&#x108;" horiz-adv-x="1218" 
d="M944 987l-8 -8q12 -40 37 -59t57 -19q39 0 60 21q21 18 24 61q2 27 2 70v75v29v68q0 19 -4 43q-2 15 -10 30q-6 12 -17 23q-34 34 -104 55q-78 19 -186 19q-153 0 -289 -54q-135 -57 -227 -153q-96 -100 -148 -238q-55 -137 -55 -307q0 -159 45 -278q47 -124 129 -209
q81 -84 199 -131q113 -45 260 -45q77 0 141 12q70 13 113 26q40 12 81 37q31 16 50 35q14 14 24 31q6 15 6 37q0 40 -18 61q-19 19 -53 19q-15 0 -39 -7q-8 -2 -27.5 -8t-25.5 -8q-22 -7 -72 -14q-43 -6 -101 -6q-95 0 -163 32q-74 30 -127 92q-55 61 -86 152t-31 209
q0 119 29 221q28 97 79 160q50 58 123 94q73 31 154 31q39 0 53 -2q25 -4 37 -6q5 -2 16 -6t15 -5zM426 1622h2q-11 -11 -18 -25t-7 -28q0 -34 25 -56q24 -24 57 -24q23 0 43 14l197 127l197 -127q12 -9 24 -12q16 -4 23 -4q41 0 67 26q25 28 25 62q0 26 -23 49l-209 207
q-41 41 -92 41t-92 -41z" />
    <glyph glyph-name="ccircumflex" unicode="&#x109;" horiz-adv-x="974" 
d="M717 709l-4 -4q15 -40 37 -62q20 -20 55 -20t55 20q22 19 25 62q2 31 2 67v49v19q0 71 -6 98q-6 26 -23 43q-27 27 -80 45q-52 18 -147 18q-122 0 -223 -40q-100 -40 -172 -115q-75 -75 -115 -182q-41 -109 -41 -236q0 -231 129 -360t354 -129q62 0 103 8q53 10 86 20
q30 10 65 29q27 15 43 31q31 31 31 69q0 34 -19 56q-18 18 -51 18q-10 0 -30 -4q-23 -8 -39 -10q-31 -9 -50 -11q-27 -6 -63 -6q-130 0 -201 80q-73 79 -73 246q0 179 71 262q70 82 172 82q21 0 29 -2t20 -6l19 -6zM268 1264l2 -2q-22 -22 -22 -54q0 -27 22 -49
q21 -24 56 -24q12 0 24 4q13 4 23 12l186 129l186 -129q11 -9 25 -12q16 -4 25 -4q35 0 61 26q25 25 25 58q0 28 -21 49l-205 213q-36 39 -84 39q-47 0 -86 -39z" />
    <glyph glyph-name="Cdotaccent" unicode="&#x10a;" horiz-adv-x="1218" 
d="M944 987l-8 -8q12 -40 37 -59t57 -19q39 0 60 21q21 18 24 61q2 27 2 70v75v29v68q0 19 -4 43q-2 15 -10 30q-6 12 -17 23q-34 34 -104 55q-78 19 -186 19q-153 0 -289 -54q-135 -57 -227 -153q-96 -100 -148 -238q-55 -137 -55 -307q0 -159 45 -278q47 -124 129 -209
q81 -84 199 -131q113 -45 260 -45q77 0 141 12q70 13 113 26q40 12 81 37q31 16 50 35q14 14 24 31q6 15 6 37q0 40 -18 61q-19 19 -53 19q-15 0 -39 -7q-8 -2 -27.5 -8t-25.5 -8q-22 -7 -72 -14q-43 -6 -101 -6q-95 0 -163 32q-74 30 -127 92q-55 61 -86 152t-31 209
q0 119 29 221q28 97 79 160q50 58 123 94q73 31 154 31q39 0 53 -2q25 -4 37 -6q5 -2 16 -6t15 -5zM561 1642v-4q0 -72 45 -114q43 -43 115 -43q70 0 117 47q45 45 45 117q0 70 -43 116q-43 43 -115 43t-117 -45q-47 -47 -47 -117z" />
    <glyph glyph-name="cdotaccent" unicode="&#x10b;" horiz-adv-x="974" 
d="M717 709l-4 -4q15 -40 37 -62q20 -20 55 -20t55 20q22 19 25 62q2 31 2 67v49v19q0 71 -6 98q-6 26 -23 43q-27 27 -80 45q-52 18 -147 18q-122 0 -223 -40q-100 -40 -172 -115q-75 -75 -115 -182q-41 -109 -41 -236q0 -231 129 -360t354 -129q62 0 103 8q53 10 86 20
q30 10 65 29q27 15 43 31q31 31 31 69q0 34 -19 56q-18 18 -51 18q-10 0 -30 -4q-23 -8 -39 -10q-31 -9 -50 -11q-27 -6 -63 -6q-130 0 -201 80q-73 79 -73 246q0 179 71 262q70 82 172 82q21 0 29 -2t20 -6l19 -6zM403 1292q0 -66 46 -112q45 -45 112 -45q68 0 115 47
t47 114q0 68 -45 113t-113 45q-67 0 -114 -47q-48 -48 -48 -115z" />
    <glyph glyph-name="Ccaron" unicode="&#x10c;" horiz-adv-x="1218" 
d="M944 987l-8 -8q12 -40 37 -59t57 -19q39 0 60 21q21 18 24 61q2 27 2 70v75v29v68q0 19 -4 43q-2 15 -10 30q-6 12 -17 23q-34 34 -104 55q-78 19 -186 19q-153 0 -289 -54q-135 -57 -227 -153q-96 -100 -148 -238q-55 -137 -55 -307q0 -159 45 -278q47 -124 129 -209
q81 -84 199 -131q113 -45 260 -45q77 0 141 12q70 13 113 26q40 12 81 37q31 16 50 35q14 14 24 31q6 15 6 37q0 40 -18 61q-19 19 -53 19q-15 0 -39 -7q-8 -2 -27.5 -8t-25.5 -8q-22 -7 -72 -14q-43 -6 -101 -6q-95 0 -163 32q-74 30 -127 92q-55 61 -86 152t-31 209
q0 119 29 221q28 97 79 160q50 58 123 94q73 31 154 31q39 0 53 -2q25 -4 37 -6q5 -2 16 -6t15 -5zM608 1524h-4q41 -41 92 -41t92 41l220 209q12 12 18 24t6 29q0 32 -22 57q-25 25 -60 25q-22 0 -43 -15l-196 -127l-197 127q-14 10 -25 13q-8 2 -22 2q-42 0 -66 -27
t-24 -61q0 -27 22 -49z" />
    <glyph glyph-name="ccaron" unicode="&#x10d;" horiz-adv-x="974" 
d="M717 709l-4 -4q15 -40 37 -62q20 -20 55 -20t55 20q22 19 25 62q2 31 2 67v49v19q0 71 -6 98q-6 26 -23 43q-27 27 -80 45q-52 18 -147 18q-122 0 -223 -40q-100 -40 -172 -115q-75 -75 -115 -182q-41 -109 -41 -236q0 -231 129 -360t354 -129q62 0 103 8q53 10 86 20
q30 10 65 29q27 15 43 31q31 31 31 69q0 34 -19 56q-18 18 -51 18q-10 0 -30 -4q-23 -8 -39 -10q-31 -9 -50 -11q-27 -6 -63 -6q-130 0 -201 80q-73 79 -73 246q0 179 71 262q70 82 172 82q21 0 29 -2t20 -6l19 -6zM469 1163l-4 -2q36 -39 84 -39q47 0 86 39l217 217
q22 22 22 54q0 28 -22 53q-21 24 -55 24q-13 0 -25 -4q-11 -4 -22 -12l-187 -129l-186 129q-11 9 -25 12q-16 4 -24 4q-36 0 -60 -24t-24 -60q0 -29 20 -49z" />
    <glyph glyph-name="Dcaron" unicode="&#x10e;" horiz-adv-x="1458" 
d="M219 201l-4 -2l-96 -31q-46 -15 -62 -31q-16 -19 -16 -53q0 -37 27 -61q28 -25 73 -25h441q195 0 338 51q142 51 247 148q102 94 154 229q51 131 51 301q0 157 -43 279q-42 119 -133 204q-86 80 -225 125q-133 43 -320 43h-518q-45 0 -65 -20q-23 -23 -23 -53
q0 -41 18 -62q19 -22 66 -37l90 -28v-977zM502 201l-2 -2v972h112q227 0 342 -118q117 -120 117 -363q0 -244 -119 -366q-120 -123 -338 -123h-112zM588 1528h-4q41 -41 92 -41t92 41l219 209q14 14 19 24q6 12 6 29q0 31 -23 57q-25 25 -59 25q-23 0 -43 -14l-197 -127
l-196 127q-12 9 -25 12q-8 2 -23 2q-41 0 -65 -27q-25 -28 -25 -61q0 -26 23 -49z" />
    <glyph glyph-name="dcaron" unicode="&#x10f;" horiz-adv-x="1495" 
d="M772 1139l-6 -11q0 -41 2 -55q0 -33 2 -47l-4 -4q-15 3 -33 6q-5 1 -35 6q-12 2 -43 2q-141 0 -245 -39q-114 -43 -183 -112q-71 -71 -112 -180q-39 -104 -39 -242q0 -249 108 -369q109 -121 289 -121q93 0 154 27q63 24 98 57q44 38 68 84l4 -2v-26q0 -67 32 -99
q34 -34 105 -34q49 0 104 10q50 9 90 24q39 14 58 37q18 18 18 53t-16 54q-14 17 -55 26l-84 15v1126q0 94 -33 127t-127 33q-66 0 -115 -8q-53 -9 -98 -21q-39 -11 -55 -31q-19 -19 -19 -55q0 -34 19 -53q21 -21 57 -29l94 -20v-129zM766 274v-4q-21 -28 -49 -49
q-22 -16 -60 -33q-35 -14 -84 -14q-88 0 -147 74q-61 73 -61 241q0 188 67 267q68 80 182 80q34 0 66 -7q34 -8 49 -14q25 -10 37 -18v-523zM1153 1208l-4 -4q-2 -6 -2 -14v-14q0 -29 24 -50q23 -20 58 -20q25 0 43 12q17 11 26 33l144 276q12 24 12 43q0 25 -12 43
q-11 16 -31 33q-19 16 -43 25q-24 6 -49 6q-41 0 -68 -18q-28 -19 -34 -54z" />
    <glyph glyph-name="Dcroat" unicode="&#x110;" horiz-adv-x="1515" 
d="M559 201l-2 -2v411h172q55 0 86 31t31 80q0 82 -92 82h-195v375h115q229 0 346 -117t117 -367q0 -248 -119 -370q-120 -123 -344 -123h-115zM270 199l-4 -2l-96 -31q-44 -14 -61 -31q-17 -20 -17 -53q0 -38 27 -62t74 -24h444q195 0 338 51q144 51 248 148
q100 93 153 229q51 131 51 301q0 157 -43 279q-42 119 -133 204q-86 80 -225 125q-133 43 -319 43h-523q-45 0 -65 -20q-23 -23 -23 -53q0 -40 19 -62t65 -37l90 -28v-375h-92q-55 0 -84 -29q-31 -31 -31 -80q0 -82 93 -82h114v-411z" />
    <glyph glyph-name="dcroat" unicode="&#x111;" horiz-adv-x="1245" 
d="M772 285h-2q-21 -28 -49 -49q-23 -17 -59 -33q-38 -15 -84 -15q-90 0 -148 70q-61 70 -61 217q0 166 67 242t185 76q33 0 65 -7q34 -8 49 -14q26 -11 37 -20v-467zM772 1061l-10 -8q0 -25 2 -41q0 -31 2 -43l-4 -4q-12 3 -37 6q-13 3 -37 6q-14 2 -49 2q-134 0 -238 -37
q-106 -38 -176 -108q-71 -68 -112 -172q-39 -98 -39 -228q0 -230 108 -344q108 -117 289 -117q93 0 154 27q63 24 98 57q44 38 68 84l4 -2v-26q0 -67 32 -99q34 -34 105 -34q49 0 104 10q50 9 90 24q39 14 58 37q18 18 18 53t-16 54q-14 17 -56 26l-83 15v860h73q57 0 84 24
t27 62q0 39 -21 57q-22 19 -67 19h-96v104q0 94 -33 127t-127 33q-66 0 -115 -8q-53 -9 -98 -21q-38 -11 -56 -29t-18 -51q0 -32 18 -47t58 -24l96 -21v-61h-215q-54 0 -82 -25q-29 -26 -29 -63q0 -38 21 -56t68 -18h237z" />
    <glyph glyph-name="Emacron" unicode="&#x112;" horiz-adv-x="1196" 
d="M219 201l-6 -4l-96 -31q-46 -15 -62 -31q-16 -19 -16 -53q0 -38 27 -62t73 -24h842q40 0 61 8q22 8 39 25t23 41t6 84v34v31v25v26v31q-3 42 -25 64q-21 18 -59 18q-35 0 -59 -18q-25 -19 -37 -60l-35 -110h-393v407h272l21 -51q15 -40 36 -55q19 -19 52 -19q34 0 57 23
q21 21 21 67v252q0 47 -21 68q-20 20 -57 20q-35 0 -52 -14q-20 -16 -34 -55l-21 -54h-272v400h366l33 -101q15 -41 39 -59t57 -18q40 0 60 20q21 18 24 61q2 23 2 56v53v25q0 60 -6 84q-6 25 -22 41q-14 14 -37 24q-21 8 -62 8h-825q-45 0 -65 -20q-23 -23 -23 -53
q0 -41 18 -62q19 -22 66 -37l90 -28v-977zM358 1743v-2q-57 0 -86 -29q-28 -31 -28 -82q0 -39 22 -61q23 -23 68 -23h514q58 0 86 31q29 32 29 82q0 38 -23 61t-68 23h-514z" />
    <glyph glyph-name="emacron" unicode="&#x113;" horiz-adv-x="1089" 
d="M862 465l-6 2q69 0 105 39t36 117q0 207 -106 313q-108 108 -301 108q-120 0 -209 -38q-95 -40 -162 -111q-66 -69 -104 -172q-37 -104 -37 -236q0 -119 35 -215t98 -159q64 -64 160 -99q93 -34 215 -34q136 0 221 30q82 29 119 66q15 15 24 30q6 15 6 37q0 35 -18 56
q-18 18 -51 18q-19 0 -37 -6q-15 -5 -43 -12q-36 -9 -59 -13q-34 -6 -80 -6q-138 0 -215 74q-78 75 -93 211h502zM358 625h-2q15 107 68 166t131 59q74 0 121 -53q46 -52 49 -172h-367zM309 1399v2q-58 0 -86 -31t-28 -82q0 -39 22 -61q23 -23 68 -23h506q58 0 86 31t28 82
q0 39 -22 61q-21 21 -68 21h-506z" />
    <glyph glyph-name="Ebreve" unicode="&#x114;" horiz-adv-x="1196" 
d="M219 201l-6 -4l-96 -31q-46 -15 -62 -31q-16 -19 -16 -53q0 -38 27 -62t73 -24h842q40 0 61 8q22 8 39 25t23 41t6 84v34v31v25v26v31q-3 42 -25 64q-21 18 -59 18q-35 0 -59 -18q-25 -19 -37 -60l-35 -110h-393v407h272l21 -51q15 -40 36 -55q19 -19 52 -19q34 0 57 23
q21 21 21 67v252q0 47 -21 68q-20 20 -57 20q-35 0 -52 -14q-20 -16 -34 -55l-21 -54h-272v400h366l33 -101q15 -41 39 -59t57 -18q40 0 60 20q21 18 24 61q2 23 2 56v53v25q0 60 -6 84q-6 25 -22 41q-14 14 -37 24q-21 8 -62 8h-825q-45 0 -65 -20q-23 -23 -23 -53
q0 -41 18 -62q19 -22 66 -37l90 -28v-977zM281 1767l2 -2q0 -55 22 -110q19 -49 62 -88q40 -37 98 -58q58 -22 123 -22q70 0 129 20q57 17 106 56q49 40 74 88q27 53 27 116q0 45 -23 68q-26 23 -63 23q-29 0 -50 -15t-30 -55q-9 -47 -49 -74q-42 -28 -105 -28
q-62 0 -104 28q-45 28 -54 74q-9 40 -30 55t-49 15q-39 0 -62 -23q-24 -21 -24 -68z" />
    <glyph glyph-name="ebreve" unicode="&#x115;" horiz-adv-x="1089" 
d="M862 465l-6 2q69 0 105 39t36 117q0 207 -106 313q-108 108 -301 108q-120 0 -209 -38q-95 -40 -162 -111q-66 -69 -104 -172q-37 -104 -37 -236q0 -119 35 -215t98 -159q64 -64 160 -99q93 -34 215 -34q136 0 221 30q82 29 119 66q15 15 24 30q6 15 6 37q0 35 -18 56
q-18 18 -51 18q-19 0 -37 -6q-15 -5 -43 -12q-36 -9 -59 -13q-34 -6 -80 -6q-138 0 -215 74q-78 75 -93 211h502zM358 625h-2q15 107 68 166t131 59q74 0 121 -53q46 -52 49 -172h-367zM236 1421l-7 -6q0 -59 23 -117q21 -53 61 -90q42 -39 95 -59q61 -23 118 -23
q63 0 127 23q59 21 105 61q41 35 69 90q27 52 27 117q0 45 -23 68q-23 20 -59 20q-29 0 -47 -12q-20 -13 -29 -53q-9 -56 -47 -86q-39 -31 -104 -31q-68 0 -107 33q-40 30 -49 86q-9 40 -27 55q-18 12 -47 12q-35 0 -55 -20q-24 -21 -24 -68z" />
    <glyph glyph-name="Edotaccent" unicode="&#x116;" horiz-adv-x="1196" 
d="M219 201l-6 -4l-96 -31q-46 -15 -62 -31q-16 -19 -16 -53q0 -38 27 -62t73 -24h842q40 0 61 8q22 8 39 25t23 41t6 84v34v31v25v26v31q-3 42 -25 64q-21 18 -59 18q-35 0 -59 -18q-25 -19 -37 -60l-35 -110h-393v407h272l21 -51q15 -40 36 -55q19 -19 52 -19q34 0 57 23
q21 21 21 67v252q0 47 -21 68q-20 20 -57 20q-35 0 -52 -14q-20 -16 -34 -55l-21 -54h-272v400h366l33 -101q15 -41 39 -59t57 -18q40 0 60 20q21 18 24 61q2 23 2 56v53v25q0 60 -6 84q-6 25 -22 41q-14 14 -37 24q-21 8 -62 8h-825q-45 0 -65 -20q-23 -23 -23 -53
q0 -41 18 -62q19 -22 66 -37l90 -28v-977zM434 1647v-5q0 -72 45 -114q43 -43 115 -43q70 0 117 47q45 45 45 117q0 70 -43 116q-43 43 -115 43t-117 -45q-47 -47 -47 -116z" />
    <glyph glyph-name="edotaccent" unicode="&#x117;" horiz-adv-x="1089" 
d="M862 465l-6 2q69 0 105 39t36 117q0 207 -106 313q-108 108 -301 108q-120 0 -209 -38q-95 -40 -162 -111q-66 -69 -104 -172q-37 -104 -37 -236q0 -119 35 -215t98 -159q64 -64 160 -99q93 -34 215 -34q136 0 221 30q82 29 119 66q15 15 24 30q6 15 6 37q0 35 -18 56
q-18 18 -51 18q-19 0 -37 -6q-15 -5 -43 -12q-36 -9 -59 -13q-34 -6 -80 -6q-138 0 -215 74q-78 75 -93 211h502zM358 625h-2q15 107 68 166t131 59q74 0 121 -53q46 -52 49 -172h-367zM385 1298q0 -67 45 -112t113 -45q67 0 114 47q48 48 48 115q0 66 -46 112
q-45 45 -112 45q-68 0 -115 -47t-47 -115z" />
    <glyph glyph-name="Eogonek" unicode="&#x118;" horiz-adv-x="1196" 
d="M219 201l-10 -17l-96 -30q-46 -15 -62 -31q-16 -19 -16 -53q0 -39 26 -62q27 -24 74 -24h666q-35 -13 -80 -43q-34 -23 -74 -66q-34 -37 -55 -80t-21 -90q0 -91 64 -149q66 -60 186 -60q77 0 144 25q65 24 98 57q27 27 27 62q0 23 -15 41t-43 18q-18 0 -24 -2l-19 -6
q-9 -3 -24 -6q-10 -2 -37 -2q-42 0 -66 24t-24 76q0 37 14 65q17 34 43 60q29 32 61 53q45 28 82 43q23 10 37 21q13 13 21 26q9 14 12 41q2 16 2 62v34v31v25v26v31q-3 42 -25 64q-21 18 -59 18q-35 0 -59 -18q-25 -19 -37 -60l-35 -110h-393v407h272l21 -51q15 -40 36 -55
q19 -19 52 -19q34 0 57 23q21 21 21 67v252q0 47 -21 68q-20 20 -57 20q-35 0 -52 -14q-20 -16 -34 -55l-21 -54h-272v400h366l33 -101q15 -41 39 -59t57 -18q40 0 60 20q21 18 24 61q2 23 2 56v53v25q0 60 -6 84q-6 25 -22 41q-14 14 -37 24q-21 8 -62 8h-825
q-45 0 -65 -20q-23 -23 -23 -53q0 -41 18 -62q19 -22 66 -37l90 -28v-977z" />
    <glyph glyph-name="eogonek" unicode="&#x119;" horiz-adv-x="1089" 
d="M365 623h-3q15 106 68 165q54 60 131 60q74 0 121 -53q46 -52 49 -172h-366zM860 465l-10 -4q68 0 104 39q37 40 37 116q0 208 -106 314q-108 108 -301 108q-118 0 -209 -39q-96 -41 -162 -110t-104 -172q-37 -104 -37 -236q0 -122 34 -215q35 -96 99 -160
q62 -62 160 -98q96 -35 215 -35h6h6h6q-32 -24 -53 -45q-36 -33 -56 -61q-27 -39 -40 -74q-19 -43 -19 -82q0 -91 64 -149q66 -60 186 -60q76 0 143 25t99 57q26 26 26 62q0 24 -14 41q-15 18 -43 18q-19 0 -25 -2l-18 -6q-8 -3 -25 -6q-10 -2 -37 -2q-41 0 -65 24
q-25 25 -25 76q0 24 13 61q12 29 36 64q21 30 62 68q32 29 86 67q35 22 49 47q12 21 12 47q0 35 -18 56q-18 18 -51 18q-19 0 -37 -6q-15 -5 -43 -12q-34 -8 -60 -13q-35 -6 -79 -6q-138 0 -215 74q-78 75 -93 211h502z" />
    <glyph glyph-name="Ecaron" unicode="&#x11a;" horiz-adv-x="1196" 
d="M219 201l-6 -4l-96 -31q-46 -15 -62 -31q-16 -19 -16 -53q0 -38 27 -62t73 -24h842q40 0 61 8q22 8 39 25t23 41t6 84v34v31v25v26v31q-3 42 -25 64q-21 18 -59 18q-35 0 -59 -18q-25 -19 -37 -60l-35 -110h-393v407h272l21 -51q15 -40 36 -55q19 -19 52 -19q34 0 57 23
q21 21 21 67v252q0 47 -21 68q-20 20 -57 20q-35 0 -52 -14q-20 -16 -34 -55l-21 -54h-272v400h366l33 -101q15 -41 39 -59t57 -18q40 0 60 20q21 18 24 61q2 23 2 56v53v25q0 60 -6 84q-6 25 -22 41q-14 14 -37 24q-21 8 -62 8h-825q-45 0 -65 -20q-23 -23 -23 -53
q0 -41 18 -62q19 -22 66 -37l90 -28v-977zM502 1528h-4q41 -41 92 -41t92 41l219 209q14 14 19 24q6 12 6 29q0 31 -23 57q-25 25 -59 25q-23 0 -43 -14l-197 -127l-196 127q-12 9 -25 12q-8 2 -23 2q-41 0 -65 -27q-25 -28 -25 -61q0 -26 23 -49z" />
    <glyph glyph-name="ecaron" unicode="&#x11b;" horiz-adv-x="1089" 
d="M862 465l-6 2q69 0 105 39t36 117q0 207 -106 313q-108 108 -301 108q-120 0 -209 -38q-95 -40 -162 -111q-66 -69 -104 -172q-37 -104 -37 -236q0 -119 35 -215t98 -159q64 -64 160 -99q93 -34 215 -34q136 0 221 30q82 29 119 66q15 15 24 30q6 15 6 37q0 35 -18 56
q-18 18 -51 18q-19 0 -37 -6q-15 -5 -43 -12q-36 -9 -59 -13q-34 -6 -80 -6q-138 0 -215 74q-78 75 -93 211h502zM358 625h-2q15 107 68 166t131 59q74 0 121 -53q46 -52 49 -172h-367zM453 1169l-4 -2q36 -39 83 -39t86 39l218 217q22 22 22 54q0 28 -22 53t-56 25
q-9 0 -24 -5q-13 -4 -23 -12l-186 -129l-187 129q-12 9 -24 12q-20 5 -25 5q-34 0 -59 -25t-25 -59q0 -29 21 -50z" />
    <glyph glyph-name="Gcircumflex" unicode="&#x11c;" horiz-adv-x="1390" 
d="M1051 985l-11 -6q15 -41 39 -59q25 -19 58 -19q38 0 59 21q22 19 25 61q2 25 2 66v73v29v68q0 21 -4 45q-2 12 -11 30q-7 14 -16 23q-34 34 -113 55q-87 23 -221 23q-178 0 -326 -54q-142 -52 -245 -147q-102 -99 -154 -233q-55 -134 -55 -302q0 -155 47 -282t135 -215
t215 -135t283 -47q92 0 170 10q70 9 123 24q35 11 82 31q29 15 49 31q36 28 53 61q18 35 18 94v392q0 98 -98 98h-340q-44 0 -65 -21q-23 -23 -23 -53q0 -40 21 -61q24 -24 67 -35l154 -41v-322q-7 -2 -29 -6q-20 -4 -37 -4h-57q-107 0 -191 35q-89 36 -145 98
q-58 60 -94 160q-33 90 -33 221q0 119 31 217q30 91 86 156q53 58 135 94q82 31 178 31q38 0 84 -4q10 -2 28.5 -5.5t26.5 -4.5q7 -3 21.5 -8t19.5 -7zM449 1624h2q-13 -13 -19 -25t-6 -28q0 -33 25 -55q25 -25 57 -25q23 0 43 14l197 127l196 -127q12 -9 25 -12
q16 -4 22 -4q41 0 68 27q24 27 24 61q0 27 -22 49l-209 207q-41 41 -92 41t-92 -41z" />
    <glyph glyph-name="gcircumflex" unicode="&#x11d;" horiz-adv-x="1089" 
d="M553 184l-10 -6q-54 0 -88 6q-27 5 -56 17q-20 8 -26 24q-6 15 -6 33q0 11 4 27q2 8 6 20q3 8 10 19q4 -1 17.5 -3.5t21.5 -3.5q10 -2 37 -2h43q104 0 196 29q88 28 146 80q61 55 90 123q31 73 31 153q0 78 -27 136q-26 56 -68 92q37 32 68 51q30 21 57 39q26 17 43 41
t17 51q0 41 -31 72q-30 30 -78 30q-59 0 -112 -53q-52 -55 -111 -147q-7 1 -37 10q-17 2 -49 6q-20 2 -70 2q-104 0 -196 -29q-89 -28 -146 -79q-61 -55 -90 -123q-30 -71 -30 -154q0 -98 41 -166t98 -102q-21 -13 -45 -37t-37 -45q-17 -27 -25 -51t-8 -56q0 -54 21 -88
t55 -55q-33 -17 -62 -43q-33 -26 -53 -55q-24 -35 -35 -68q-12 -37 -12 -78q0 -61 27 -114q23 -54 80 -95q54 -40 141 -61q94 -23 207 -23q132 0 239 35t174 88q70 55 107 125t37 144q0 129 -92 206q-93 78 -312 78h-102zM592 -23v-2q100 0 141 -30q37 -30 37 -88
q0 -65 -57 -113q-58 -49 -172 -49q-127 0 -179 43q-53 44 -53 115q0 28 6 55q5 18 17 43q10 23 24 37q12 -2 37 -6q35 -5 49 -5h66h84zM383 674v-2q0 78 43 121t109 43q67 0 112 -45t45 -123t-43 -121t-108 -43q-66 0 -113 47q-45 45 -45 123zM223 1339h2q-12 -12 -18 -24
t-6 -29q0 -34 24 -55q25 -25 58 -25q22 0 43 15l196 127l197 -127q14 -11 24 -13q16 -4 23 -4q41 0 68 27q24 27 24 61q0 27 -22 49l-209 207q-41 41 -92 41q-52 0 -93 -41z" />
    <glyph glyph-name="Gbreve" unicode="&#x11e;" horiz-adv-x="1390" 
d="M1051 985l-11 -6q15 -41 39 -59q25 -19 58 -19q38 0 59 21q22 19 25 61q2 25 2 66v73v29v68q0 21 -4 45q-2 12 -11 30q-7 14 -16 23q-34 34 -113 55q-87 23 -221 23q-178 0 -326 -54q-142 -52 -245 -147q-102 -99 -154 -233q-55 -134 -55 -302q0 -155 47 -282t135 -215
t215 -135t283 -47q92 0 170 10q70 9 123 24q35 11 82 31q29 15 49 31q36 28 53 61q18 35 18 94v392q0 98 -98 98h-340q-44 0 -65 -21q-23 -23 -23 -53q0 -40 21 -61q24 -24 67 -35l154 -41v-322q-7 -2 -29 -6q-20 -4 -37 -4h-57q-107 0 -191 35q-89 36 -145 98
q-58 60 -94 160q-33 90 -33 221q0 119 31 217q30 91 86 156q53 58 135 94q82 31 178 31q38 0 84 -4q10 -2 28.5 -5.5t26.5 -4.5q7 -3 21.5 -8t19.5 -7zM418 1765l2 -2q0 -55 22 -110q19 -49 62 -88q40 -37 98 -58q58 -22 123 -22q70 0 129 20q59 17 107 56q47 38 73 88
q27 53 27 116q0 45 -23 68q-25 22 -63 22q-29 0 -49 -14q-22 -16 -31 -55q-9 -47 -49 -74q-44 -29 -105 -29t-104 29q-44 27 -53 74q-9 39 -31 55q-20 14 -49 14q-40 0 -62 -22q-24 -21 -24 -68z" />
    <glyph glyph-name="gbreve" unicode="&#x11f;" horiz-adv-x="1089" 
d="M553 184l-10 -6q-54 0 -88 6q-27 5 -56 17q-20 8 -26 24q-6 15 -6 33q0 11 4 27q2 8 6 20q3 8 10 19q4 -1 17.5 -3.5t21.5 -3.5q10 -2 37 -2h43q104 0 196 29q88 28 146 80q61 55 90 123q31 73 31 153q0 78 -27 136q-26 56 -68 92q37 32 68 51q30 21 57 39q26 17 43 41
t17 51q0 41 -31 72q-30 30 -78 30q-59 0 -112 -53q-52 -55 -111 -147q-7 1 -37 10q-17 2 -49 6q-20 2 -70 2q-104 0 -196 -29q-89 -28 -146 -79q-61 -55 -90 -123q-30 -71 -30 -154q0 -98 41 -166t98 -102q-21 -13 -45 -37t-37 -45q-17 -27 -25 -51t-8 -56q0 -54 21 -88
t55 -55q-33 -17 -62 -43q-33 -26 -53 -55q-24 -35 -35 -68q-12 -37 -12 -78q0 -61 27 -114q23 -54 80 -95q54 -40 141 -61q94 -23 207 -23q132 0 239 35t174 88q70 55 107 125t37 144q0 129 -92 206q-93 78 -312 78h-102zM592 -23v-2q100 0 141 -30q37 -30 37 -88
q0 -65 -57 -113q-58 -49 -172 -49q-127 0 -179 43q-53 44 -53 115q0 28 6 55q5 18 17 43q10 23 24 37q12 -2 37 -6q35 -5 49 -5h66h84zM383 674v-2q0 78 43 121t109 43q67 0 112 -45t45 -123t-43 -121t-108 -43q-66 0 -113 47q-45 45 -45 123zM225 1409l-6 -6q0 -60 23 -117
q21 -53 61 -90q43 -40 94 -59q61 -23 119 -23q63 0 127 23q59 21 105 61q41 35 69 90q27 52 27 117q0 45 -23 68q-23 20 -59 20q-29 0 -47 -12q-20 -13 -29 -54q-9 -56 -47 -86q-37 -30 -104 -30q-69 0 -107 32q-40 29 -49 87q-9 40 -27 55q-18 12 -47 12q-35 0 -55 -20
q-25 -22 -25 -68z" />
    <glyph glyph-name="Gdotaccent" unicode="&#x120;" horiz-adv-x="1390" 
d="M1051 985l-11 -6q15 -41 39 -59q25 -19 58 -19q38 0 59 21q22 19 25 61q2 25 2 66v73v29v68q0 21 -4 45q-2 12 -11 30q-7 14 -16 23q-34 34 -113 55q-87 23 -221 23q-178 0 -326 -54q-142 -52 -245 -147q-102 -99 -154 -233q-55 -134 -55 -302q0 -155 47 -282t135 -215
t215 -135t283 -47q92 0 170 10q70 9 123 24q35 11 82 31q29 15 49 31q36 28 53 61q18 35 18 94v392q0 98 -98 98h-340q-44 0 -65 -21q-23 -23 -23 -53q0 -40 21 -61q24 -24 67 -35l154 -41v-322q-7 -2 -29 -6q-20 -4 -37 -4h-57q-107 0 -191 35q-89 36 -145 98
q-58 60 -94 160q-33 90 -33 221q0 119 31 217q30 91 86 156q53 58 135 94q82 31 178 31q38 0 84 -4q10 -2 28.5 -5.5t26.5 -4.5q7 -3 21.5 -8t19.5 -7zM602 1645v-5q0 -72 45 -114q43 -43 115 -43q70 0 117 47q45 45 45 117q0 70 -43 116q-43 43 -115 43t-117 -45
q-47 -47 -47 -116z" />
    <glyph glyph-name="gdotaccent" unicode="&#x121;" horiz-adv-x="1089" 
d="M553 184l-10 -6q-54 0 -88 6q-27 5 -56 17q-20 8 -26 24q-6 15 -6 33q0 11 4 27q2 8 6 20q3 8 10 19q4 -1 17.5 -3.5t21.5 -3.5q10 -2 37 -2h43q104 0 196 29q88 28 146 80q61 55 90 123q31 73 31 153q0 78 -27 136q-26 56 -68 92q37 32 68 51q30 21 57 39q26 17 43 41
t17 51q0 41 -31 72q-30 30 -78 30q-59 0 -112 -53q-52 -55 -111 -147q-7 1 -37 10q-17 2 -49 6q-20 2 -70 2q-104 0 -196 -29q-89 -28 -146 -79q-61 -55 -90 -123q-30 -71 -30 -154q0 -98 41 -166t98 -102q-21 -13 -45 -37t-37 -45q-17 -27 -25 -51t-8 -56q0 -54 21 -88
t55 -55q-33 -17 -62 -43q-33 -26 -53 -55q-24 -35 -35 -68q-12 -37 -12 -78q0 -61 27 -114q23 -54 80 -95q54 -40 141 -61q94 -23 207 -23q132 0 239 35t174 88q70 55 107 125t37 144q0 129 -92 206q-93 78 -312 78h-102zM592 -23v-2q100 0 141 -30q37 -30 37 -88
q0 -65 -57 -113q-58 -49 -172 -49q-127 0 -179 43q-53 44 -53 115q0 28 6 55q5 18 17 43q10 23 24 37q12 -2 37 -6q35 -5 49 -5h66h84zM383 674v-2q0 78 43 121t109 43q67 0 112 -45t45 -123t-43 -121t-108 -43q-66 0 -113 47q-45 45 -45 123zM375 1286q0 -67 45 -112
q46 -46 112 -46q67 0 115 48q47 47 47 114q0 68 -45 113t-112 45q-68 0 -115 -47t-47 -115z" />
    <glyph glyph-name="Gcommaaccent" unicode="&#x122;" horiz-adv-x="1390" 
d="M1051 985l-11 -6q15 -41 39 -59q25 -19 58 -19q38 0 59 21q22 19 25 61q2 25 2 66v73v29v68q0 21 -4 45q-2 12 -11 30q-7 14 -16 23q-34 34 -113 55q-87 23 -221 23q-178 0 -326 -54q-142 -52 -245 -147q-102 -99 -154 -233q-55 -134 -55 -302q0 -155 47 -282t135 -215
t215 -135t283 -47q92 0 170 10q70 9 123 24q35 11 82 31q29 15 49 31q36 28 53 61q18 35 18 94v392q0 98 -98 98h-340q-44 0 -65 -21q-23 -23 -23 -53q0 -40 21 -61q24 -24 67 -35l154 -41v-322q-7 -2 -29 -6q-20 -4 -37 -4h-57q-107 0 -191 35q-89 36 -145 98
q-58 60 -94 160q-33 90 -33 221q0 119 31 217q30 91 86 156q53 58 135 94q82 31 178 31q38 0 84 -4q10 -2 28.5 -5.5t26.5 -4.5q7 -3 21.5 -8t19.5 -7zM645 -244l-6 -8q0 -22 6 -37q8 -20 14 -28q-35 -25 -61 -35q-36 -14 -57 -19q-32 -7 -49 -12q-24 -7 -35 -18
q-15 -15 -15 -37q0 -28 27 -43q25 -19 80 -19q46 0 119 17q54 13 118 47q53 29 93 78q36 45 36 106t-36 100q-37 37 -97 37q-58 0 -98 -37q-39 -36 -39 -92z" />
    <glyph glyph-name="gcommaaccent" unicode="&#x123;" horiz-adv-x="1089" 
d="M553 184l-10 -6q-54 0 -88 6q-27 5 -56 17q-20 8 -26 24q-6 15 -6 33q0 11 4 27q2 8 6 20q3 8 10 19q4 -1 17.5 -3.5t21.5 -3.5q10 -2 37 -2h43q104 0 196 29q88 28 146 80q61 55 90 123q31 73 31 153q0 78 -27 136q-26 56 -68 92q37 32 68 51q30 21 57 39q26 17 43 41
t17 51q0 41 -31 72q-30 30 -78 30q-59 0 -112 -53q-52 -55 -111 -147q-7 1 -37 10q-17 2 -49 6q-20 2 -70 2q-104 0 -196 -29q-89 -28 -146 -79q-61 -55 -90 -123q-30 -71 -30 -154q0 -98 41 -166t98 -102q-21 -13 -45 -37t-37 -45q-17 -27 -25 -51t-8 -56q0 -54 21 -88
t55 -55q-33 -17 -62 -43q-33 -26 -53 -55q-24 -35 -35 -68q-12 -37 -12 -78q0 -61 27 -114q23 -54 80 -95q54 -40 141 -61q94 -23 207 -23q132 0 239 35t174 88q70 55 107 125t37 144q0 129 -92 206q-93 78 -312 78h-102zM592 -23v-2q100 0 141 -30q37 -30 37 -88
q0 -65 -57 -113q-58 -49 -172 -49q-127 0 -179 43q-53 44 -53 115q0 28 6 55q5 18 17 43q10 23 24 37q12 -2 37 -6q35 -5 49 -5h66h84zM383 674v-2q0 78 43 121t109 43q67 0 112 -45t45 -123t-43 -121t-108 -43q-66 0 -113 47q-45 45 -45 123zM393 1270l-2 -2q0 -62 37 -99
q36 -36 96 -36q61 0 99 38q39 36 39 93q0 11 -5 36q-7 18 -14 27q34 24 62 35q5 2 59 20q29 6 49 15q21 6 33 18q14 14 14 37q0 29 -24 47q-25 19 -80 19q-46 0 -119 -17q-59 -14 -117 -47q-56 -30 -90 -76q-37 -46 -37 -108z" />
    <glyph glyph-name="Hcircumflex" unicode="&#x124;" horiz-adv-x="1564" 
d="M219 201l-4 -8l-96 -31q-46 -15 -62 -31q-16 -19 -16 -53q0 -38 27 -62t73 -24h422q47 0 74 24t27 62q0 33 -17 53q-15 18 -61 33l-86 29v403h557v-403l-86 -29q-46 -15 -62 -31q-16 -19 -16 -53q0 -38 27 -62t73 -24h424q47 0 74 24q25 25 25 62q0 35 -15 53t-61 33
l-97 31v977l91 28q47 15 65 39q19 25 19 64q0 28 -23 51q-20 20 -61 20h-449q-45 0 -65 -20q-23 -23 -23 -53q0 -41 18 -62q20 -26 68 -41l78 -24v-377h-557v377l78 24q47 14 67 41q19 25 19 64q0 30 -23 53q-20 20 -65 20h-447q-45 0 -65 -20q-23 -23 -23 -53q0 -41 18 -62
q19 -22 66 -37l90 -28v-977zM473 1622h2q-11 -11 -18 -25q-6 -12 -6 -28q0 -35 24 -56q24 -24 57 -24q23 0 43 14l197 127l197 -127q12 -9 24 -12q16 -4 23 -4q41 0 67 26q25 28 25 62q0 26 -23 49l-208 207q-41 41 -93 41q-51 0 -92 -41z" />
    <glyph glyph-name="hcircumflex" unicode="&#x125;" horiz-adv-x="1296" 
d="M180 197l-2 -4l-84 -27q-39 -11 -55 -31q-16 -19 -16 -53q0 -39 26 -62q27 -24 74 -24h381q47 0 74 24q26 23 26 62q0 34 -16 53q-14 17 -60 33l-73 25v538q24 28 49 47q30 23 61 35q35 14 82 14q95 0 144 -55t49 -194v-385l-74 -25q-44 -15 -59 -33q-17 -20 -17 -53
q0 -38 27 -62t74 -24h380q47 0 74 24t27 62q0 33 -17 53q-15 18 -59 33l-78 25v450q0 191 -96 295q-94 98 -274 98q-83 0 -144 -22q-54 -19 -92 -49q-43 -37 -68 -74l-4 2q10 65 11 86q4 62 4 86v256q0 94 -33 127t-127 33q-58 0 -107 -8q-40 -6 -92 -19q-39 -11 -55 -31
q-18 -18 -18 -55q0 -35 18 -53q21 -21 57 -29l82 -18v-1071zM25 1729h2q-13 -13 -19 -25t-6 -29q0 -33 25 -55q25 -25 57 -25q22 0 43 15l197 127l196 -127q14 -10 25 -13q16 -4 22 -4q41 0 68 27q24 27 24 61q0 28 -22 50l-209 206q-41 41 -92 41t-92 -41z" />
    <glyph glyph-name="Hbar" unicode="&#x126;" horiz-adv-x="1667" 
d="M555 692v168h557v-168h-557zM270 201l-4 -8l-96 -31q-44 -14 -61 -31q-17 -20 -17 -53q0 -38 27 -62t74 -24h421q47 0 74 24t27 62q0 33 -17 53q-15 18 -61 33l-86 29v305h557v-305l-86 -29q-44 -14 -61 -31q-17 -20 -17 -53q0 -38 27 -62t73 -24h424q47 0 74 24
q25 25 25 62q0 35 -15 53t-61 33l-96 31v659h94q57 0 84 27q26 26 26 69q0 78 -88 78h-116v144l90 28q47 15 65 39q19 25 19 64q0 28 -23 51q-20 20 -61 20h-449q-45 0 -65 -20q-23 -23 -23 -53q0 -40 19 -62q20 -27 67 -41l78 -24v-144h-557v144l78 24q47 14 67 41
q19 25 19 64q0 30 -23 53q-20 20 -65 20h-447q-45 0 -65 -20q-23 -23 -23 -53q0 -40 19 -62t65 -37l90 -28v-144h-94q-56 0 -82 -26q-28 -28 -28 -70q0 -78 88 -78h116v-659z" />
    <glyph glyph-name="hbar" unicode="&#x127;" horiz-adv-x="1296" 
d="M180 197h-2l-84 -27q-39 -11 -55 -31q-16 -19 -16 -53q0 -38 26 -61q28 -25 74 -25h381q46 0 74 25q26 23 26 61q0 34 -16 53q-14 17 -60 33l-73 25v495q24 28 49 47q30 23 61 35q35 14 82 14q95 0 144 -55t49 -194v-342l-74 -25q-44 -15 -59 -33q-17 -20 -17 -53
q0 -37 27 -61q28 -25 74 -25h380q46 0 74 25q27 24 27 61q0 33 -17 53q-15 18 -59 33l-78 25v403q0 191 -96 295q-94 98 -274 98q-83 0 -144 -22q-54 -19 -92 -49q-43 -37 -68 -74l-4 2q10 65 11 86q4 62 4 86v37h207q56 0 83 24t27 62q0 40 -20 57q-22 19 -68 19h-229v104
q0 94 -33 127t-127 33q-58 0 -107 -8q-40 -6 -92 -19q-38 -11 -55 -28q-18 -18 -18 -52q0 -32 18 -47q20 -20 57 -28l82 -19v-61h-80q-54 0 -82 -25t-28 -61q0 -41 20 -58q21 -18 68 -18h102v-864z" />
    <glyph glyph-name="Itilde" unicode="&#x128;" horiz-adv-x="724" 
d="M219 201v-2l-96 -31q-46 -15 -62 -31q-16 -19 -16 -53q0 -37 27 -61q28 -25 73 -25h435q45 0 73 25q27 24 27 61q0 34 -16 53q-15 18 -62 33l-96 31v977l90 28q47 15 66 37q18 21 18 62q0 30 -23 53q-20 20 -65 20h-459q-45 0 -65 -20q-23 -23 -23 -53q0 -41 18 -62
q19 -22 66 -37l90 -28v-977zM225 1602l-12 -9q28 0 55 -12q5 -3 16 -8t20.5 -10t17.5 -9q33 -18 61 -28q37 -13 80 -13q53 0 102 21q45 16 86 49q37 30 58 64q20 33 20 61q0 40 -24 61t-56 21q-22 0 -35 -10q-21 -21 -26 -25q-18 -15 -33 -22q-19 -13 -51 -13q-27 0 -53 13
q-16 8 -52 28q-28 15 -61 27q-35 12 -80 12q-52 0 -98 -18q-45 -16 -84 -47q-37 -30 -58 -64q-22 -36 -22 -61q0 -41 27 -62q23 -20 55 -20q22 0 37 12q21 21 26 25q15 12 33 24q20 13 51 13z" />
    <glyph glyph-name="itilde" unicode="&#x129;" horiz-adv-x="669" 
d="M211 197v-2l-88 -27q-46 -15 -62 -31q-16 -19 -16 -53q0 -37 27 -61q28 -25 73 -25h396q46 0 73 27t27 67q0 32 -14 49q-17 20 -56 29l-84 25v677q0 95 -32 127q-33 33 -127 33q-66 0 -115 -8q-62 -10 -98 -20q-40 -12 -56 -31q-18 -18 -18 -55q0 -36 18 -54
q19 -19 58 -28l94 -21v-618zM201 1247l-8 -6q25 0 43 -12q7 -5 21 -15.5t19 -13.5q21 -18 50 -31q27 -12 73 -12q53 0 99 21q36 15 75 49q38 33 56 63q18 34 18 66q0 35 -20 55q-21 21 -49 21q-21 0 -37 -13q-25 -20 -31 -26q-11 -11 -31 -27q-15 -12 -41 -12t-43 14
q-13 8 -39 31q-19 16 -49 33q-27 12 -74 12q-48 0 -94 -19q-38 -16 -78 -47q-31 -27 -51 -65q-18 -35 -18 -66q0 -33 22 -55q23 -23 49 -23q21 0 37 13q25 20 31 26q11 11 31 27q15 12 39 12z" />
    <glyph glyph-name="Imacron" unicode="&#x12a;" horiz-adv-x="724" 
d="M219 201v-2l-96 -31q-46 -15 -62 -31q-16 -19 -16 -53q0 -37 27 -61q28 -25 73 -25h435q45 0 73 25q27 24 27 61q0 34 -16 53q-15 18 -62 33l-96 31v977l90 28q47 15 66 37q18 21 18 62q0 30 -23 53q-20 20 -65 20h-459q-45 0 -65 -20q-23 -23 -23 -53q0 -41 18 -62
q19 -22 66 -37l90 -28v-977zM121 1745v-2q-57 0 -86 -29q-29 -32 -29 -82q0 -38 23 -61t67 -23h514q58 0 86 31q29 32 29 82q0 38 -23 61t-67 23h-514z" />
    <glyph glyph-name="imacron" unicode="&#x12b;" horiz-adv-x="669" 
d="M211 197v-2l-88 -27q-46 -15 -62 -31q-16 -19 -16 -53q0 -37 27 -61q28 -25 73 -25h396q46 0 73 27t27 67q0 32 -14 49q-17 20 -56 29l-84 25v677q0 95 -32 127q-33 33 -127 33q-66 0 -115 -8q-62 -10 -98 -20q-40 -12 -56 -31q-18 -18 -18 -55q0 -36 18 -54
q19 -19 58 -28l94 -21v-618zM125 1395v2q-58 0 -86 -31q-29 -32 -29 -82q0 -38 23 -61t67 -23h424q58 0 86 31q29 32 29 82q0 38 -23 61q-21 21 -67 21h-424z" />
    <glyph glyph-name="Ibreve" unicode="&#x12c;" horiz-adv-x="724" 
d="M219 201v-2l-96 -31q-46 -15 -62 -31q-16 -19 -16 -53q0 -37 27 -61q28 -25 73 -25h435q45 0 73 25q27 24 27 61q0 34 -16 53q-15 18 -62 33l-96 31v977l90 28q47 15 66 37q18 21 18 62q0 30 -23 53q-20 20 -65 20h-459q-45 0 -65 -20q-23 -23 -23 -53q0 -41 18 -62
q19 -22 66 -37l90 -28v-977zM53 1769l2 -2q0 -53 23 -110q20 -50 61 -88q40 -37 99 -58q58 -22 122 -22q70 0 129 20q59 17 107 56q49 40 74 88q26 51 26 116q0 46 -22 68q-26 23 -64 23q-28 0 -49 -15q-22 -16 -31 -55q-9 -47 -49 -74q-42 -28 -104 -28q-63 0 -105 28
q-44 27 -53 74q-9 39 -31 55q-21 15 -49 15q-38 0 -61 -23q-25 -22 -25 -68z" />
    <glyph glyph-name="ibreve" unicode="&#x12d;" horiz-adv-x="669" 
d="M211 197v-2l-88 -27q-46 -15 -62 -31q-16 -19 -16 -53q0 -37 27 -61q28 -25 73 -25h396q46 0 73 27t27 67q0 32 -14 49q-17 20 -56 29l-84 25v677q0 95 -32 127q-33 33 -127 33q-66 0 -115 -8q-62 -10 -98 -20q-40 -12 -56 -31q-18 -18 -18 -55q0 -36 18 -54
q19 -19 58 -28l94 -21v-618zM35 1419h-8q0 -61 22 -116q21 -52 62 -93q37 -40 90 -61q58 -23 116 -23q65 0 123 21q59 21 105 61q42 39 69 92q25 55 25 117q0 45 -23 68q-23 20 -61 20q-30 0 -47 -14q-18 -15 -27 -49q-12 -59 -45 -88q-36 -31 -98 -31q-65 0 -98 33
q-35 31 -47 88q-9 34 -27 49q-17 14 -47 14q-40 0 -60 -20q-24 -21 -24 -68z" />
    <glyph glyph-name="Iogonek" unicode="&#x12e;" horiz-adv-x="724" 
d="M219 201l-4 -8l-96 -31q-46 -15 -62 -31q-16 -19 -16 -53q0 -38 27 -62t73 -24h121q-20 -12 -67 -53q-35 -30 -62 -68q-29 -40 -43 -78q-18 -41 -18 -84q0 -92 63 -149q66 -60 187 -60q76 0 143 25q65 24 98 57q27 27 27 62q0 23 -15 41t-43 18q-18 0 -24 -2l-19 -6
q-9 -3 -24 -6q-10 -2 -37 -2q-42 0 -66 24t-24 76q0 51 33 104q29 54 88 107h121q45 0 73 25q27 24 27 61q0 34 -16 53q-15 18 -62 33l-96 31v977l90 28q47 15 66 37q18 21 18 62q0 30 -23 53q-20 20 -65 20h-459q-45 0 -65 -20q-23 -23 -23 -53q0 -41 18 -62q19 -22 66 -37
l90 -28v-977z" />
    <glyph glyph-name="iogonek" unicode="&#x12f;" horiz-adv-x="669" 
d="M211 197l-4 -9l-88 -26q-46 -15 -62 -31q-16 -19 -16 -53q0 -38 27 -62t73 -24h107q-23 -14 -68 -53q-32 -28 -61 -68t-43 -78q-19 -43 -19 -84q0 -91 64 -149q66 -60 186 -60q77 0 144 25q65 24 98 57q26 26 26 62q0 24 -14 41q-15 18 -43 18q-18 0 -24 -2l-19 -6
q-9 -3 -24 -6q-10 -2 -37 -2q-42 0 -66 24t-24 76q0 53 32 104q29 54 88 107h97q46 0 73 27t27 67q0 32 -14 49q-17 20 -56 29l-84 25v677q0 95 -32 127q-33 33 -127 33q-66 0 -115 -8q-62 -10 -98 -20q-40 -12 -56 -31q-18 -18 -18 -55q0 -36 18 -54q19 -19 58 -28l94 -21
v-618zM170 1288q0 -74 47 -121t121 -47t123 49t49 123t-47 121t-121 47t-123 -49t-49 -123z" />
    <glyph glyph-name="Idotaccent" unicode="&#x130;" horiz-adv-x="724" 
d="M219 201v-2l-96 -31q-46 -15 -62 -31q-16 -19 -16 -53q0 -37 27 -61q28 -25 73 -25h435q45 0 73 25q27 24 27 61q0 34 -16 53q-15 18 -62 33l-96 31v977l90 28q47 15 66 37q18 21 18 62q0 30 -23 53q-20 20 -65 20h-459q-45 0 -65 -20q-23 -23 -23 -53q0 -41 18 -62
q19 -22 66 -37l90 -28v-977zM209 1649l-2 -4q0 -73 45 -115q43 -43 115 -43q69 0 116 47t47 117t-43 116q-43 43 -114 43q-72 0 -117 -45q-47 -47 -47 -116z" />
    <glyph glyph-name="dotlessi" unicode="&#x131;" horiz-adv-x="669" 
d="M211 197v-2l-88 -27q-46 -15 -62 -31q-16 -19 -16 -53q0 -37 27 -61q28 -25 73 -25h396q46 0 73 27t27 67q0 32 -14 49q-17 20 -56 29l-84 25v677q0 95 -32 127q-33 33 -127 33q-66 0 -115 -8q-62 -10 -98 -20q-40 -12 -56 -31q-18 -18 -18 -55q0 -36 18 -54
q19 -19 58 -28l94 -21v-618z" />
    <glyph glyph-name="IJ" unicode="&#x132;" horiz-adv-x="1392" 
d="M219 201v-2l-96 -31q-46 -15 -62 -31q-16 -19 -16 -53q0 -37 27 -61q28 -25 73 -25h435q45 0 73 25q27 24 27 61q0 34 -16 53q-15 18 -62 33l-96 31v977l90 28q47 15 66 37q18 21 18 62q0 30 -23 53q-20 20 -65 20h-459q-45 0 -65 -20q-23 -23 -23 -53q0 -41 18 -62
q19 -22 66 -37l90 -28v-977zM918 117h-9q0 -67 -12 -117q-10 -41 -35 -86q-18 -33 -53 -64q-32 -29 -68 -49q-34 -18 -49 -39q-14 -20 -14 -51q0 -37 29 -63q28 -25 86 -25q56 0 129 25q67 24 127 84q34 34 55 63q29 41 49 90q23 59 37 125q12 74 12 174v992l82 26
q47 15 66 37q18 21 18 61q0 34 -20 54t-66 20h-442q-46 0 -66 -20q-22 -22 -22 -54q0 -40 18 -61q19 -22 66 -37l82 -26v-1059z" />
    <glyph glyph-name="ij" unicode="&#x133;" horiz-adv-x="1273" 
d="M211 197v-2l-88 -27q-46 -15 -62 -31q-16 -19 -16 -53q0 -37 27 -61q28 -25 73 -25h396q46 0 73 27t27 67q0 32 -14 49q-17 20 -56 29l-84 25v677q0 95 -32 127q-33 33 -127 33q-66 0 -115 -8q-62 -10 -98 -20q-40 -12 -56 -31q-18 -18 -18 -55q0 -36 18 -54
q19 -19 58 -28l94 -21v-618zM174 1294q0 -73 47 -120q48 -48 121 -48t123 50q49 49 49 122q0 74 -47 121t-121 47t-123 -49t-49 -123zM850 8l-4 -6q0 -76 -12 -129q-11 -49 -31 -90q-17 -36 -47 -59q-28 -25 -58 -43q-13 -8 -28 -19q-14 -10 -19 -18q-7 -10 -10 -23
q-4 -16 -4 -27q0 -33 25 -55q24 -24 75 -24q57 0 127 28q65 26 123 84q30 30 55 72q27 46 43 92q21 62 29 123q10 75 10 156v796q0 95 -32 127q-33 33 -127 33q-58 0 -107 -8q-40 -6 -92 -19q-40 -12 -55 -30q-19 -19 -19 -56q0 -34 19 -53q21 -21 57 -29l82 -18v-805z
M813 1288q0 -70 47 -117t117 -47q71 0 121 50q49 49 49 120q0 70 -47 117t-117 47q-72 0 -121 -49t-49 -121z" />
    <glyph glyph-name="Jcircumflex" unicode="&#x134;" horiz-adv-x="667" 
d="M193 119h-9q0 -67 -12 -117q-10 -41 -35 -86q-17 -31 -53 -63q-35 -32 -68 -50q-34 -18 -49 -39q-14 -20 -14 -51q0 -37 29 -63q28 -25 86 -25q56 0 129 25q67 24 127 84q34 34 55 63q29 41 49 90q23 59 37 125q12 74 12 174v992l82 26q47 15 66 37q18 21 18 62
q0 33 -20 53t-66 20h-442q-46 0 -66 -20q-22 -22 -22 -53q0 -41 18 -62q19 -22 66 -37l82 -26v-1059zM29 1630h2q-14 -14 -19 -24q-6 -12 -6 -29q0 -33 25 -55q25 -25 57 -25q23 0 43 14l197 127l196 -127q12 -9 25 -12q16 -4 22 -4q41 0 68 27q25 28 25 61q0 26 -23 49
l-209 207q-41 41 -92 41t-92 -41z" />
    <glyph glyph-name="jcircumflex" unicode="&#x135;" horiz-adv-x="604" 
d="M180 10l-4 -6q0 -76 -12 -129q-11 -49 -31 -90q-17 -36 -47 -59q-30 -27 -57 -43q-18 -11 -29 -19q-12 -9 -18 -18q-8 -13 -11 -23q-4 -16 -4 -26q0 -34 25 -56q24 -24 76 -24q57 0 127 28q63 25 122 84q33 33 56 72q27 46 43 92q20 57 28 123q11 83 11 156v796
q0 94 -33 127t-127 33q-58 0 -107 -8q-40 -6 -92 -19q-40 -12 -55 -30q-18 -18 -18 -56q0 -35 18 -53q20 -20 57 -28l82 -19v-805zM10 1262l2 -2q-22 -22 -22 -54q0 -27 22 -49q21 -24 56 -24q12 0 24 4q13 4 23 12l186 129l186 -129q11 -9 25 -12q16 -4 25 -4q35 0 61 26
q25 25 25 58q0 28 -21 49l-205 213q-36 39 -84 39q-47 0 -86 -39z" />
    <glyph glyph-name="Kcommaaccent" unicode="&#x136;" horiz-adv-x="1425" 
d="M219 201h2l-96 -31q-46 -15 -62 -31q-16 -19 -16 -53q0 -37 27 -61q28 -25 73 -25h385q46 0 74 25q27 24 27 61q0 31 -17 55q-19 22 -65 43l-43 19v459l340 -431q52 -64 98 -110q49 -49 92 -74q51 -30 95 -43q46 -14 100 -14q88 0 135 33q49 30 49 77q0 26 -12 41t-41 31
q-39 18 -86 49q-39 26 -86 70q-51 48 -98 100q-32 36 -123 146l-158 188l442 451l62 22q55 21 76 45q20 23 20 62q0 31 -22 53q-20 20 -66 20h-399q-46 0 -66 -20q-22 -22 -22 -55q0 -36 18 -60q21 -28 57 -41l41 -16l-446 -475v467l35 16q43 19 67 47q21 24 21 62
q0 32 -23 55q-20 20 -65 20h-410q-45 0 -65 -20q-23 -23 -23 -53q0 -41 18 -62q19 -22 66 -37l90 -28v-977zM588 -238l-6 -8q0 -22 6 -37q8 -20 14 -28q-35 -25 -61 -35q-34 -14 -58 -19q-31 -7 -49 -12q-24 -7 -35 -18q-14 -14 -14 -37q0 -28 27 -43q25 -19 80 -19
q45 0 118 17q56 13 119 47q52 28 92 78q37 46 37 106q0 61 -37 101q-36 36 -96 36q-59 0 -98 -36t-39 -93z" />
    <glyph glyph-name="kcommaaccent" unicode="&#x137;" horiz-adv-x="1212" 
d="M180 197l-8 -17l-84 -26q-39 -11 -55 -31q-17 -20 -17 -53q0 -38 27 -62t74 -24h336q46 0 73 24q29 26 29 62q0 35 -12 53q-13 20 -60 41l-34 16v326l221 -316q41 -59 80 -98q40 -42 84 -67q49 -27 88 -37q50 -13 94 -13q85 0 127 33q43 34 43 76q0 24 -8 37
q-9 16 -37 31q-33 18 -72 49q-42 27 -72 57q-28 25 -67 70q-40 44 -74 88l-113 145l285 248l53 22q46 21 68 46q20 23 20 61q0 33 -22 55q-21 21 -66 21h-354q-40 0 -61 -21q-23 -23 -23 -55q0 -28 12 -49q14 -25 45 -41l37 -21l-282 -264v758q0 94 -33 127t-127 33
q-58 0 -107 -8q-40 -6 -92 -19q-39 -11 -55 -31q-18 -18 -18 -55q0 -35 18 -53q21 -21 57 -29l82 -18v-1071zM516 -254l-6 -8q0 -22 6 -37q9 -22 14 -29q-32 -22 -61 -34q-36 -14 -57 -19q-36 -8 -50 -12q-21 -6 -34 -19q-15 -15 -15 -37q0 -28 27 -43q24 -18 80 -18
q50 0 119 16q51 12 118 48q55 30 93 77q36 45 36 107q0 61 -36 100q-37 37 -97 37q-58 0 -98 -37q-39 -36 -39 -92z" />
    <glyph glyph-name="kgreenlandic" unicode="&#x138;" horiz-adv-x="1243" 
d="M211 197l-8 -11l-88 -26q-46 -15 -62 -31q-16 -19 -16 -53q0 -39 26 -62q27 -24 74 -24h348q47 0 74 24q29 26 29 62q0 34 -13 53q-14 21 -59 41l-35 16v299l217 -288q50 -63 86 -99q37 -40 84 -69t88 -37q46 -12 95 -12q87 0 127 32q43 34 43 76q0 22 -9 37
q-10 17 -36 31q-33 18 -72 49q-42 27 -72 57q-35 28 -74 70q-33 35 -79 88l-103 119l285 274l53 23q47 21 68 45q20 23 20 61q0 33 -22 55q-21 21 -66 21h-354q-41 0 -62 -21q-22 -22 -22 -55q0 -28 12 -49q14 -25 45 -41l37 -21l-283 -290v331q0 95 -32 127q-33 33 -127 33
q-66 0 -115 -8q-62 -10 -98 -20q-40 -12 -56 -31q-18 -18 -18 -55q0 -36 18 -54q19 -19 58 -28l94 -21v-618z" />
    <glyph glyph-name="Lacute" unicode="&#x139;" horiz-adv-x="1093" 
d="M219 201l-4 -2l-96 -31q-46 -15 -62 -31q-16 -19 -16 -53q0 -37 27 -61q28 -25 73 -25h779q40 0 61 8q22 8 39 25q16 16 22 41q7 28 7 84v34v35v37v43v60q-3 41 -25 63q-21 18 -55 18q-35 0 -56 -18t-36 -59l-54 -166h-317v973l106 30q46 15 68 37q18 21 18 62
q0 31 -22 53q-20 20 -66 20h-477q-45 0 -65 -20q-23 -23 -23 -53q0 -41 18 -62q19 -22 66 -37l90 -28v-977zM328 1636l-4 -6q-25 -25 -25 -53q0 -37 27 -61q25 -25 59 -25q16 0 39 10l287 152q27 15 39 33t12 49q0 28 -12 55t-31 49q-16 19 -41 33q-24 12 -49 12
q-19 0 -31 -6q-11 -6 -25 -16z" />
    <glyph glyph-name="lacute" unicode="&#x13a;" horiz-adv-x="638" 
d="M180 197l-2 -7l-84 -26q-39 -11 -55 -31q-16 -19 -16 -53q0 -39 26 -62q27 -24 74 -24h385q47 0 74 24q26 23 26 62q0 34 -16 53q-14 17 -60 33l-77 24v1131q0 94 -33 127t-127 33q-58 0 -107 -8q-40 -6 -92 -19q-39 -11 -55 -31q-18 -18 -18 -55q0 -35 18 -53
q21 -21 57 -29l82 -18v-1071zM152 1735l-5 -6q-24 -24 -24 -54q0 -37 27 -61q25 -25 59 -25q16 0 39 10l287 152q25 14 38 33q13 20 13 49q0 26 -13 55t-30 49q-16 19 -41 33q-24 12 -49 12q-19 0 -31 -6q-11 -5 -25 -16z" />
    <glyph glyph-name="Lcommaaccent" unicode="&#x13b;" horiz-adv-x="1093" 
d="M219 201l-4 -2l-96 -31q-46 -15 -62 -31q-16 -19 -16 -53q0 -37 27 -61q28 -25 73 -25h779q40 0 61 8q22 8 39 25q16 16 22 41q7 28 7 84v34v35v37v43v60q-3 41 -25 63q-21 18 -55 18q-35 0 -56 -18t-36 -59l-54 -166h-317v973l106 30q46 15 68 37q18 21 18 62
q0 31 -22 53q-20 20 -66 20h-477q-45 0 -65 -20q-23 -23 -23 -53q0 -41 18 -62q19 -22 66 -37l90 -28v-977zM414 -240l-6 -8q0 -22 6 -37q8 -20 14 -28q-35 -25 -61 -35q-34 -14 -58 -19q-31 -7 -49 -12q-24 -7 -35 -18q-14 -14 -14 -37q0 -28 27 -43q25 -19 79 -19
q46 0 119 17q56 13 119 47q52 28 92 78q37 46 37 106q0 61 -37 101q-36 36 -96 36q-59 0 -98 -36t-39 -93z" />
    <glyph glyph-name="lcommaaccent" unicode="&#x13c;" horiz-adv-x="638" 
d="M180 197l-2 -7l-84 -26q-39 -11 -55 -31q-16 -19 -16 -53q0 -39 26 -62q27 -24 74 -24h385q47 0 74 24q26 23 26 62q0 34 -16 53q-14 17 -60 33l-77 24v1131q0 94 -33 127t-127 33q-58 0 -107 -8q-40 -6 -92 -19q-39 -11 -55 -31q-18 -18 -18 -55q0 -35 18 -53
q21 -21 57 -29l82 -18v-1071zM193 -244l-7 -8q0 -20 7 -37q8 -20 14 -28q-34 -24 -62 -35q-36 -14 -57 -19q-31 -7 -49 -12q-24 -7 -35 -18q-14 -14 -14 -37q0 -29 26 -43q25 -19 80 -19q46 0 119 17q56 13 119 47q52 28 92 78q37 46 37 106t-37 100q-37 37 -96 37t-99 -37
q-38 -35 -38 -92z" />
    <glyph glyph-name="Lcaron" unicode="&#x13d;" horiz-adv-x="1093" 
d="M219 201l-4 -2l-96 -31q-46 -15 -62 -31q-16 -19 -16 -53q0 -37 27 -61q28 -25 73 -25h779q40 0 61 8q22 8 39 25q16 16 22 41q7 28 7 84v34v35v37v43v60q-3 41 -25 63q-21 18 -55 18q-35 0 -56 -18t-36 -59l-54 -166h-317v973l106 30q46 15 68 37q18 21 18 62
q0 31 -22 53q-20 20 -66 20h-477q-45 0 -65 -20q-23 -23 -23 -53q0 -41 18 -62q19 -22 66 -37l90 -28v-977zM276 1530h-4q41 -41 93 -41q51 0 92 41l219 209q12 12 18 24t6 29q0 32 -22 57q-25 25 -60 25q-23 0 -43 -14l-196 -127l-197 127q-12 9 -24 12q-8 2 -23 2
q-41 0 -65 -27q-25 -28 -25 -61q0 -26 23 -49z" />
    <glyph glyph-name="lcaron" unicode="&#x13e;" horiz-adv-x="903" 
d="M180 197l-2 -7l-84 -26q-39 -11 -55 -31q-16 -19 -16 -53q0 -39 26 -62q27 -24 74 -24h385q47 0 74 24q26 23 26 62q0 34 -16 53q-14 17 -60 33l-77 24v1131q0 94 -33 127t-127 33q-58 0 -107 -8q-40 -6 -92 -19q-39 -11 -55 -31q-18 -18 -18 -55q0 -35 18 -53
q21 -21 57 -29l82 -18v-1071zM565 1217l-4 -5q-2 -6 -2 -14v-14q0 -27 25 -49q24 -21 57 -21q25 0 43 12t27 33l143 277q12 24 12 43q0 25 -12 43q-9 14 -31 32q-19 16 -43 25q-24 6 -49 6q-40 0 -67 -18q-29 -19 -35 -54z" />
    <glyph glyph-name="Ldot" unicode="&#x13f;" horiz-adv-x="1093" 
d="M219 201l-4 -2l-96 -31q-46 -15 -62 -31q-16 -19 -16 -53q0 -37 27 -61q28 -25 73 -25h779q40 0 61 8q22 8 39 25q16 16 22 41q7 28 7 84v34v35v37v43v60q-3 41 -25 63q-21 18 -55 18q-35 0 -56 -18t-36 -59l-54 -166h-317v973l106 30q46 15 68 37q18 21 18 62
q0 31 -22 53q-20 20 -66 20h-477q-45 0 -65 -20q-23 -23 -23 -53q0 -41 18 -62q19 -22 66 -37l90 -28v-977zM727 799q0 -78 49 -127t127 -49t129 51t51 129t-49 127t-127 49t-129 -51t-51 -129z" />
    <glyph glyph-name="ldot" unicode="&#x140;" horiz-adv-x="921" 
d="M180 197l-2 -7l-84 -26q-39 -11 -55 -31q-16 -19 -16 -53q0 -39 26 -62q27 -24 74 -24h385q47 0 74 24q26 23 26 62q0 34 -16 53q-14 17 -60 33l-77 24v1131q0 94 -33 127t-127 33q-58 0 -107 -8q-40 -6 -92 -19q-39 -11 -55 -31q-18 -18 -18 -55q0 -35 18 -53
q21 -21 57 -29l82 -18v-1071zM604 698q0 -78 49 -127t127 -49t129 51q52 52 52 129t-50 127t-127 50t-129 -52q-51 -51 -51 -129z" />
    <glyph glyph-name="Lslash" unicode="&#x141;" horiz-adv-x="1148" 
d="M274 201h-8l-96 -31q-44 -14 -61 -31q-17 -20 -17 -53q0 -37 27 -61q28 -25 74 -25h778q40 0 61 8q22 8 39 25t23 41t6 84v35v34v37v43v60q-3 41 -25 63q-22 19 -55 19t-55 -19t-37 -59l-54 -166h-317v536l227 101q30 13 41 30q13 19 13 48q0 31 -25 67q-23 33 -68 33
q-20 0 -36 -8l-148 -66v230l107 30q44 14 67 37q19 22 19 62q0 30 -23 53q-20 20 -65 20h-478q-45 0 -65 -20q-23 -23 -23 -53q0 -40 19 -62t65 -37l90 -28v-357l-159 -67q-29 -13 -41 -31q-13 -19 -13 -47q0 -43 31 -74t68 -31q20 0 35 9l79 34v-413z" />
    <glyph glyph-name="lslash" unicode="&#x142;" horiz-adv-x="720" 
d="M211 197l-2 -11l-84 -26q-39 -11 -55 -31q-17 -20 -17 -53q0 -38 27 -62t74 -24h385q46 0 73 24t27 62q0 34 -16 53q-14 17 -60 33l-78 24v682l160 70q29 14 45 37q12 18 12 47q0 37 -22 68q-24 30 -64 30q-22 0 -38 -8l-93 -39v248q0 95 -32 127q-33 33 -127 33
q-58 0 -107 -8q-40 -6 -92 -19q-39 -11 -55 -31q-19 -19 -19 -55q0 -34 19 -53q21 -21 57 -29l82 -18v-310l-166 -69q-31 -13 -43 -33q-12 -21 -12 -47q0 -39 26 -68q24 -30 64 -30q12 0 18 2l19 6l94 41v-563z" />
    <glyph glyph-name="Nacute" unicode="&#x143;" horiz-adv-x="1589" 
d="M219 201l-2 -4l-96 -31q-46 -15 -62 -31q-16 -19 -16 -53q0 -38 27 -62t73 -24h394q46 0 73 24t27 62q0 34 -16 53q-18 18 -64 33l-98 31l-4 551q0 67 -2 100q-1 19 -4 51t-3 39q-2 39 -6 86l4 2q36 -68 43 -84q34 -61 45 -82q11 -22 54 -86l440 -682q36 -54 80 -80
q45 -26 117 -26q91 0 137 43q43 43 43 123v1022l82 26q46 15 65 37t19 61q0 33 -21 54q-20 20 -65 20h-410q-45 0 -65 -20q-23 -23 -23 -54q0 -40 21 -61q19 -22 65 -37l92 -28l4 -553q0 -68 2 -101q0 -23 5 -90q2 -39 6 -86l-4 -2l-43 86q-5 8 -14 24t-17 30t-15 28
q-15 29 -53 86l-440 682q-39 61 -76 80q-39 20 -92 20h-293q-45 0 -65 -20q-23 -23 -23 -53q0 -41 18 -62q19 -22 66 -37l90 -28v-977zM698 1634l-4 -6q-24 -24 -24 -53q0 -39 26 -62q24 -24 60 -24q16 0 39 10l286 152q28 16 39 32q13 19 13 50q0 26 -13 55t-30 49
q-16 19 -41 33q-24 12 -50 12q-18 0 -30 -6q-11 -6 -25 -16z" />
    <glyph glyph-name="nacute" unicode="&#x144;" horiz-adv-x="1327" 
d="M211 197l-2 -2l-88 -27q-46 -15 -62 -31q-16 -19 -16 -53q0 -37 27 -61q28 -25 73 -25h394q45 0 73 25q27 24 27 61q0 34 -16 53q-14 17 -60 33l-74 25v538q22 25 50 47q30 23 61 35q35 14 82 14q94 0 143 -55t49 -194v-385l-73 -25q-46 -16 -60 -33q-16 -19 -16 -53
q0 -37 27 -61q28 -25 73 -25h381q46 0 74 25q27 24 27 61q0 33 -17 53q-15 18 -59 33l-78 25v450q0 191 -96 295q-94 98 -275 98q-95 0 -151 -26q-59 -26 -99 -58q-43 -37 -67 -84l-4 2v27q0 71 -31 102t-109 31q-57 0 -106 -8q-62 -10 -98 -20q-40 -12 -56 -31
q-18 -18 -18 -55q0 -36 18 -54q19 -19 58 -28l94 -21v-618zM604 1264q-15 -25 -16 -27q-6 -12 -6 -27q0 -36 26 -59q25 -25 58 -25q14 0 28 7q17 9 29 18l233 186q21 18 31 35q8 13 8 37q0 25 -12 49t-33 45q-24 20 -45 31q-24 12 -53 12q-20 0 -37 -10q-19 -13 -35 -35z
" />
    <glyph glyph-name="Ncommaaccent" unicode="&#x145;" horiz-adv-x="1589" 
d="M219 201l-2 -4l-96 -31q-46 -15 -62 -31q-16 -19 -16 -53q0 -38 27 -62t73 -24h394q46 0 73 24t27 62q0 34 -16 53q-18 18 -64 33l-98 31l-4 551q0 67 -2 100q-1 19 -4 51t-3 39q-2 39 -6 86l4 2q36 -68 43 -84q34 -61 45 -82q11 -22 54 -86l440 -682q36 -54 80 -80
q45 -26 117 -26q91 0 137 43q43 43 43 123v1022l82 26q46 15 65 37t19 61q0 33 -21 54q-20 20 -65 20h-410q-45 0 -65 -20q-23 -23 -23 -54q0 -40 21 -61q19 -22 65 -37l92 -28l4 -553q0 -68 2 -101q0 -23 5 -90q2 -39 6 -86l-4 -2l-43 86q-5 8 -14 24t-17 30t-15 28
q-15 29 -53 86l-440 682q-39 61 -76 80q-39 20 -92 20h-293q-45 0 -65 -20q-23 -23 -23 -53q0 -41 18 -62q19 -22 66 -37l90 -28v-977zM655 -242l-6 -8q0 -22 6 -37q7 -17 15 -28q-34 -24 -62 -35q-36 -14 -57 -19q-32 -7 -49 -12q-24 -7 -35 -18q-14 -14 -14 -37
q0 -29 26 -43q25 -19 80 -19q46 0 119 17q56 13 119 47q52 28 92 78q37 46 37 106t-37 100q-37 37 -96 37t-99 -37q-39 -36 -39 -92z" />
    <glyph glyph-name="ncommaaccent" unicode="&#x146;" horiz-adv-x="1327" 
d="M211 197l-2 -2l-88 -27q-46 -15 -62 -31q-16 -19 -16 -53q0 -37 27 -61q28 -25 73 -25h394q45 0 73 25q27 24 27 61q0 34 -16 53q-14 17 -60 33l-74 25v538q22 25 50 47q30 23 61 35q35 14 82 14q94 0 143 -55t49 -194v-385l-73 -25q-46 -16 -60 -33q-16 -19 -16 -53
q0 -37 27 -61q28 -25 73 -25h381q46 0 74 25q27 24 27 61q0 33 -17 53q-15 18 -59 33l-78 25v450q0 191 -96 295q-94 98 -275 98q-95 0 -151 -26q-59 -26 -99 -58q-43 -37 -67 -84l-4 2v27q0 71 -31 102t-109 31q-57 0 -106 -8q-62 -10 -98 -20q-40 -12 -56 -31
q-18 -18 -18 -55q0 -36 18 -54q19 -19 58 -28l94 -21v-618zM535 -240l-7 -8q0 -20 7 -37q8 -20 14 -28q-34 -24 -62 -35q-36 -14 -57 -19q-31 -7 -49 -12q-24 -7 -35 -18q-14 -14 -14 -37q0 -29 26 -43q25 -19 80 -19q46 0 119 17q56 13 119 47q52 28 92 78q37 46 37 106
q0 61 -37 101q-36 36 -96 36t-99 -36q-38 -35 -38 -93z" />
    <glyph glyph-name="Ncaron" unicode="&#x147;" horiz-adv-x="1589" 
d="M219 201l-2 -4l-96 -31q-46 -15 -62 -31q-16 -19 -16 -53q0 -38 27 -62t73 -24h394q46 0 73 24t27 62q0 34 -16 53q-18 18 -64 33l-98 31l-4 551q0 67 -2 100q-1 19 -4 51t-3 39q-2 39 -6 86l4 2q36 -68 43 -84q34 -61 45 -82q11 -22 54 -86l440 -682q36 -54 80 -80
q45 -26 117 -26q91 0 137 43q43 43 43 123v1022l82 26q46 15 65 37t19 61q0 33 -21 54q-20 20 -65 20h-410q-45 0 -65 -20q-23 -23 -23 -54q0 -40 21 -61q19 -22 65 -37l92 -28l4 -553q0 -68 2 -101q0 -23 5 -90q2 -39 6 -86l-4 -2l-43 86q-5 8 -14 24t-17 30t-15 28
q-15 29 -53 86l-440 682q-39 61 -76 80q-39 20 -92 20h-293q-45 0 -65 -20q-23 -23 -23 -53q0 -41 18 -62q19 -22 66 -37l90 -28v-977zM684 1528h-4q41 -41 92 -41t92 41l219 209q14 14 19 24q6 12 6 29q0 31 -23 57q-25 25 -59 25q-23 0 -43 -14l-197 -127l-196 127
q-12 9 -25 12q-8 2 -22 2q-42 0 -66 -27t-24 -61q0 -27 22 -49z" />
    <glyph glyph-name="ncaron" unicode="&#x148;" horiz-adv-x="1327" 
d="M211 197l-2 -2l-88 -27q-46 -15 -62 -31q-16 -19 -16 -53q0 -37 27 -61q28 -25 73 -25h394q45 0 73 25q27 24 27 61q0 34 -16 53q-14 17 -60 33l-74 25v538q22 25 50 47q30 23 61 35q35 14 82 14q94 0 143 -55t49 -194v-385l-73 -25q-46 -16 -60 -33q-16 -19 -16 -53
q0 -37 27 -61q28 -25 73 -25h381q46 0 74 25q27 24 27 61q0 33 -17 53q-15 18 -59 33l-78 25v450q0 191 -96 295q-94 98 -275 98q-95 0 -151 -26q-59 -26 -99 -58q-43 -37 -67 -84l-4 2v27q0 71 -31 102t-109 31q-57 0 -106 -8q-62 -10 -98 -20q-40 -12 -56 -31
q-18 -18 -18 -55q0 -36 18 -54q19 -19 58 -28l94 -21v-618zM561 1165l-4 -2q36 -39 84 -39q47 0 86 39l217 217q23 23 23 54q0 27 -23 53q-21 24 -55 24q-13 0 -25 -4q-11 -4 -22 -12l-187 -129l-186 129q-11 9 -25 12q-16 4 -24 4q-36 0 -60 -24t-24 -60q0 -29 20 -49z" />
    <glyph glyph-name="napostrophe" unicode="&#x149;" horiz-adv-x="1488" 
d="M373 197l-2 -2l-88 -27q-46 -15 -62 -31q-16 -19 -16 -53q0 -38 26 -61q28 -25 74 -25h393q46 0 74 25q27 24 27 61q0 33 -17 53q-15 18 -59 33l-74 25v538q24 28 49 47q29 22 62 35q35 14 82 14q94 0 143 -55t49 -194v-385l-73 -25q-46 -16 -60 -33q-16 -19 -16 -53
q0 -38 26 -61q28 -25 74 -25h381q46 0 74 25q26 23 26 61q0 34 -16 53q-15 18 -59 33l-78 25v450q0 191 -96 295q-94 98 -275 98q-95 0 -151 -26q-59 -26 -99 -58q-43 -37 -67 -84l-4 2v27q0 71 -31 102t-109 31q-57 0 -106 -8q-64 -10 -99 -20q-39 -11 -55 -31
q-18 -18 -18 -55q0 -36 18 -54q19 -19 58 -28l94 -21v-618zM66 1454l-5 -8q0 -46 23 -76t49 -47q-13 -44 -31 -76q-22 -33 -30 -43q-10 -15 -23 -28q-10 -13 -10 -31q0 -23 14 -31q14 -9 31 -12q24 -4 41 2q22 7 33 14q27 15 61 49q39 39 62 76q33 53 47 92q18 49 18 95
q0 71 -37 114t-100 43q-62 0 -103 -41q-40 -40 -40 -92z" />
    <glyph glyph-name="Eng" unicode="&#x14a;" horiz-adv-x="1593" 
d="M219 201l-6 -11l-96 -30q-46 -15 -62 -31q-16 -19 -16 -53q0 -38 27 -62t73 -24h393q47 0 74 24t27 62q0 33 -17 53q-19 19 -63 33l-98 31l-4 550q0 68 -2 101q-1 19 -4 51t-3 39q-2 39 -6 86l4 2q36 -68 43 -84q34 -61 45 -82q11 -22 54 -86l530 -821v-4q0 -45 -12 -82
q-11 -33 -35 -68q-24 -31 -55 -55q-37 -30 -68 -47q-34 -18 -49 -39q-14 -20 -14 -51q0 -35 28 -60q27 -24 86 -24t129 24q67 24 127 84q35 35 56 64q29 41 49 90q23 59 37 125q12 74 12 174v1096l82 26q46 15 65 37t19 61q0 33 -21 54q-20 20 -65 20h-410q-45 0 -65 -20
q-23 -23 -23 -54q0 -40 21 -61q19 -22 65 -37l92 -28l4 -553q0 -68 2 -101q0 -23 5 -90q2 -39 6 -86l-4 -2l-43 86q-5 8 -14 24t-17 30t-15 28q-15 29 -53 86l-440 682q-39 61 -76 80q-39 20 -92 20h-293q-45 0 -65 -20q-23 -23 -23 -53q0 -41 18 -62q19 -22 66 -37l90 -28
v-977z" />
    <glyph glyph-name="eng" unicode="&#x14b;" horiz-adv-x="1292" 
d="M211 197l-2 -4l-88 -27q-46 -15 -62 -31q-16 -19 -16 -53q0 -38 27 -62t73 -24h408q47 0 74 24q26 23 26 62q0 34 -16 53q-15 18 -62 33l-86 27v538q22 25 50 47q30 22 59 35q32 14 80 14q55 0 94 -20q37 -21 59 -78q22 -59 31 -151q8 -84 8 -246q0 -183 -10 -316
q-11 -114 -31 -184q-18 -67 -47 -96q-28 -31 -61 -51q-18 -11 -29 -19q-12 -9 -18 -18q-7 -10 -10 -23q-5 -20 -5 -26q0 -35 27 -56q24 -24 76 -24q61 0 117 26q51 25 100 74q38 38 74 96q34 62 53 144q21 86 33 217q12 129 12 321q0 178 -21 301q-22 126 -63 199
q-42 71 -115 107q-65 32 -172 32q-95 0 -151 -26q-58 -27 -97 -58q-43 -37 -67 -84l-4 2v27q0 71 -31 102t-109 31q-57 0 -106 -8q-62 -10 -98 -20q-40 -12 -56 -31q-18 -18 -18 -55q0 -36 18 -54q19 -19 58 -28l94 -21v-618z" />
    <glyph glyph-name="Omacron" unicode="&#x14c;" horiz-adv-x="1509" 
d="M82 659l-2 -2q0 -166 45 -288q48 -130 131 -213q87 -87 205 -133q124 -48 266 -48q150 0 283 54q128 52 223 147q89 92 143 234q51 131 51 305q0 167 -45 289q-47 127 -129 215q-86 89 -204 135q-116 45 -267 45q-157 0 -282 -51q-128 -52 -221 -148q-94 -98 -146 -233
q-51 -134 -51 -308zM381 690l-2 -4q0 122 29 223q27 95 77 160q50 62 117 92q70 31 143 31q75 0 148 -31q64 -28 119 -96q51 -63 82 -160q30 -95 30 -225q0 -123 -28 -221q-26 -92 -78 -156q-50 -62 -117 -92q-70 -31 -143 -31q-81 0 -146 33q-68 30 -120 94q-53 65 -80 160
q-31 98 -31 223zM504 1741v-2q-57 0 -86 -29q-29 -32 -29 -82q0 -38 23 -61t67 -23h514q58 0 86 31q29 32 29 82q0 38 -23 61t-67 23h-514z" />
    <glyph glyph-name="omacron" unicode="&#x14d;" horiz-adv-x="1208" 
d="M82 481l2 -2q0 -239 131 -370q134 -134 363 -134q124 0 227 41q100 40 172 115q69 72 110 178q37 104 37 230q0 241 -131 372t-362 131q-127 0 -223 -38q-100 -40 -172 -115q-72 -72 -113 -176q-41 -106 -41 -232zM371 512l-9 -2q0 174 68 254t166 80q48 0 94 -21
q41 -20 76 -61q31 -44 51 -107q19 -68 19 -151q0 -174 -66 -252q-68 -80 -166 -80q-48 0 -92 21q-46 22 -74 63q-33 47 -49 106q-18 64 -18 150zM356 1393v2q-58 0 -86 -31t-28 -82q0 -39 22 -61q23 -23 68 -23h506q58 0 86 31t28 82q0 39 -22 61q-21 21 -68 21h-506z" />
    <glyph glyph-name="Obreve" unicode="&#x14e;" horiz-adv-x="1509" 
d="M82 659l-2 -2q0 -166 45 -288q48 -130 131 -213q87 -87 205 -133q124 -48 266 -48q150 0 283 54q128 52 223 147q89 92 143 234q51 131 51 305q0 167 -45 289q-47 127 -129 215q-86 89 -204 135q-116 45 -267 45q-157 0 -282 -51q-128 -52 -221 -148q-94 -98 -146 -233
q-51 -134 -51 -308zM381 690l-2 -4q0 122 29 223q27 95 77 160q50 62 117 92q70 31 143 31q75 0 148 -31q64 -28 119 -96q51 -63 82 -160q30 -95 30 -225q0 -123 -28 -221q-26 -92 -78 -156q-50 -62 -117 -92q-70 -31 -143 -31q-81 0 -146 33q-68 30 -120 94q-53 65 -80 160
q-31 98 -31 223zM428 1765l2 -2q0 -53 23 -110q20 -50 61 -88q40 -37 98 -58q58 -22 123 -22q70 0 129 20q59 17 107 56q47 38 73 88q27 53 27 116q0 46 -22 68q-25 22 -64 22q-29 0 -49 -14q-22 -16 -31 -55q-9 -47 -49 -74q-44 -29 -104 -29q-62 0 -105 29q-44 27 -53 74
q-9 39 -31 55q-20 14 -49 14q-39 0 -61 -22q-25 -22 -25 -68z" />
    <glyph glyph-name="obreve" unicode="&#x14f;" horiz-adv-x="1208" 
d="M82 481l2 -2q0 -239 131 -370q134 -134 363 -134q124 0 227 41q100 40 172 115q69 72 110 178q37 104 37 230q0 241 -131 372t-362 131q-127 0 -223 -38q-100 -40 -172 -115q-72 -72 -113 -176q-41 -106 -41 -232zM371 512l-9 -2q0 174 68 254t166 80q48 0 94 -21
q41 -20 76 -61q31 -44 51 -107q19 -68 19 -151q0 -174 -66 -252q-68 -80 -166 -80q-48 0 -92 21q-46 22 -74 63q-33 47 -49 106q-18 64 -18 150zM285 1415l-6 -6q0 -62 22 -117q21 -53 61 -90q42 -39 95 -59q61 -23 118 -23q63 0 127 23q59 21 105 61q43 37 70 90
q26 51 26 117q0 46 -22 68q-23 20 -60 20q-29 0 -47 -12q-20 -13 -29 -53q-9 -56 -47 -86q-39 -31 -104 -31q-68 0 -107 33q-40 30 -49 86q-9 41 -26 55q-18 12 -47 12q-36 0 -56 -20q-24 -21 -24 -68z" />
    <glyph glyph-name="Ohungarumlaut" unicode="&#x150;" horiz-adv-x="1509" 
d="M82 659l-2 -2q0 -166 45 -288q48 -130 131 -213q87 -87 205 -133q124 -48 266 -48q150 0 283 54q128 52 223 147q89 92 143 234q51 131 51 305q0 167 -45 289q-47 127 -129 215q-86 89 -204 135q-116 45 -267 45q-157 0 -282 -51q-128 -52 -221 -148q-94 -98 -146 -233
q-51 -134 -51 -308zM381 690l-2 -4q0 122 29 223q27 95 77 160q50 62 117 92q70 31 143 31q75 0 148 -31q64 -28 119 -96q51 -63 82 -160q30 -95 30 -225q0 -123 -28 -221q-26 -92 -78 -156q-50 -62 -117 -92q-70 -31 -143 -31q-81 0 -146 33q-68 30 -120 94q-53 65 -80 160
q-31 98 -31 223zM496 1602h2q-21 -27 -21 -50q0 -33 25 -55t59 -22q25 0 51 20l224 195q34 27 34 65q0 24 -10 47q-13 23 -31 41q-17 17 -43 27q-27 10 -49 10q-47 0 -73 -39zM893 1604l-4 -2q-25 -25 -25 -54q0 -17 8 -30q6 -15 19 -25q12 -12 27 -18q18 -7 30 -7
q20 0 43 13l277 157q47 27 47 74q0 25 -10 55q-11 21 -31 45q-19 19 -43 31t-49 12q-19 0 -31 -6q-14 -7 -29 -22z" />
    <glyph glyph-name="ohungarumlaut" unicode="&#x151;" horiz-adv-x="1208" 
d="M82 481l2 -2q0 -239 131 -370q134 -134 363 -134q124 0 227 41q100 40 172 115q69 72 110 178q37 104 37 230q0 241 -131 372t-362 131q-127 0 -223 -38q-100 -40 -172 -115q-72 -72 -113 -176q-41 -106 -41 -232zM371 512l-9 -2q0 174 68 254t166 80q48 0 94 -21
q41 -20 76 -61q31 -44 51 -107q19 -68 19 -151q0 -174 -66 -252q-68 -80 -166 -80q-48 0 -92 21q-46 22 -74 63q-33 47 -49 106q-18 64 -18 150zM328 1239l2 10q-11 -26 -11 -37q0 -33 25 -55q23 -20 59 -20q32 0 58 26l198 217q27 27 27 56q0 26 -12 47q-13 23 -33 37
q-19 14 -43 24q-21 8 -49 8q-53 0 -80 -49zM688 1262h-4q-8 -14 -12 -25q-4 -16 -4 -25q0 -35 26 -55q25 -22 60 -22q8 0 24 4q12 3 21 12l260 188q22 15 31 31q8 13 8 37q0 20 -11 49q-12 24 -30 45q-19 19 -43 31t-51 12q-36 0 -64 -31z" />
    <glyph glyph-name="OE" unicode="&#x152;" horiz-adv-x="1929" 
d="M952 213l-2 2q-18 -7 -49 -18q-31 -9 -55 -11q-34 -6 -74 -6q-87 0 -154 33q-70 30 -122 94q-53 65 -80 160q-31 98 -31 225q0 124 29 226q27 94 80 159q50 62 120 92q73 31 154 31q34 0 80 -4q33 -6 55 -12q21 -7 49 -19v-952zM1237 197l-8 -4v407h272l21 -51
q14 -39 37 -55q19 -19 51 -19q34 0 57 23q21 21 21 67v252q0 47 -21 68q-20 20 -57 20q-34 0 -51 -14q-21 -18 -35 -55l-21 -54h-272v400h366l33 -101q15 -41 39 -59t57 -18q40 0 60 20q21 18 24 61q2 23 2 56v53v25q0 60 -6 84t-22 40t-37 25q-21 8 -61 8h-676q-5 1 -64 10
q-61 6 -74 7q-58 4 -96 4q-157 0 -282 -51q-130 -53 -222 -148q-93 -96 -145 -233q-51 -134 -51 -308q0 -166 45 -288q48 -130 131 -213q87 -87 205 -133q124 -48 266 -48q23 0 96 5q45 3 74 6q32 5 63 12h760q41 0 62 8q22 8 39 25q16 16 22 41q6 24 6 84v34v31v25v26v31
q-3 43 -24 64q-21 18 -60 18q-35 0 -59 -18q-25 -19 -37 -60l-35 -110h-393z" />
    <glyph glyph-name="oe" unicode="&#x153;" horiz-adv-x="1847" 
d="M369 514l-9 -2q0 174 68 254t166 80q48 0 94 -21q41 -20 76 -61q31 -44 51 -107q19 -68 19 -151q0 -174 -66 -252q-68 -80 -166 -80q-48 0 -92 21q-46 22 -74 63q-32 47 -49 107q-18 65 -18 149zM1612 463l-6 2q68 0 104 39q37 40 37 117q0 206 -107 313
q-108 108 -301 108q-67 0 -122 -12t-99 -33q-40 -19 -78 -49q-34 -24 -65 -59q-58 67 -137 110t-215 43q-128 0 -224 -38q-100 -40 -172 -115q-70 -70 -112 -176q-41 -106 -41 -232q0 -239 131 -370q134 -134 362 -134q139 0 232 43t159 115q24 -34 58 -61q39 -30 80 -49
q55 -25 104 -35q63 -13 135 -13q133 0 221 31q82 29 119 66q17 18 25 30q6 15 6 37q0 35 -18 56q-18 18 -52 18q-19 0 -37 -6q-15 -5 -43 -12q-36 -9 -59 -13q-35 -6 -80 -6q-138 0 -215 74t-92 211h502zM1108 623h-2q15 106 68 165q54 60 131 60q73 0 120 -53t50 -172h-367
z" />
    <glyph glyph-name="Racute" unicode="&#x154;" horiz-adv-x="1370" 
d="M244 201l-4 -6l-97 -31q-44 -14 -61 -31q-16 -19 -16 -53q0 -39 26 -62q27 -24 74 -24h391q47 0 74 24q26 23 26 62q0 34 -18 55q-20 20 -61 37l-56 25v366h160l109 -244q41 -93 83 -155q44 -64 93 -105q50 -41 100 -55q53 -18 115 -18q95 0 135 34q39 33 39 74
q0 21 -13 37t-40 31q-29 13 -68 43q-33 26 -68 67q-32 35 -67 88q-29 42 -68 111l-78 147q50 18 97 56q48 39 84 86q39 52 59 110q23 67 23 129q0 84 -29 160q-26 67 -90 119q-59 48 -158 76q-99 24 -238 24h-544q-46 0 -66 -20q-22 -22 -22 -53q0 -41 18 -62q19 -22 66 -37
l90 -28v-977zM522 741v437h144q131 0 190 -56t59 -161q0 -103 -59 -162q-61 -58 -190 -58h-144zM520 1632l-4 -6q-24 -24 -24 -53q0 -39 26 -62q24 -24 60 -24q15 0 38 10l287 152q28 16 39 32q12 18 12 50q0 28 -12 55t-31 49q-16 19 -41 33q-24 12 -49 12q-18 0 -30 -6
q-11 -5 -25 -16z" />
    <glyph glyph-name="racute" unicode="&#x155;" horiz-adv-x="872" 
d="M211 197l-4 -4l-88 -27q-46 -15 -62 -31q-16 -19 -16 -53q0 -38 27 -62t73 -24h420q47 0 74 24t27 62q0 33 -17 53q-16 19 -61 31l-99 27v501q34 46 74 64q41 18 84 18q13 0 29 -4q8 -2 20 -6q3 -1 23 -6q16 -4 26 -4q19 0 37 12q22 15 35 33q17 23 25 55q8 31 8 80
q0 51 -29 80q-28 28 -80 28q-48 0 -86 -14q-34 -13 -73 -43q-43 -31 -66 -63q-30 -41 -49 -84l-4 2v57q0 71 -31 102t-109 31q-57 0 -106 -8q-62 -10 -98 -20q-40 -12 -56 -31q-18 -18 -18 -55q0 -36 18 -54q19 -19 58 -28l94 -21v-618zM391 1262q-15 -25 -16 -27
q-6 -12 -6 -27q0 -36 26 -59q25 -25 58 -25q16 0 28 6q14 7 29 19l233 186q21 18 31 35q8 13 8 37q0 25 -12 49t-33 45q-24 20 -45 31q-24 12 -53 12q-20 0 -37 -10q-19 -13 -35 -35z" />
    <glyph glyph-name="Rcommaaccent" unicode="&#x156;" horiz-adv-x="1370" 
d="M244 201l-4 -6l-97 -31q-44 -14 -61 -31q-16 -19 -16 -53q0 -39 26 -62q27 -24 74 -24h391q47 0 74 24q26 23 26 62q0 34 -18 55q-20 20 -61 37l-56 25v366h160l109 -244q41 -93 83 -155q44 -64 93 -105q50 -41 100 -55q53 -18 115 -18q95 0 135 34q39 33 39 74
q0 21 -13 37t-40 31q-29 13 -68 43q-33 26 -68 67q-32 35 -67 88q-29 42 -68 111l-78 147q50 18 97 56q48 39 84 86q39 52 59 110q23 67 23 129q0 84 -29 160q-26 67 -90 119q-59 48 -158 76q-99 24 -238 24h-544q-46 0 -66 -20q-22 -22 -22 -53q0 -41 18 -62q19 -22 66 -37
l90 -28v-977zM522 741v437h144q131 0 190 -56t59 -161q0 -103 -59 -162q-61 -58 -190 -58h-144zM578 -244l-7 -8q0 -20 7 -37q8 -20 14 -28q-34 -24 -62 -35q-36 -14 -57 -19q-31 -7 -49 -12q-24 -7 -35 -18q-14 -14 -14 -37q0 -29 26 -43q25 -19 80 -19q46 0 119 17
q56 13 119 47q52 28 92 78q37 46 37 106t-37 100q-37 37 -96 37t-99 -37q-38 -35 -38 -92z" />
    <glyph glyph-name="rcommaaccent" unicode="&#x157;" horiz-adv-x="872" 
d="M211 197l-4 -4l-88 -27q-46 -15 -62 -31q-16 -19 -16 -53q0 -38 27 -62t73 -24h420q47 0 74 24t27 62q0 33 -17 53q-16 19 -61 31l-99 27v501q34 46 74 64q41 18 84 18q13 0 29 -4q8 -2 20 -6q3 -1 23 -6q16 -4 26 -4q19 0 37 12q22 15 35 33q17 23 25 55q8 31 8 80
q0 51 -29 80q-28 28 -80 28q-48 0 -86 -14q-34 -13 -73 -43q-43 -31 -66 -63q-30 -41 -49 -84l-4 2v57q0 71 -31 102t-109 31q-57 0 -106 -8q-62 -10 -98 -20q-40 -12 -56 -31q-18 -18 -18 -55q0 -36 18 -54q19 -19 58 -28l94 -21v-618zM215 -242l-6 -8q0 -22 6 -37
q8 -20 14 -28q-35 -25 -61 -35q-36 -14 -57 -19q-36 -8 -50 -12q-22 -6 -34 -18q-15 -15 -15 -37q0 -28 27 -43q25 -19 80 -19q46 0 119 17q54 13 118 47q53 29 93 78q36 45 36 106t-36 100q-37 37 -97 37q-58 0 -98 -37q-39 -36 -39 -92z" />
    <glyph glyph-name="Rcaron" unicode="&#x158;" horiz-adv-x="1370" 
d="M244 201l-4 -6l-97 -31q-44 -14 -61 -31q-16 -19 -16 -53q0 -39 26 -62q27 -24 74 -24h391q47 0 74 24q26 23 26 62q0 34 -18 55q-20 20 -61 37l-56 25v366h160l109 -244q41 -93 83 -155q44 -64 93 -105q50 -41 100 -55q53 -18 115 -18q95 0 135 34q39 33 39 74
q0 21 -13 37t-40 31q-29 13 -68 43q-33 26 -68 67q-32 35 -67 88q-29 42 -68 111l-78 147q50 18 97 56q48 39 84 86q39 52 59 110q23 67 23 129q0 84 -29 160q-26 67 -90 119q-59 48 -158 76q-99 24 -238 24h-544q-46 0 -66 -20q-22 -22 -22 -53q0 -41 18 -62q19 -22 66 -37
l90 -28v-977zM522 741v437h144q131 0 190 -56t59 -161q0 -103 -59 -162q-61 -58 -190 -58h-144zM541 1526h-4q41 -41 92 -41t92 41l219 209q12 12 18 24q7 14 7 29q0 31 -23 57q-25 25 -59 25q-22 0 -43 -15l-197 -126l-197 126q-14 11 -24 13q-8 2 -23 2q-41 0 -65 -27
q-25 -28 -25 -61q0 -26 23 -49z" />
    <glyph glyph-name="rcaron" unicode="&#x159;" horiz-adv-x="872" 
d="M211 197l-4 -4l-88 -27q-46 -15 -62 -31q-16 -19 -16 -53q0 -38 27 -62t73 -24h420q47 0 74 24t27 62q0 33 -17 53q-16 19 -61 31l-99 27v501q34 46 74 64q41 18 84 18q13 0 29 -4q8 -2 20 -6q3 -1 23 -6q16 -4 26 -4q19 0 37 12q22 15 35 33q17 23 25 55q8 31 8 80
q0 51 -29 80q-28 28 -80 28q-48 0 -86 -14q-34 -13 -73 -43q-43 -31 -66 -63q-30 -41 -49 -84l-4 2v57q0 71 -31 102t-109 31q-57 0 -106 -8q-62 -10 -98 -20q-40 -12 -56 -31q-18 -18 -18 -55q0 -36 18 -54q19 -19 58 -28l94 -21v-618zM356 1163l-4 -2q36 -39 84 -39
q47 0 86 39l217 217q23 23 23 54q0 27 -23 53q-21 24 -55 24q-13 0 -25 -4q-11 -4 -22 -12l-186 -129l-187 129q-12 9 -24 12q-16 4 -25 4q-35 0 -59 -24q-25 -25 -25 -60q0 -28 21 -49z" />
    <glyph glyph-name="Sacute" unicode="&#x15a;" horiz-adv-x="1140" 
d="M817 1030l-10 -24q15 -41 37 -60q21 -18 55 -18q35 0 55 20q22 19 25 62q2 18 2 53v63v25v59q0 19 -4 43q-3 17 -10 31q-6 12 -17 23q-34 34 -110 55q-73 20 -201 20q-138 0 -240 -30q-98 -29 -166 -84q-64 -50 -100 -123q-33 -70 -33 -158q0 -84 29 -153q27 -64 74 -111
t104 -76q72 -37 119 -53q10 -4 53 -21.5t66 -25.5q51 -18 104 -49q46 -26 74 -66q27 -38 27 -96q0 -72 -54 -123q-55 -49 -157 -49q-51 0 -86 6q-39 6 -62 12q-21 7 -49 19l-51 149q-27 80 -94 80q-35 0 -56 -18t-24 -62q-2 -18 -2 -49v-68v-30q0 -42 2 -56q0 -21 4 -41
q3 -18 12 -30q6 -12 17 -23q34 -34 118 -55q94 -23 221 -23q140 0 238 33q103 35 172 92q67 55 102 133t35 166q0 120 -47 197q-47 73 -121 125q-72 51 -153 80q-98 36 -154 63q-70 30 -117 74q-49 43 -49 115q0 63 49 106t150 43q34 0 80 -4q42 -8 53 -10q8 -3 22 -7.5
t19 -6.5zM465 1614l-4 -6q-25 -25 -25 -54q0 -37 27 -61q25 -25 59 -25q13 0 39 11l287 151q27 15 39 33t12 49q0 28 -12 55q-13 29 -31 50q-14 17 -41 32q-26 13 -49 13q-17 0 -31 -7q-8 -4 -24 -16z" />
    <glyph glyph-name="sacute" unicode="&#x15b;" horiz-adv-x="985" 
d="M285 250l-11 -10q-15 40 -32 57q-18 18 -54 18q-34 0 -55 -18t-24 -57q-3 -21 -3 -43v-43v-15q0 -46 9 -67q6 -21 22 -37q23 -23 88 -43q74 -23 199 -23q120 0 209 27q87 27 147 74q59 44 86 102q29 63 29 127q0 96 -39 152q-40 58 -98 98q-56 36 -127 61q-17 6 -61 21.5
t-66 23.5q-50 18 -98 50q-39 23 -39 65q0 41 28 66q27 24 115 24q21 0 57 -4q28 -4 43 -6q27 -8 41 -10l21 -60q14 -37 37 -57q18 -18 53 -18q34 0 55 18q22 19 25 57q2 14 2 43v43v11q0 46 -6 67q-6 20 -23 37q-22 22 -86 43q-61 20 -186 20q-115 0 -197 -24
q-81 -23 -139 -66q-56 -44 -82 -100q-27 -58 -27 -123q0 -92 39 -145q39 -54 99 -92q63 -40 129 -60q17 -6 61 -21.5t66 -23.5q53 -19 98 -49q39 -26 39 -74q0 -46 -35 -73q-39 -31 -129 -31q-30 0 -66 4q-30 3 -51 6q-30 9 -41 14zM391 1255l-8 -12t-8 -14q-6 -12 -6 -27
q0 -36 26 -59q25 -25 58 -25q16 0 28 6q14 7 29 19l233 186q21 18 31 35q8 13 8 37q0 25 -12 49t-33 45q-24 20 -45 31q-24 12 -53 12q-20 0 -37 -10q-19 -13 -35 -35z" />
    <glyph glyph-name="Scircumflex" unicode="&#x15c;" horiz-adv-x="1140" 
d="M817 1030l-10 -24q15 -41 37 -60q21 -18 55 -18q35 0 55 20q22 19 25 62q2 18 2 53v63v25v59q0 19 -4 43q-3 17 -10 31q-6 12 -17 23q-34 34 -110 55q-73 20 -201 20q-138 0 -240 -30q-98 -29 -166 -84q-64 -50 -100 -123q-33 -70 -33 -158q0 -84 29 -153q27 -64 74 -111
t104 -76q72 -37 119 -53q10 -4 53 -21.5t66 -25.5q51 -18 104 -49q46 -26 74 -66q27 -38 27 -96q0 -72 -54 -123q-55 -49 -157 -49q-51 0 -86 6q-39 6 -62 12q-21 7 -49 19l-51 149q-27 80 -94 80q-35 0 -56 -18t-24 -62q-2 -18 -2 -49v-68v-30q0 -42 2 -56q0 -21 4 -41
q3 -18 12 -30q6 -12 17 -23q34 -34 118 -55q94 -23 221 -23q140 0 238 33q103 35 172 92q67 55 102 133t35 166q0 120 -47 197q-47 73 -121 125q-72 51 -153 80q-98 36 -154 63q-70 30 -117 74q-49 43 -49 115q0 63 49 106t150 43q34 0 80 -4q42 -8 53 -10q8 -3 22 -7.5
t19 -6.5zM276 1606h3q-13 -13 -19 -25t-6 -29q0 -33 25 -55q24 -24 57 -24q23 0 43 14l196 127l197 -127q12 -9 25 -12q20 -5 22 -5q41 0 68 27q24 27 24 62q0 27 -22 49l-209 207q-40 40 -92 40t-92 -40z" />
    <glyph glyph-name="scircumflex" unicode="&#x15d;" horiz-adv-x="985" 
d="M285 250l-11 -10q-15 40 -32 57q-18 18 -54 18q-34 0 -55 -18t-24 -57q-3 -21 -3 -43v-43v-15q0 -46 9 -67q6 -21 22 -37q23 -23 88 -43q74 -23 199 -23q120 0 209 27q87 27 147 74q59 44 86 102q29 63 29 127q0 96 -39 152q-40 58 -98 98q-56 36 -127 61q-17 6 -61 21.5
t-66 23.5q-50 18 -98 50q-39 23 -39 65q0 41 28 66q27 24 115 24q21 0 57 -4q28 -4 43 -6q27 -8 41 -10l21 -60q14 -37 37 -57q18 -18 53 -18q34 0 55 18q22 19 25 57q2 14 2 43v43v11q0 46 -6 67q-6 20 -23 37q-22 22 -86 43q-61 20 -186 20q-115 0 -197 -24
q-81 -23 -139 -66q-56 -44 -82 -100q-27 -58 -27 -123q0 -92 39 -145q39 -54 99 -92q63 -40 129 -60q17 -6 61 -21.5t66 -23.5q53 -19 98 -49q39 -26 39 -74q0 -46 -35 -73q-39 -31 -129 -31q-30 0 -66 4q-30 3 -51 6q-30 9 -41 14zM199 1257l2 -2q-23 -23 -23 -53
q0 -26 23 -49q22 -25 55 -25q10 0 25 5q11 4 22 12l186 129l187 -129q12 -9 24 -12q20 -5 25 -5q34 0 61 27q25 25 25 57q0 30 -20 50l-205 213q-35 38 -84 38q-48 0 -86 -38z" />
    <glyph glyph-name="Scedilla" unicode="&#x15e;" horiz-adv-x="1140" 
d="M817 1030l-4 -35q15 -40 37 -59q21 -18 55 -18q36 0 56 20q21 18 24 61q2 18 2 54v63v25v59q0 19 -4 43q-3 16 -10 31q-5 10 -17 22q-36 36 -110 56q-73 20 -201 20q-134 0 -239 -31q-98 -29 -166 -84q-67 -52 -101 -122q-33 -70 -33 -158q0 -121 50 -195
q51 -76 118 -120q71 -47 154 -74q90 -33 154 -64q78 -38 120 -75q50 -44 50 -121q0 -72 -54 -123q-55 -49 -157 -49q-52 0 -86 6q-39 6 -62 12q-21 7 -49 19l-51 149q-27 80 -94 80q-34 0 -56 -19q-21 -18 -24 -61q-2 -18 -2 -49v-68v-30q0 -42 2 -56q0 -21 4 -41
q3 -18 12 -30q6 -12 17 -23q33 -33 112 -51q90 -20 178 -23l-41 -161q-5 -22 5 -39q9 -15 30 -15q42 0 62 -14t20 -39q0 -29 -20 -43q-22 -16 -70 -16q-27 0 -37 2h-33q-31 0 -47 -19q-18 -18 -18 -45q0 -33 31 -55q31 -25 112 -25q80 0 148 19q60 17 110 49q44 30 68 74
t24 88q0 89 -61 135q-59 45 -145 51l14 64q99 9 180 43q84 36 139 86q58 52 93 127q30 73 30 161q0 120 -47 197q-47 73 -121 125q-72 51 -153 80q-98 36 -154 63q-70 30 -117 74q-49 43 -49 115q0 63 49 106t150 43q34 0 80 -4q42 -8 53 -10q8 -3 22 -7.5t19 -6.5z" />
    <glyph glyph-name="scedilla" unicode="&#x15f;" horiz-adv-x="985" 
d="M285 250l-6 -14q-14 38 -33 57q-18 18 -53 18t-56 -18t-24 -57q-2 -14 -2 -43v-43v-15q0 -48 8 -67q6 -21 22 -37q21 -21 80 -39q62 -20 146 -23l-41 -162q-6 -22 4 -38q9 -15 30 -15q42 0 62 -14t20 -39q0 -29 -20 -43q-22 -16 -70 -16q-27 0 -37 2h-32q-31 0 -47 -19
q-19 -19 -19 -45q0 -33 31 -55q31 -25 112 -25q80 0 148 19q60 17 110 49q44 30 68 74q25 45 25 88q0 88 -62 135q-59 45 -145 51l14 59q172 15 277 103q100 84 100 221q0 96 -39 152q-40 58 -98 98q-56 36 -127 61q-17 6 -61 21.5t-66 23.5q-50 18 -98 50q-39 23 -39 65
q0 41 28 66q27 24 115 24q21 0 57 -4q28 -4 43 -6q27 -8 41 -10l21 -60q14 -37 37 -57q18 -18 53 -18q34 0 55 18q22 19 25 57q2 14 2 43v43v11q0 46 -6 67q-6 20 -23 37q-22 22 -86 43q-61 20 -186 20q-115 0 -197 -24q-81 -23 -139 -66q-56 -44 -82 -100q-27 -58 -27 -123
q0 -92 39 -145q39 -54 99 -92q63 -40 129 -60q17 -6 61 -21.5t66 -23.5q53 -19 98 -49q39 -26 39 -74q0 -46 -35 -73q-39 -31 -129 -31q-30 0 -66 4q-30 3 -51 6q-30 9 -41 14z" />
    <glyph glyph-name="Scaron" unicode="&#x160;" horiz-adv-x="1140" 
d="M817 1030l-10 -24q15 -41 37 -60q21 -18 55 -18q35 0 55 20q22 19 25 62q2 18 2 53v63v25v59q0 19 -4 43q-3 17 -10 31q-6 12 -17 23q-34 34 -110 55q-73 20 -201 20q-138 0 -240 -30q-98 -29 -166 -84q-64 -50 -100 -123q-33 -70 -33 -158q0 -84 29 -153q27 -64 74 -111
t104 -76q72 -37 119 -53q10 -4 53 -21.5t66 -25.5q51 -18 104 -49q46 -26 74 -66q27 -38 27 -96q0 -72 -54 -123q-55 -49 -157 -49q-51 0 -86 6q-39 6 -62 12q-21 7 -49 19l-51 149q-27 80 -94 80q-35 0 -56 -18t-24 -62q-2 -18 -2 -49v-68v-30q0 -42 2 -56q0 -21 4 -41
q3 -18 12 -30q6 -12 17 -23q34 -34 118 -55q94 -23 221 -23q140 0 238 33q103 35 172 92q67 55 102 133t35 166q0 120 -47 197q-47 73 -121 125q-72 51 -153 80q-98 36 -154 63q-70 30 -117 74q-49 43 -49 115q0 63 49 106t150 43q34 0 80 -4q42 -8 53 -10q8 -3 22 -7.5
t19 -6.5zM477 1507h-4q41 -41 92 -41t92 41l220 209q11 11 18 25q6 12 6 28q0 33 -22 58q-24 24 -60 24q-23 0 -43 -14l-196 -127l-197 127q-11 9 -25 12q-8 2 -22 2q-43 0 -66 -26q-24 -27 -24 -62q0 -27 22 -49z" />
    <glyph glyph-name="scaron" unicode="&#x161;" horiz-adv-x="985" 
d="M285 250l-11 -10q-15 40 -32 57q-18 18 -54 18q-34 0 -55 -18t-24 -57q-3 -21 -3 -43v-43v-15q0 -46 9 -67q6 -21 22 -37q23 -23 88 -43q74 -23 199 -23q120 0 209 27q87 27 147 74q59 44 86 102q29 63 29 127q0 96 -39 152q-40 58 -98 98q-56 36 -127 61q-17 6 -61 21.5
t-66 23.5q-50 18 -98 50q-39 23 -39 65q0 41 28 66q27 24 115 24q21 0 57 -4q28 -4 43 -6q27 -8 41 -10l21 -60q14 -37 37 -57q18 -18 53 -18q34 0 55 18q22 19 25 57q2 14 2 43v43v11q0 46 -6 67q-6 20 -23 37q-22 22 -86 43q-61 20 -186 20q-115 0 -197 -24
q-81 -23 -139 -66q-56 -44 -82 -100q-27 -58 -27 -123q0 -92 39 -145q39 -54 99 -92q63 -40 129 -60q17 -6 61 -21.5t66 -23.5q53 -19 98 -49q39 -26 39 -74q0 -46 -35 -73q-39 -31 -129 -31q-30 0 -66 4q-30 3 -51 6q-30 9 -41 14zM397 1157l-4 -2q36 -39 84 -39
q47 0 86 39l217 217q23 23 23 53q0 28 -23 54q-21 24 -55 24q-13 0 -25 -4q-11 -4 -22 -12l-186 -129l-187 129q-12 9 -24 12q-16 4 -25 4q-35 0 -59 -24q-25 -25 -25 -60q0 -28 21 -49z" />
    <glyph glyph-name="uni0162" unicode="&#x162;" horiz-adv-x="1224" 
d="M469 201l10 -8l-106 -31q-46 -12 -62 -31q-18 -18 -18 -53q0 -39 26 -62q27 -24 74 -24h137l-45 -182q-6 -23 4 -39q9 -15 31 -15q42 0 62 -14t20 -39q0 -29 -20 -43q-22 -16 -70 -16q-27 0 -37 2h-33q-31 0 -47 -19q-18 -18 -18 -45q0 -33 31 -55q31 -25 112 -25
q80 0 148 19q60 17 110 49q44 30 68 74q24 43 24 88q0 89 -61 135q-59 45 -145 51l18 78h166q47 0 74 24q26 23 26 62q0 34 -16 53q-20 20 -64 31l-106 31v979h213l49 -158q12 -40 35 -60q21 -18 55 -18t55 21q22 19 25 61q2 39 2 92v74v35q0 60 -6 84t-23 41q-14 14 -37 24
q-21 8 -61 8h-905q-41 0 -60 -8q-27 -10 -41 -24q-16 -16 -22 -41q-6 -24 -6 -84v-35v-74q0 -53 2 -92q3 -43 24 -61q22 -19 56 -19t55 21q23 20 35 59l49 158h213v-979z" />
    <glyph glyph-name="uni0163" unicode="&#x163;" horiz-adv-x="751" 
d="M174 305v-8q0 -129 41 -197q42 -69 111 -96l-47 -192q-6 -23 4 -39q9 -15 30 -15q42 0 62 -14t20 -39q0 -29 -20 -43q-22 -16 -70 -16q-27 0 -37 2h-32q-32 0 -48 -19q-18 -18 -18 -45q0 -33 31 -55q31 -25 112 -25q80 0 148 19q60 17 110 49q44 30 68 74q25 45 25 88
q0 88 -62 135q-59 45 -145 51l16 66q93 3 145 24t72 41q16 16 25 37q8 16 8 41q0 32 -16 51t-43 19q-22 0 -43 -6q-25 -7 -62 -7q-54 0 -80 39q-28 42 -28 137v465h153q57 0 86 29t29 80q0 82 -92 82h-176v182q0 45 -25 70q-24 24 -72 24q-60 0 -90 -30q-32 -32 -47 -99
l-37 -145h-55q-55 0 -84 -29q-31 -31 -31 -80q0 -82 94 -82h70v-524z" />
    <glyph glyph-name="Tcaron" unicode="&#x164;" horiz-adv-x="1224" 
d="M469 201l6 -4l-106 -31q-46 -12 -62 -31q-18 -18 -18 -53q0 -39 26 -62q27 -24 74 -24h459q47 0 74 24q26 23 26 62q0 34 -16 53q-20 20 -64 31l-106 31v979h213l49 -158q12 -40 35 -60q21 -18 55 -18t55 21q22 19 25 61q2 39 2 92v74v35q0 60 -6 84t-23 41
q-14 14 -37 24q-21 8 -61 8h-905q-41 0 -60 -8q-27 -10 -41 -24q-16 -16 -22 -41q-6 -24 -6 -84v-35v-74q0 -53 2 -92q3 -43 24 -61q22 -19 56 -19t55 21q23 20 35 59l49 158h213v-979zM524 1528h-4q41 -41 92 -41q52 0 93 41l219 209q12 12 18 24t6 29q0 32 -22 57
q-25 25 -60 25q-23 0 -43 -14l-196 -127l-197 127q-12 9 -24 12q-8 2 -23 2q-42 0 -66 -27t-24 -61q0 -27 22 -49z" />
    </font>
</defs>
</svg>
